<svg viewBox="0 0 40 39" fill="none" xmlns="http://www.w3.org/2000/svg">
<path d="M37.2634 0.5C38.2903 0.50001 39.1228 1.33248 39.1228 2.35938V31.584C39.1227 32.7248 38.8148 33.8444 38.2322 34.8252L36.5486 37.6611C36.4492 37.8284 36.2685 37.9306 36.074 37.9307C35.7692 37.9307 35.5222 37.6837 35.5222 37.3789V34.877C35.4534 35.0238 35.3841 35.1775 35.3083 35.335L35.3074 35.3379C34.9109 36.1493 34.3474 36.8719 33.6248 37.5049L33.6208 37.5078C32.8316 38.1854 31.8044 38.5 30.5916 38.5C28.9823 38.5 27.5678 37.8596 26.366 36.623L26.364 36.6211C25.1744 35.3844 24.2679 33.6684 23.6218 31.5078H23.6208C22.9724 29.3273 22.6541 26.7686 22.6541 23.8408C22.6541 20.9362 22.9732 18.3946 23.6218 16.2256C24.2681 14.0645 25.1795 12.3535 26.3787 11.1279C27.5889 9.89117 29.0146 9.25195 30.6375 9.25195C31.8652 9.25199 32.8976 9.57238 33.6746 10.2686H33.6736C34.3152 10.8266 34.8249 11.4615 35.198 12.1729C35.2065 12.137 35.2119 12.0994 35.2126 12.0615L35.4041 2.32324C35.424 1.31079 36.2508 0.5 37.2634 0.5ZM10.6619 0.5C11.7494 0.500016 12.6938 1.24811 12.9431 2.30664L20.7712 35.5469C21.0579 36.7642 20.1341 37.9305 18.8835 37.9307C17.9783 37.9307 17.1929 37.3045 16.9919 36.4219L15.2888 28.9424L14.8611 29.3135C12.4157 31.4287 8.78233 31.4075 6.36108 29.2646L6.02808 28.9697L4.33179 36.4219C4.13085 37.3045 3.34538 37.9307 2.44019 37.9307C1.1896 37.9305 0.26583 36.7642 0.55249 35.5469L8.38062 2.30664C8.62997 1.2481 9.57434 0.5 10.6619 0.5ZM30.9568 14.0234C29.9714 14.0234 29.1591 14.4084 28.489 15.2129H28.488C27.7984 16.0384 27.2587 17.1895 26.8904 18.6943C26.529 20.19 26.3455 21.8807 26.3455 23.7695C26.3455 25.6811 26.532 27.4074 26.9011 28.9512H26.9021C27.2777 30.4782 27.8211 31.6602 28.5134 32.5234C29.1859 33.3414 29.9914 33.7285 30.9568 33.7285C31.8792 33.7285 32.6558 33.3629 33.3132 32.5889C33.9935 31.7761 34.533 30.6273 34.9089 29.1104C35.2849 27.5812 35.4763 25.8027 35.4763 23.7695C35.4763 21.7592 35.2887 20.0159 34.9207 18.5352V18.5342C34.5523 17.0408 34.0167 15.925 33.3406 15.1504L33.3386 15.1475C32.6837 14.3868 31.8992 14.0235 30.9568 14.0234ZM8.01733 20.2314C9.7008 19.4837 11.6329 19.492 13.3123 20.2588L10.6619 8.61523L8.01733 20.2314Z" fill="#323232" stroke="black"/>
</svg>
