<svg viewBox="0 0 37 37" fill="none" xmlns="http://www.w3.org/2000/svg">
<path d="M4.25 14.5C4.25 13.3954 5.14543 12.5 6.25 12.5H25.25C26.3546 12.5 27.25 13.3954 27.25 14.5V27.5C27.25 28.6046 26.3546 29.5 25.25 29.5H6.25C5.14543 29.5 4.25 28.6046 4.25 27.5V14.5Z" fill="#FFFFF0"/>
<path d="M25.25 12.5C26.3546 12.5 27.25 13.3954 27.25 14.5V27.5C27.25 28.6046 26.3546 29.5 25.25 29.5H6.25C5.14543 29.5 4.25 28.6046 4.25 27.5V14.5C4.25 13.3954 5.14543 12.5 6.25 12.5H25.25ZM4.85526 28.9333H26.6447V15.0667C26.6447 13.9621 25.7493 13.0667 24.6447 13.0667H6.85526C5.75069 13.0667 4.85526 13.9621 4.85526 15.0667V28.9333Z" fill="#FF47F9"/>
<path d="M12.5589 19.8774C11.6594 18.6983 9.83435 18.8741 9.17644 20.2033L4.85526 28.9333H26.6447L21.7411 22.2556C20.9021 21.113 19.1736 21.1818 18.428 22.3875L18.1863 22.7784C17.449 23.9707 15.7455 24.0542 14.8952 22.9396L12.5589 19.8774Z" fill="#FF47F9"/>
<path d="M23.0132 16.4667C23.0132 17.4056 22.2002 18.1667 21.1974 18.1667C20.1945 18.1667 19.3816 17.4056 19.3816 16.4667C19.3816 15.5278 20.1945 14.7667 21.1974 14.7667C22.2002 14.7667 23.0132 15.5278 23.0132 16.4667Z" fill="#FF47F9"/>
<path d="M29.75 9.5C29.75 10.0523 30.1977 10.5 30.75 10.5H32.25C32.5261 10.5 32.75 10.7239 32.75 11C32.75 11.2761 32.5261 11.5 32.25 11.5H30.75C30.1977 11.5 29.75 11.9477 29.75 12.5V14C29.75 14.2761 29.5261 14.5 29.25 14.5C28.9739 14.5 28.75 14.2761 28.75 14V12.5C28.75 11.9477 28.3023 11.5 27.75 11.5H26.25C25.9739 11.5 25.75 11.2761 25.75 11C25.75 10.7239 25.9739 10.5 26.25 10.5H27.75C28.3023 10.5 28.75 10.0523 28.75 9.5V8C28.75 7.72386 28.9739 7.5 29.25 7.5C29.5261 7.5 29.75 7.72386 29.75 8V9.5Z" fill="#FF47F9"/>
</svg>
