<svg viewBox="0 0 37 37" fill="#FF47F9" xmlns="http://www.w3.org/2000/svg">
<path d="M34.4025 26.2517C35.2848 26.2517 36 26.9788 36 27.8758C36 28.7728 35.2848 29.5 34.4025 29.5H10.5851C9.70278 29.5 8.98755 28.7728 8.98755 27.8758C8.98755 26.9788 9.70278 26.2517 10.5851 26.2517H34.4025ZM34.4025 19.9027C35.2848 19.9027 36 20.6298 36 21.5268C36 22.4238 35.2848 23.151 34.4025 23.151H2.59751C1.71523 23.151 1 22.4238 1 21.5268C1 20.6298 1.71523 19.9027 2.59751 19.9027H34.4025ZM34.4025 13.5537C35.2848 13.5537 36 14.2809 36 15.1779C36 16.0749 35.2848 16.802 34.4025 16.802H10.5851C9.70278 16.802 8.98755 16.0749 8.98755 15.1779C8.98755 14.2809 9.70278 13.5537 10.5851 13.5537H34.4025ZM34.4025 7.5C35.2848 7.5 36 8.22716 36 9.12416C36 10.0212 35.2848 10.7483 34.4025 10.7483H2.59751C1.71523 10.7483 1 10.0212 1 9.12416C1 8.22716 1.71523 7.5 2.59751 7.5H34.4025Z" />
</svg>
