<svg viewBox="0 0 37 37" fill="#FF47F9" xmlns="http://www.w3.org/2000/svg">
<path d="M27.211 21.3858C27.5501 20.9502 28.1785 20.872 28.6143 21.211C29.0499 21.5501 29.1281 22.1785 28.7891 22.6143L25.7666 26.5001L28.7891 30.3858C29.1281 30.8216 29.0499 31.45 28.6143 31.7891C28.1785 32.1281 27.5501 32.05 27.211 31.6143L24.5 28.128L21.7891 31.6143C21.45 32.05 20.8216 32.1281 20.3858 31.7891C19.9501 31.45 19.872 30.8216 20.211 30.3858L23.2325 26.5001L20.211 22.6143C19.872 22.1785 19.9501 21.5501 20.3858 21.211C20.8216 20.872 21.45 20.9502 21.7891 21.3858L24.5 24.8712L27.211 21.3858Z" />
<path d="M18.8192 22.63C19.1345 23.0833 19.0225 23.7072 18.5692 24.0225L13.7069 27.4034L8.46081 24.043C7.99575 23.7452 7.86026 23.1273 8.15807 22.6622C8.45593 22.1971 9.07386 22.0616 9.53893 22.3595L12.6844 24.3741V13.2012C12.6844 12.649 13.1322 12.2012 13.6844 12.2012C14.2365 12.2015 14.6844 12.6491 14.6844 13.2012V24.2872L17.4266 22.38C17.88 22.0647 18.5039 22.1766 18.8192 22.63Z" />
<path d="M27.8182 9.77351C28.1335 9.32012 28.0216 8.69628 27.5682 8.38094L22.7059 5.00008L17.4598 8.36043C16.9948 8.65828 16.8593 9.27622 17.1571 9.74129C17.4549 10.2063 18.0729 10.3418 18.538 10.044L21.6835 8.02937V19.2022C21.6835 19.7545 22.1312 20.2022 22.6835 20.2022C23.2355 20.202 23.6835 19.7544 23.6835 19.2022V8.11629L26.4257 10.0235C26.879 10.3388 27.5029 10.2269 27.8182 9.77351Z" />
</svg>
