<svg viewBox="0 0 37 37" fill="#FF47F9" xmlns="http://www.w3.org/2000/svg">
<path fill-rule="evenodd" clip-rule="evenodd" d="M31 9C31 7.34315 29.6569 6 28 6H9C7.34315 6 6 7.34315 6 9V28C6 29.6569 7.34315 31 9 31H28C29.6569 31 31 29.6569 31 28V9ZM16.1388 22.2996C16.8902 23.1385 17.4501 23.7947 18.315 23.0734C18.9959 22.5055 20.6335 21.7463 21.3519 22.266C21.8754 22.6446 22.2723 23.0382 22.5376 23.3654C22.6793 23.5403 22.8069 23.6531 22.9172 23.7507C23.1371 23.9451 23.2885 24.079 23.3473 24.5228C23.4458 25.2661 23.1999 25.7943 22.7072 26.3593C22.1907 26.9517 21.6744 27.4075 20.9753 27.9183C20.8662 27.9981 20.7668 28.0739 20.674 28.1448C19.9594 28.6904 19.6294 28.9424 18.1614 28.4307C16.5026 27.8526 12.8861 24.0297 11.466 21.2422L11.4409 21.1929C10.1153 18.591 9.81088 17.9935 9.63011 14.9533C9.62486 14.8651 9.61956 14.7797 9.61441 14.6967C9.54987 13.6541 9.50867 12.9887 9.869 11.8957C10.069 11.289 10.4282 11.0046 10.8752 10.6505C10.9883 10.5609 11.1071 10.4669 11.2303 10.362C11.2911 10.3103 11.3491 10.2594 11.4049 10.2096C11.4541 10.1657 11.5016 10.1227 11.5481 10.0806C11.9578 9.70991 12.2842 9.41442 12.8943 9.29429C13.9404 9.08831 15.0117 10.3941 15.6154 11.2725C16.2668 12.2204 16.3291 12.3405 16.7306 13.2796C16.9721 13.8444 15.9416 14.4898 15.3493 14.8607C15.2972 14.8934 15.2465 14.9251 15.2024 14.9533C14.0335 15.6987 12.7135 16.5665 13.061 17.9086C13.1426 18.2235 13.246 18.5247 13.3772 18.781C13.8068 19.62 15.115 21.1563 16.1388 22.2996ZM18.7501 11.7928C18.3781 11.865 18.177 12.254 18.2902 12.6157C18.4035 12.9773 18.7884 13.1734 19.1625 13.1132C19.8622 13.0005 20.5812 13.0445 21.2667 13.2458C22.1726 13.5119 22.9793 14.0406 23.5848 14.7651C24.1903 15.4896 24.5673 16.3774 24.6682 17.3161C24.7445 18.0265 24.6602 18.7419 24.425 19.4104C24.2993 19.7679 24.4239 20.1816 24.7597 20.3572C25.0955 20.5329 25.514 20.4041 25.6512 20.0508C26.0056 19.1378 26.138 18.1499 26.0326 17.1695C25.9027 15.9608 25.4173 14.8179 24.6378 13.8851C23.8583 12.9523 22.8197 12.2716 21.6534 11.9291C20.7073 11.6513 19.7116 11.6061 18.7501 11.7928ZM17.0456 10.0899C16.9075 9.72042 17.0945 9.30593 17.4739 9.19785C19.0689 8.7435 20.7643 8.74232 22.3676 9.20184C24.2005 9.72716 25.8165 10.8268 26.9777 12.3391C28.139 13.8514 28.7843 15.6964 28.8187 17.6028C28.8488 19.2705 28.41 20.908 27.5593 22.3317C27.357 22.6703 26.9082 22.744 26.5869 22.5152L26.4418 22.4119C26.1205 22.1831 26.0489 21.7386 26.2452 21.3964C26.8997 20.2559 27.2361 18.9554 27.2123 17.6318C27.1841 16.0693 26.6552 14.5571 25.7034 13.3177C24.7516 12.0782 23.4272 11.1769 21.9249 10.7463C20.6524 10.3816 19.3091 10.371 18.0383 10.7089C17.6571 10.8102 17.2461 10.6263 17.108 10.2568L17.0456 10.0899Z"/>
</svg>
