<svg viewBox="0 0 402 543" fill="none" xmlns="http://www.w3.org/2000/svg">
<g id="Contactscene">
<rect id="bg" width="403" height="543" fill="url(#paint0_linear_185_272)" fill-opacity="0.51"/>
<g id="Contact">
<g id="Vector 23">
<path d="M194.596 88.8128H148.107L130.416 107.326L114.783 129.954V160.398L121.777 168.215L130.416 187.139L121.777 194.133H141.524H178.963L186.368 169.037C186.368 169.037 185.957 168.215 192.539 168.215H206.116C215.578 168.215 215.578 136.948 215.578 136.948L208.995 110.206L194.596 88.8128Z" fill="#FFDBAC"/>
<path d="M148.107 88.3128C148.107 88.6462 148.107 88.9795 148.107 89.3128C154.168 89.2521 160.229 89.1969 166.29 89.1473C175.726 89.07 185.161 89.0061 194.596 88.9555L194.478 88.8925C199.316 95.9979 204.144 103.11 208.964 110.227L208.959 110.215C211.177 119.123 213.384 128.034 215.578 136.948C215.578 136.948 215.578 136.948 215.578 136.948C215.506 142.678 215.033 148.486 213.964 154.134C213.413 156.955 212.714 159.765 211.593 162.377C210.515 164.875 208.711 167.724 206.116 167.614C201.571 167.485 197.078 167.348 192.539 167.215C192.539 167.215 192.539 167.215 192.539 167.215C191.453 167.184 190.381 167.153 189.276 167.16C188.721 167.166 188.171 167.177 187.576 167.23C187.279 167.257 186.975 167.292 186.632 167.367C186.451 167.409 186.27 167.453 186.024 167.56C185.902 167.617 185.76 167.681 185.558 167.845C185.461 167.928 185.332 168.044 185.2 168.265C185.133 168.381 185.064 168.527 185.023 168.728C185.002 168.832 184.99 168.945 184.995 169.076C184.997 169.129 185.006 169.223 185.02 169.293C185.026 169.324 185.038 169.377 185.054 169.428C185.061 169.453 185.069 169.477 185.077 169.5C185.083 169.518 185.119 169.608 185.141 169.651L185.053 168.649C181.895 176.811 178.074 184.778 175.606 193.143C175.606 193.143 175.606 193.143 175.606 193.143L178.963 190.633C166.483 190.633 154.004 190.675 141.524 190.759C134.942 190.803 128.359 190.859 121.777 190.926L123.795 196.626C126.651 194.266 129.505 191.902 132.356 189.536L134.201 188.079L133.221 185.859C130.264 179.586 127.295 173.318 124.315 167.056L123.856 166.354C121.483 163.786 119.108 161.22 116.73 158.656L117.396 160.398C117.215 150.25 117.007 140.102 116.771 129.954L116.418 131.084C121.454 123.42 126.471 115.743 131.47 108.054L131.342 108.211C133.001 106.373 134.659 104.535 136.316 102.696C140.374 98.1901 144.425 93.6776 148.469 89.1583C148.228 88.928 147.987 88.6977 147.746 88.4674C143.415 92.7123 139.091 96.9641 134.774 101.223C133.012 102.961 131.251 104.701 129.491 106.442L129.363 106.598C123.939 113.994 118.534 121.403 113.148 128.824L112.782 129.38L112.795 129.954C112.559 140.102 112.351 150.25 112.17 160.398L112.189 161.442L112.836 162.14C115.121 164.787 117.408 167.432 119.698 170.075L119.239 169.373C122.018 175.727 124.809 182.076 127.612 188.42L128.477 184.743C125.568 187.04 122.662 189.339 119.759 191.64L112.735 197.39L121.777 197.341C128.359 197.408 134.942 197.464 141.524 197.508C154.004 197.592 166.483 197.633 178.963 197.633H181.579L182.32 195.124C182.32 195.124 182.32 195.124 182.32 195.124C184.788 186.759 185.904 177.994 187.683 169.426L187.816 168.788L187.595 168.424C187.654 168.547 187.665 168.594 187.678 168.636C187.693 168.683 187.703 168.731 187.709 168.759C187.721 168.822 187.73 168.905 187.731 168.951C187.735 169.066 187.725 169.162 187.707 169.249C187.672 169.418 187.616 169.534 187.566 169.62C187.466 169.785 187.385 169.85 187.336 169.891C187.235 169.969 187.211 169.965 187.205 169.964C187.198 169.954 187.267 169.915 187.347 169.883C187.508 169.815 187.73 169.751 187.958 169.697C188.421 169.587 188.917 169.508 189.425 169.443C190.441 169.314 191.482 169.247 192.539 169.215C192.539 169.215 192.539 169.215 192.539 169.215C197.078 169.082 201.571 168.944 206.116 168.815C209.695 168.625 211.262 165.22 212.276 162.653C213.295 159.905 213.866 157.051 214.313 154.194C215.17 148.484 215.505 142.679 215.578 136.948C215.578 136.948 215.578 136.948 215.578 136.948C213.384 128.034 211.202 119.117 209.032 110.197L209.027 110.185C204.247 103.04 199.476 95.8899 194.715 88.7331L194.671 88.6697L194.596 88.6701C185.161 88.6196 175.726 88.5557 166.29 88.4784C160.229 88.4287 154.168 88.3736 148.107 88.3128ZM148.107 89.3128V88.3128L147.882 88.3151L147.746 88.4674L148.469 89.1583L148.107 89.3128Z" fill="black"/>
</g>
<path id="Vector 28" d="M176.083 163.689L163.741 162.044L152.221 157.107V162.044L150.987 169.037L157.158 173.563V193.722L177.317 172.329L184.722 171.095L186.779 166.98L176.083 163.689Z" fill="black" stroke="black"/>
<path id="Vector 24" d="M104.086 201.95L121.777 194.956L180.197 187.139L192.128 192.076L223.806 201.95L236.971 206.064L260.422 201.95H286.34L312.67 194.956L349.286 162.455L366.976 187.139L359.982 194.956L323.367 221.698L297.86 237.331L273.175 255.022H236.971V292.46V332.778L229.155 387.907L215.167 394.078H192.539H138.645L99.1494 387.907L100.922 378.721L77.3448 374.648V356.546L71.5851 322.081V300.277V279.706V255.022L77.3448 230.337L87.2186 215.527L104.086 201.95Z" fill="#5576A5"/>
<path id="Vector 25" d="M129.182 271.89L124.657 244.325L119.72 274.358V301.511L111.492 358.697L124.657 313.853L129.182 271.89Z" fill="black" stroke="black"/>
<path id="Vector 26" d="M239.028 240.622L229.977 235.274L239.028 255.022L245.611 247.205L239.028 240.622Z" fill="black" stroke="black"/>
<path id="Vector 27" d="M193.362 99.9208C197.844 94.2938 207.801 97.8826 209.407 90.8699C211.071 83.6029 204.015 79.8944 197.887 75.6477C187.891 68.7196 178.956 74.2687 166.826 73.385C154.696 72.5013 147.62 68.4074 135.765 71.1223C119.007 74.9598 110.909 83.9613 100.795 97.8638C96.2693 104.085 93.595 107.79 91.3327 115.143C88.0255 125.892 92.078 132.72 91.3327 143.942C90.5481 155.754 89.0424 162.278 87.2186 173.974C85.8879 182.508 80.6362 187.636 83.5159 195.779C86.2834 203.604 91.6281 206.668 99.1495 210.178C104.376 212.618 107.842 212.632 113.549 213.47C124.04 215.009 130.449 216.176 140.702 213.47C144.338 212.51 146.584 212.205 149.753 210.178C158.657 204.484 157.791 195.192 158.804 184.671C159.204 180.513 158.804 173.974 158.804 173.974C158.804 173.974 160.368 173.053 161.272 172.329C162.96 170.978 164.975 168.215 164.975 168.215C164.975 168.215 170.464 160.428 171.557 154.638C172.332 150.533 171.353 148.114 171.557 143.942C171.946 135.999 169.772 130.223 174.437 123.783C178.123 118.693 184.104 120.063 188.014 115.143C191.933 110.21 189.436 104.849 193.362 99.9208Z" fill="url(#paint1_linear_185_272)" stroke="black"/>
<path id="Vector 29" d="M205.704 112.675C205.805 112.676 205.904 112.676 206.001 112.674C207.246 112.646 208.186 112.314 208.822 111.678C208.822 111.678 208.822 111.678 208.822 111.678L208.236 112.041C208.58 111.926 208.851 111.588 209.048 111.029C209.086 110.921 209.121 110.805 209.154 110.68C209.048 110.364 208.943 110.048 208.837 109.732C208.737 109.652 208.639 109.58 208.544 109.516C208.051 109.187 207.632 109.08 207.287 109.194L206.701 109.557C206.701 109.557 206.701 109.557 206.701 109.557C206.065 110.193 205.733 111.133 205.705 112.378C205.703 112.475 205.703 112.574 205.704 112.675Z" fill="black"/>
<path id="Vector 30" d="M205.293 114.32C204.954 116.218 204.954 117.359 205.293 119.257C205.623 121.108 205.98 122.165 206.938 123.783C207.925 125.447 208.944 126.039 210.23 127.485C211.515 128.931 212.501 129.544 213.521 131.188C214.78 133.218 216.401 134.705 215.578 136.948C215.146 138.126 214.654 138.877 213.521 139.416C212.36 139.968 211.484 139.137 210.23 139.416C208.827 139.728 208.302 141.516 206.938 141.062L205.293 139.416C205.293 139.416 204.984 137.861 205.293 136.948C205.622 135.973 206.06 135.426 206.938 134.891" stroke="black"/>
<g id="Vector 31">
<path d="M203.236 149.29C205.365 147.815 206.878 147.491 208.996 145.999C209.652 145.536 209.985 145.227 210.641 144.764C211.88 143.891 213.932 142.707 213.932 142.707C213.932 142.707 214.016 143.965 213.932 144.764C213.738 146.635 213.043 147.568 212.287 149.29C211.709 150.606 211.472 151.409 210.641 152.581C209.722 153.879 209.217 154.821 207.761 155.461C206.144 156.173 205.003 155.461 203.236 155.461H199.122C199.122 155.461 198.781 153.653 199.122 152.581C199.746 150.621 201.545 150.462 203.236 149.29Z" fill="url(#paint2_linear_185_272)"/>
<path d="M209.284 146.407C209.092 146.135 208.899 145.862 208.707 145.59C208.09 145.961 207.456 146.282 206.798 146.574C205.493 147.145 204.034 147.696 202.712 148.533C202.036 148.949 201.25 149.215 200.337 149.672C199.433 150.085 198.35 151.069 197.998 152.224C197.594 153.604 197.726 154.567 197.857 155.7L198.013 156.711L199.122 156.748C200.492 156.793 201.865 156.832 203.236 156.863C203.841 156.874 204.454 157.021 205.327 157.157C206.18 157.307 207.415 157.252 208.356 156.814C210.078 156.168 211.189 154.422 211.865 153.448C211.865 153.448 211.865 153.448 211.865 153.448C212.712 152.306 213.197 150.905 213.615 149.873C214.134 148.561 215.125 146.801 215.159 144.892C215.192 144.046 215.112 143.376 215.019 142.635L215.027 140.967L213.388 141.764C212.343 142.486 211.334 143.223 210.345 144.056C210.303 144.092 210.26 144.129 210.219 144.165C209.663 144.642 209.2 145.147 208.707 145.59C208.899 145.862 209.092 146.135 209.284 146.407C209.918 146.066 210.492 145.672 211.064 145.364C211.108 145.34 211.153 145.315 211.199 145.29C212.259 144.722 213.382 144.179 214.477 143.651L212.845 142.779C212.828 143.408 212.799 144.116 212.706 144.637C212.505 146.002 211.732 147.077 210.959 148.707C210.393 149.925 210.043 150.867 209.417 151.714C209.417 151.714 209.417 151.714 209.417 151.714C208.539 152.978 208.088 153.721 207.166 154.108C206.707 154.314 206.357 154.36 205.7 154.288C205.058 154.216 204.167 154.037 203.236 154.06C201.865 154.091 200.492 154.129 199.122 154.174L200.386 155.223C200.219 154.457 200.128 153.434 200.246 152.939C200.381 151.764 202.069 151.288 203.76 150.047C204.851 149.174 206.1 148.518 207.408 147.729C208.058 147.331 208.692 146.891 209.284 146.407ZM208.707 145.59L209.284 146.407L208.707 145.59V145.59Z" fill="black"/>
</g>
<path id="Vector 32" d="M201.59 139.416C201.59 139.416 202.098 142.006 201.59 143.53C201.082 145.054 199.539 145.27 199.122 146.821C198.829 147.907 198.201 148.621 197.887 149.701C197.412 151.342 196.757 151.364 196.242 152.993C195.854 154.218 195.539 155.208 196.242 156.284C196.681 156.956 197.887 157.518 197.887 157.518" stroke="black"/>
<path id="Ellipse 9" d="M189.441 123.295C191.316 122.674 193.131 122.542 194.539 122.808C195.967 123.078 196.858 123.726 197.132 124.554C197.406 125.382 197.078 126.433 196.095 127.502C195.124 128.556 193.59 129.535 191.714 130.157C189.838 130.778 188.023 130.909 186.615 130.643C185.188 130.373 184.297 129.726 184.023 128.898C183.748 128.07 184.077 127.018 185.06 125.95C186.03 124.895 187.565 123.917 189.441 123.295Z" fill="white" stroke="black"/>
<path id="Ellipse 10" d="M211.875 117.611C211.875 117.611 212.954 121.779 211.875 122.137C207.993 123.423 206.479 122.161 205.764 120.004C205.049 117.847 206.347 115.607 210.23 114.32C210.23 114.32 211.161 115.455 211.875 117.611Z" fill="#FFFBFB"/>
<ellipse id="Ellipse 11" cx="211.202" cy="118.867" rx="0.411408" ry="3.29127" transform="rotate(-9.92232 211.202 118.867)" fill="#D9D9D9"/>
<ellipse id="Ellipse 12" cx="210.843" cy="117.643" rx="0.259305" ry="2.07444" transform="rotate(-9.92232 210.843 117.643)" fill="black"/>
<path id="Vector 33" d="M210.23 114.32C210.23 114.32 206.123 115.778 205.704 118.023C205.496 119.14 205.57 119.906 206.116 120.903C206.552 121.7 206.953 122.133 207.761 122.548C209.197 123.286 211.875 122.137 211.875 122.137" stroke="black"/>
<ellipse id="Ellipse 13" cx="193.773" cy="125.84" rx="2.46845" ry="2.87986" fill="#D9D9D9"/>
<ellipse id="Ellipse 14" cx="194.185" cy="125.428" rx="1.23423" ry="1.64563" fill="black"/>
<g id="Vector 34" filter="url(#filter0_f_185_272)">
<path d="M200.356 156.607C200.356 156.94 200.356 157.273 200.356 157.607C200.519 157.651 200.683 157.693 200.846 157.735C201.78 157.97 202.714 158.158 203.647 158.298C205.019 158.504 206.39 158.607 207.761 158.607H208.177L208.533 158.393C208.533 158.393 208.533 158.393 208.533 158.393C209.079 158.066 209.516 157.557 209.844 156.868C209.928 156.691 210.006 156.502 210.076 156.301C209.904 156.015 209.733 155.729 209.561 155.444C209.351 155.411 209.148 155.39 208.952 155.381C208.189 155.347 207.535 155.493 206.99 155.82C206.99 155.82 206.99 155.82 206.99 155.82L207.761 155.607C206.39 155.607 205.019 155.709 203.647 155.915C202.714 156.055 201.78 156.243 200.846 156.479C200.683 156.52 200.519 156.562 200.356 156.607Z" fill="black"/>
</g>
<path id="Vector 35" d="M199.944 115.966C199.944 115.966 199.944 115.966 199.944 115.966C199.618 115.614 199.269 115.296 198.912 115.01C198.02 114.319 197.131 113.775 195.874 113.597C194.751 113.335 193.178 113.59 192.214 114.017C192.211 114.018 192.207 114.02 192.203 114.021C191.534 114.294 190.828 114.694 190.308 115.052C189.782 115.411 189.44 115.676 189.075 115.927C188.607 116.272 188.041 116.562 187.109 117.058C186.187 117.534 184.991 118.429 184.343 119.447C183.89 120.094 183.554 120.906 183.415 121.524C183.268 122.148 183.233 122.581 183.12 123.044C182.952 123.636 182.756 124.26 182.57 124.886C182.464 125.243 182.357 125.606 182.255 125.965C182.529 126.156 182.802 126.346 183.076 126.537C183.381 126.31 183.682 126.077 183.978 125.84C184.499 125.423 185.004 124.998 185.502 124.521C185.982 124.041 186.388 123.454 186.707 123.072C187.032 122.683 187.271 122.532 187.571 122.358C188.074 122.067 188.395 122.033 189.083 121.872C189.759 121.721 190.845 121.459 191.889 120.941C192.49 120.654 193.067 120.307 193.473 120.075C193.884 119.841 194.15 119.711 194.504 119.563C194.506 119.562 194.508 119.561 194.51 119.56C195.387 119.196 195.746 118.874 196.609 118.335C197.09 117.905 197.968 117.393 198.829 116.776C199.187 116.523 199.561 116.252 199.944 115.966Z" fill="black"/>
<path id="Vector 36" d="M241.908 421.137L229.566 389.87L227.92 385.344L214.755 393.161H190.071H163.741H144.816L99.5608 387.401L91.3327 417.023L96.2696 447.467L102.441 477.5L91.3327 502.184L82.2817 541.268H124.657L144.816 513.292L160.449 480.38L172.38 451.17V442.942L185.134 456.518L200.767 469.272L218.458 493.956L233.68 510.001L229.566 541.268H267.827L271.118 505.887L267.827 483.671L254.662 447.467L241.908 421.137Z" fill="url(#paint3_linear_185_272)" stroke="black"/>
<path id="Vector 37" d="M352.166 154.248V166.879L363.721 190.337C363.721 190.337 371.755 184.813 373.97 182.931C378.986 178.669 382.325 178.291 387.553 174.292C391.684 171.131 392.048 171.683 396.186 168.532C400.08 165.568 400.564 163.132 402.357 158.579C403.803 154.907 402.357 152.42 402.357 148.474C402.357 144.951 403.452 142.801 402.357 139.452C401.41 136.554 400.072 135.216 398.024 132.956C396.278 131.03 395.567 128.714 392.969 128.626C390.262 128.534 387.553 132.956 387.553 132.956L392.969 158.579L363.721 163.992L361.193 151.722L358.665 143.783C358.665 143.783 354.322 142.444 352.166 143.783C348.694 145.939 352.166 150.161 352.166 154.248Z" fill="#FFDBAC" stroke="black"/>
<path id="Vector 38" d="M79.8404 382.876C80.5411 379.411 79.8404 373.825 79.8404 373.825L100.411 378.762C100.411 378.762 101.062 388.786 101.234 395.218C101.431 402.606 113.96 404.681 109.435 409.617C103.181 416.44 88.0414 391.516 99.1494 421.137C100.769 425.455 86.3227 427.423 83.1045 425.251C79.9956 423.153 74.5173 410.918 72.8464 407.56C70.6993 403.245 71.7033 399.901 72.8464 395.218C74.1604 389.836 78.742 388.306 79.8404 382.876Z" fill="#FFDBAC" stroke="black"/>
<g data-testid="flies">
<path data-testid="fly-39" d="M235.436 97.3641C234.999 97.6467 234.961 98.0164 234.547 98.3282C234.342 98.4829 234.182 98.5136 233.986 98.6788C233.591 99.0128 233.485 99.3122 233.285 99.7744C233.032 100.356 232.683 100.779 232.957 101.352C233.17 101.796 233.509 101.95 233.986 102.141C234.658 102.409 235.14 102.273 235.857 102.141C236.659 101.992 237.161 101.859 237.775 101.352C238.155 101.037 238.325 100.805 238.57 100.388C238.994 99.6638 239.411 98.6788 239.411 98.6788C239.634 99.0522 239.306 99.3582 239.411 99.7744C239.555 100.338 239.825 100.612 240.242 101.034L240.253 101.045C240.838 101.638 241.263 102.148 242.124 102.141C242.843 102.134 245.551 102.257 245.959 101.703C246.268 101.282 245.343 100.634 245.304 100.125C245.258 99.5217 243.897 99.0494 243.387 98.6788C242.98 98.3835 242.558 98.5874 242.124 98.3282C241.597 98.0134 241.189 96.9697 241.189 96.9697C241.189 96.9697 241.748 96.7613 242.124 96.663C242.637 96.5288 243.101 96.9088 243.387 96.4877C243.651 96.0977 243.557 95.7382 243.387 95.3044C243.265 94.9925 243.142 94.8187 242.872 94.6033C242.624 94.4048 242.438 94.3359 242.124 94.2527L242.114 94.25C241.662 94.1303 241.321 94.0401 240.908 94.2527C240.463 94.4816 240.966 95.0467 240.674 95.4359C240.487 95.6853 240.44 95.8944 240.16 96.0494C239.767 96.2672 238.997 96.0679 238.57 95.918C237.923 95.6912 237.893 93.2546 237.354 92.8504C236.805 92.4388 236.794 90.2369 236.091 90.221C235.559 90.2089 234.067 89.7234 233.706 90.0895C233.235 90.5672 233.119 92.968 233.425 93.5515C233.801 94.2678 236.939 96.338 236.418 96.9697C236.163 97.2791 235.78 97.142 235.436 97.3641Z" fill="black" stroke="black"/>
<path data-testid="fly-42" d="M193.472 42.2354C193.035 42.5179 192.998 42.8877 192.584 43.1995C192.379 43.3542 192.218 43.3849 192.023 43.5501C191.627 43.884 191.522 44.1835 191.321 44.6457C191.069 45.227 190.719 45.6507 190.994 46.2233C191.206 46.6671 191.545 46.8212 192.023 47.0121C192.695 47.2807 193.177 47.1448 193.893 47.0121C194.696 46.8636 195.198 46.7302 195.811 46.2233C196.192 45.9085 196.362 45.6762 196.606 45.2592C197.03 44.5351 197.448 43.5501 197.448 43.5501C197.671 43.9235 197.342 44.2294 197.448 44.6457C197.591 45.209 197.862 45.483 198.279 45.9055L198.29 45.9165C198.875 46.5091 199.299 47.0197 200.16 47.0121C200.879 47.0057 203.588 47.1285 203.995 46.5739C204.305 46.1535 203.379 45.5055 203.341 44.9962C203.295 44.3929 201.933 43.9207 201.423 43.5501C201.017 43.2548 200.594 43.4587 200.16 43.1995C199.634 42.8847 199.225 41.841 199.225 41.841C199.225 41.841 199.784 41.6326 200.16 41.5342C200.673 41.4001 201.138 41.78 201.423 41.3589C201.688 40.969 201.593 40.6095 201.423 40.1757C201.301 39.8638 201.179 39.69 200.909 39.4745C200.66 39.276 200.475 39.2072 200.16 39.124L200.15 39.1213C199.698 39.0016 199.358 38.9113 198.944 39.124C198.5 39.3529 199.002 39.918 198.711 40.3072C198.524 40.5566 198.476 40.7656 198.196 40.9207C197.803 41.1384 197.034 40.9392 196.606 40.7892C195.959 40.5625 195.929 38.1259 195.39 37.7216C194.841 37.3101 194.83 35.1082 194.127 35.0923C193.596 35.0802 192.103 34.5947 191.742 34.9608C191.271 35.4385 191.155 37.8393 191.461 38.4228C191.838 39.1391 194.976 41.2093 194.455 41.841C194.199 42.1504 193.816 42.0133 193.472 42.2354Z" fill="black" stroke="black"/>
<path data-testid="fly-49" d="M214.866 65.2743C214.429 65.5568 214.391 65.9266 213.977 66.2384C213.772 66.3931 213.612 66.4238 213.416 66.589C213.02 66.9229 212.915 67.2224 212.714 67.6845C212.462 68.2659 212.113 68.6896 212.387 69.2622C212.6 69.7059 212.938 69.8601 213.416 70.051C214.088 70.3196 214.57 70.1836 215.287 70.051C216.089 69.9025 216.591 69.7691 217.204 69.2622C217.585 68.9474 217.755 68.7151 217.999 68.2981C218.424 67.574 218.841 66.589 218.841 66.589C219.064 66.9624 218.735 67.2683 218.841 67.6845C218.984 68.2479 219.255 68.5219 219.672 68.9443L219.683 68.9554C220.268 69.5479 220.692 70.0586 221.554 70.051C222.272 70.0446 224.981 70.1674 225.389 69.6127C225.698 69.1923 224.773 68.5444 224.734 68.0351C224.688 67.4318 223.327 66.9596 222.816 66.589C222.41 66.2937 221.987 66.4975 221.554 66.2384C221.027 65.9236 220.618 64.8799 220.618 64.8799C220.618 64.8799 221.178 64.6715 221.554 64.5731C222.067 64.439 222.531 64.8189 222.816 64.3978C223.081 64.0078 222.986 63.6484 222.816 63.2146C222.694 62.9027 222.572 62.7289 222.302 62.5134C222.053 62.3149 221.868 62.2461 221.554 62.1628L221.543 62.1602C221.092 62.0405 220.751 61.9502 220.338 62.1628C219.893 62.3918 220.395 62.9569 220.104 63.3461C219.917 63.5954 219.869 63.8045 219.589 63.9596C219.196 64.1773 218.427 63.9781 217.999 63.8281C217.353 63.6014 217.322 61.1648 216.783 60.7605C216.234 60.349 216.223 58.1471 215.52 58.1311C214.989 58.1191 213.496 57.6336 213.135 57.9997C212.664 58.4774 212.548 60.8782 212.855 61.4617C213.231 62.1779 216.369 64.2482 215.848 64.8799C215.593 65.1893 215.209 65.0522 214.866 65.2743Z" fill="black" stroke="black"/>
<path data-testid="fly-48" d="M242.842 48.8179C242.405 49.1005 242.367 49.4702 241.953 49.782C241.748 49.9367 241.587 49.9674 241.392 50.1326C240.996 50.4666 240.891 50.766 240.69 51.2282C240.438 51.8096 240.088 52.2332 240.363 52.8058C240.575 53.2496 240.914 53.4038 241.392 53.5946C242.064 53.8632 242.546 53.7273 243.262 53.5946C244.065 53.4461 244.567 53.3127 245.18 52.8058C245.561 52.491 245.731 52.2587 245.975 51.8417C246.4 51.1176 246.817 50.1326 246.817 50.1326C247.04 50.506 246.711 50.812 246.817 51.2282C246.96 51.7915 247.231 52.0655 247.648 52.488L247.659 52.499C248.244 53.0916 248.668 53.6023 249.529 53.5946C250.248 53.5882 252.957 53.711 253.365 53.1564C253.674 52.736 252.748 52.088 252.71 51.5788C252.664 50.9755 251.302 50.5032 250.792 50.1326C250.386 49.8373 249.963 50.0412 249.529 49.782C249.003 49.4672 248.594 48.4235 248.594 48.4235C248.594 48.4235 249.153 48.2151 249.529 48.1167C250.042 47.9826 250.507 48.3626 250.792 47.9415C251.057 47.5515 250.962 47.192 250.792 46.7582C250.67 46.4463 250.548 46.2725 250.278 46.0571C250.029 45.8586 249.844 45.7897 249.529 45.7065L249.519 45.7038C249.067 45.5841 248.727 45.4938 248.314 45.7065C247.869 45.9354 248.371 46.5005 248.08 46.8897C247.893 47.1391 247.845 47.3482 247.565 47.5032C247.172 47.721 246.403 47.5217 245.975 47.3718C245.328 47.145 245.298 44.7084 244.759 44.3042C244.21 43.8926 244.199 41.6907 243.496 41.6748C242.965 41.6627 241.472 41.1772 241.111 41.5433C240.64 42.021 240.524 44.4218 240.83 45.0053C241.207 45.7216 244.345 47.7918 243.824 48.4235C243.569 48.7329 243.185 48.5958 242.842 48.8179Z" fill="black" stroke="black"/>
<path data-testid="fly-47" d="M176.01 53.5207C175.515 53.6831 175.385 54.0311 174.905 54.2277C174.668 54.3252 174.505 54.3142 174.274 54.4243C173.806 54.6469 173.628 54.9098 173.317 55.3059C172.925 55.8042 172.48 56.1253 172.6 56.7487C172.693 57.232 172.981 57.4671 173.395 57.7729C173.977 58.2033 174.477 58.1942 175.204 58.2478C176.018 58.3078 176.537 58.3062 177.259 57.9716C177.707 57.7638 177.931 57.5822 178.273 57.2409C178.867 56.6483 179.521 55.8015 179.521 55.8015C179.642 56.2193 179.246 56.4317 179.243 56.8612C179.238 57.4424 179.431 57.7761 179.727 58.2906L179.735 58.3041C180.15 59.0258 180.431 59.6274 181.266 59.8387C181.963 60.015 184.551 60.8213 185.087 60.3884C185.492 60.0602 184.762 59.1986 184.854 58.6962C184.963 58.101 183.766 57.2986 183.366 56.8106C183.048 56.4218 182.587 56.5117 182.234 56.151C181.804 55.7128 181.674 54.5995 181.674 54.5995C181.674 54.5995 182.268 54.5399 182.657 54.5403C183.187 54.5407 183.539 55.0261 183.922 54.6913C184.277 54.3812 184.277 54.0095 184.223 53.5468C184.184 53.2141 184.11 53.015 183.903 52.738C183.713 52.4829 183.551 52.3693 183.268 52.209L183.259 52.2038C182.853 51.9733 182.546 51.7995 182.092 51.9003C181.604 52.0088 181.947 52.683 181.566 52.9854C181.322 53.1791 181.222 53.3693 180.912 53.4482C180.477 53.559 179.783 53.171 179.408 52.9174C178.84 52.5339 179.429 50.1694 179.01 49.6416C178.584 49.1042 179.132 46.9715 178.456 46.7778C177.945 46.6312 176.625 45.7826 176.183 46.0451C175.606 46.3877 174.884 48.6803 175.032 49.3225C175.214 50.1108 177.724 52.9098 177.06 53.3885C176.734 53.623 176.398 53.3931 176.01 53.5207Z" fill="black" stroke="black"/>
<path data-testid="fly-43" d="M67.5815 71.0339C67.1445 71.3165 67.1066 71.6862 66.6929 71.9981C66.4876 72.1528 66.3273 72.1834 66.1316 72.3486C65.736 72.6826 65.6307 72.982 65.4301 73.4442C65.1777 74.0256 64.8283 74.4493 65.1027 75.0218C65.3154 75.4656 65.6541 75.6198 66.1316 75.8106C66.8036 76.0792 67.2857 75.9433 68.0024 75.8106C68.8047 75.6621 69.3066 75.5288 69.9199 75.0218C70.3007 74.7071 70.4705 74.4748 70.715 74.0577C71.1394 73.3337 71.5568 72.3486 71.5568 72.3486C71.7797 72.7221 71.4511 73.028 71.5568 73.4442C71.7 74.0076 71.9706 74.2816 72.3878 74.704L72.3987 74.7151C72.9838 75.3076 73.4079 75.8183 74.2694 75.8106C74.9882 75.8043 77.6966 75.9271 78.1045 75.3724C78.4137 74.952 77.4884 74.3041 77.4497 73.7948C77.4039 73.1915 76.0423 72.7192 75.5322 72.3486C75.1257 72.0533 74.7031 72.2572 74.2694 71.9981C73.7427 71.6833 73.3341 70.6395 73.3341 70.6395C73.3341 70.6395 73.8934 70.4311 74.2694 70.3328C74.7823 70.1986 75.2466 70.5786 75.5322 70.1575C75.7967 69.7675 75.7021 69.408 75.5322 68.9743C75.41 68.6623 75.2877 68.4886 75.0177 68.2731C74.769 68.0746 74.5838 68.0058 74.2694 67.9225L74.2593 67.9198C73.8074 67.8001 73.4666 67.7099 73.0534 67.9225C72.6087 68.1515 73.1112 68.7166 72.8196 69.1057C72.6327 69.3551 72.5851 69.5642 72.3051 69.7193C71.9121 69.937 71.1426 69.7378 70.715 69.5878C70.0684 69.361 70.038 66.9244 69.499 66.5202C68.9502 66.1086 68.9389 63.9067 68.2362 63.8908C67.7045 63.8788 66.2119 63.3932 65.851 63.7593C65.3801 64.2371 65.2639 66.6379 65.5704 67.2214C65.9467 67.9376 69.0846 70.0079 68.5636 70.6395C68.3085 70.9489 67.9249 70.8119 67.5815 71.0339Z" fill="black" stroke="black"/>
<path data-testid="fly-56" d="M38.7829 117.112C38.3459 117.394 38.308 117.764 37.8943 118.076C37.689 118.23 37.5287 118.261 37.333 118.426C36.9374 118.76 36.8321 119.06 36.6315 119.522C36.3791 120.103 36.0297 120.527 36.3041 121.1C36.5168 121.543 36.8555 121.698 37.333 121.888C38.005 122.157 38.4871 122.021 39.2038 121.888C40.0061 121.74 40.508 121.606 41.1213 121.1C41.5021 120.785 41.6719 120.552 41.9164 120.135C42.3408 119.411 42.7582 118.426 42.7582 118.426C42.9811 118.8 42.6525 119.106 42.7582 119.522C42.9014 120.085 43.172 120.359 43.5892 120.782L43.6001 120.793C44.1852 121.385 44.6093 121.896 45.4708 121.888C46.1896 121.882 48.898 122.005 49.3059 121.45C49.6151 121.03 48.6898 120.382 48.6511 119.873C48.6053 119.269 47.2437 118.797 46.7336 118.426C46.3271 118.131 45.9045 118.335 45.4708 118.076C44.9441 117.761 44.5355 116.717 44.5355 116.717C44.5355 116.717 45.0948 116.509 45.4708 116.411C45.9837 116.276 46.448 116.656 46.7336 116.235C46.9981 115.845 46.9035 115.486 46.7336 115.052C46.6114 114.74 46.4891 114.566 46.2191 114.351C45.9704 114.152 45.7852 114.084 45.4708 114L45.4607 113.998C45.0088 113.878 44.668 113.788 44.2548 114C43.8101 114.229 44.3126 114.794 44.021 115.183C43.8341 115.433 43.7865 115.642 43.5065 115.797C43.1135 116.015 42.344 115.815 41.9164 115.666C41.2698 115.439 41.2394 113.002 40.7004 112.598C40.1516 112.186 40.1403 109.984 39.4376 109.969C38.9059 109.956 37.4133 109.471 37.0524 109.837C36.5815 110.315 36.4653 112.716 36.7718 113.299C37.1481 114.015 40.286 116.086 39.765 116.717C39.5099 117.027 39.1263 116.89 38.7829 117.112Z" fill="black" stroke="black"/>
<path data-testid="fly-62" d="M225.562 184.583C225.125 184.865 225.087 185.235 224.674 185.547C224.468 185.701 224.308 185.732 224.112 185.897C223.717 186.231 223.612 186.531 223.411 186.993C223.159 187.574 222.809 187.998 223.084 188.571C223.296 189.014 223.635 189.169 224.112 189.359C224.784 189.628 225.266 189.492 225.983 189.359C226.786 189.211 227.287 189.078 227.901 188.571C228.282 188.256 228.451 188.024 228.696 187.606C229.12 186.882 229.538 185.897 229.538 185.897C229.76 186.271 229.432 186.577 229.538 186.993C229.681 187.556 229.951 187.83 230.369 188.253L230.379 188.264C230.965 188.856 231.389 189.367 232.25 189.359C232.969 189.353 235.677 189.476 236.085 188.921C236.394 188.501 235.469 187.853 235.431 187.344C235.385 186.74 234.023 186.268 233.513 185.897C233.107 185.602 232.684 185.806 232.25 185.547C231.724 185.232 231.315 184.188 231.315 184.188C231.315 184.188 231.874 183.98 232.25 183.882C232.763 183.747 233.227 184.127 233.513 183.706C233.778 183.316 233.683 182.957 233.513 182.523C233.391 182.211 233.269 182.037 232.999 181.822C232.75 181.623 232.565 181.555 232.25 181.471L232.24 181.469C231.788 181.349 231.447 181.259 231.034 181.471C230.589 181.7 231.092 182.265 230.8 182.654C230.614 182.904 230.566 183.113 230.286 183.268C229.893 183.486 229.123 183.286 228.696 183.137C228.049 182.91 228.019 180.473 227.48 180.069C226.931 179.657 226.92 177.455 226.217 177.44C225.685 177.428 224.193 176.942 223.832 177.308C223.361 177.786 223.245 180.187 223.551 180.77C223.927 181.486 227.065 183.557 226.544 184.188C226.289 184.498 225.906 184.361 225.562 184.583Z" fill="black" stroke="black"/>
<path data-testid="fly-68" d="M116.95 150.847C116.514 151.13 116.476 151.499 116.062 151.811C115.857 151.966 115.696 151.997 115.501 152.162C115.105 152.496 115 152.795 114.799 153.257C114.547 153.839 114.197 154.263 114.472 154.835C114.684 155.279 115.023 155.433 115.501 155.624C116.173 155.892 116.655 155.757 117.371 155.624C118.174 155.475 118.676 155.342 119.289 154.835C119.67 154.52 119.84 154.288 120.084 153.871C120.508 153.147 120.926 152.162 120.926 152.162C121.149 152.535 120.82 152.841 120.926 153.257C121.069 153.821 121.34 154.095 121.757 154.517L121.768 154.528C122.353 155.121 122.777 155.632 123.638 155.624C124.357 155.618 127.066 155.74 127.474 155.186C127.783 154.765 126.857 154.117 126.819 153.608C126.773 153.005 125.411 152.532 124.901 152.162C124.495 151.867 124.072 152.07 123.638 151.811C123.112 151.497 122.703 150.453 122.703 150.453C122.703 150.453 123.262 150.244 123.638 150.146C124.151 150.012 124.616 150.392 124.901 149.971C125.166 149.581 125.071 149.221 124.901 148.788C124.779 148.476 124.657 148.302 124.387 148.086C124.138 147.888 123.953 147.819 123.638 147.736L123.628 147.733C123.176 147.613 122.836 147.523 122.422 147.736C121.978 147.965 122.48 148.53 122.189 148.919C122.002 149.168 121.954 149.377 121.674 149.533C121.281 149.75 120.512 149.551 120.084 149.401C119.437 149.174 119.407 146.738 118.868 146.333C118.319 145.922 118.308 143.72 117.605 143.704C117.074 143.692 115.581 143.207 115.22 143.573C114.749 144.05 114.633 146.451 114.939 147.035C115.316 147.751 118.454 149.821 117.933 150.453C117.677 150.762 117.294 150.625 116.95 150.847Z" fill="black" stroke="black"/>
<path data-testid="fly-74" d="M130.116 9.3227C129.679 9.60525 129.641 9.97499 129.227 10.2868C129.022 10.4415 128.861 10.4722 128.666 10.6374C128.27 10.9714 128.165 11.2708 127.964 11.733C127.712 12.3143 127.362 12.738 127.637 13.3106C127.85 13.7544 128.188 13.9085 128.666 14.0994C129.338 14.368 129.82 14.2321 130.537 14.0994C131.339 13.9509 131.841 13.8175 132.454 13.3106C132.835 12.9958 133.005 12.7635 133.249 12.3465C133.674 11.6224 134.091 10.6374 134.091 10.6374C134.314 11.0108 133.985 11.3168 134.091 11.733C134.234 12.2963 134.505 12.5703 134.922 12.9928L134.933 13.0038C135.518 13.5964 135.942 14.1071 136.804 14.0994C137.522 14.093 140.231 14.2158 140.639 13.6612C140.948 13.2408 140.023 12.5928 139.984 12.0835C139.938 11.4803 138.576 11.008 138.066 10.6374C137.66 10.3421 137.237 10.546 136.804 10.2868C136.277 9.97201 135.868 8.9283 135.868 8.9283C135.868 8.9283 136.427 8.7199 136.804 8.62154C137.316 8.48739 137.781 8.86734 138.066 8.44624C138.331 8.05627 138.236 7.69679 138.066 7.26303C137.944 6.95109 137.822 6.77733 137.552 6.56186C137.303 6.36335 137.118 6.29453 136.804 6.21128L136.793 6.20859C136.341 6.0889 136.001 5.99864 135.588 6.21128C135.143 6.44021 135.645 7.00533 135.354 7.3945C135.167 7.64387 135.119 7.85294 134.839 8.00802C134.446 8.22576 133.677 8.02651 133.249 7.87655C132.602 7.64979 132.572 5.2132 132.033 4.80894C131.484 4.3974 131.473 2.19549 130.77 2.17957C130.239 2.16752 128.746 1.68199 128.385 2.0481C127.914 2.52583 127.798 4.92663 128.105 5.51011C128.481 6.22636 131.619 8.29662 131.098 8.9283C130.843 9.23768 130.459 9.10063 130.116 9.3227Z" fill="black" stroke="black"/>
<path data-testid="fly-54" d="M138.344 97.3641C137.907 97.6467 137.869 98.0164 137.455 98.3282C137.25 98.4829 137.09 98.5136 136.894 98.6788C136.498 99.0128 136.393 99.3122 136.192 99.7744C135.94 100.356 135.591 100.779 135.865 101.352C136.078 101.796 136.416 101.95 136.894 102.141C137.566 102.409 138.048 102.273 138.765 102.141C139.567 101.992 140.069 101.859 140.682 101.352C141.063 101.037 141.233 100.805 141.477 100.388C141.902 99.6638 142.319 98.6788 142.319 98.6788C142.542 99.0522 142.213 99.3582 142.319 99.7744C142.462 100.338 142.733 100.612 143.15 101.034L143.161 101.045C143.746 101.638 144.17 102.148 145.032 102.141C145.751 102.134 148.459 102.257 148.867 101.703C149.176 101.282 148.251 100.634 148.212 100.125C148.166 99.5217 146.805 99.0494 146.294 98.6788C145.888 98.3835 145.465 98.5874 145.032 98.3282C144.505 98.0134 144.096 96.9697 144.096 96.9697C144.096 96.9697 144.656 96.7613 145.032 96.663C145.545 96.5288 146.009 96.9088 146.294 96.4877C146.559 96.0977 146.464 95.7382 146.294 95.3044C146.172 94.9925 146.05 94.8187 145.78 94.6033C145.531 94.4048 145.346 94.3359 145.032 94.2527L145.022 94.25C144.57 94.1303 144.229 94.0401 143.816 94.2527C143.371 94.4816 143.873 95.0467 143.582 95.4359C143.395 95.6853 143.347 95.8944 143.067 96.0494C142.674 96.2672 141.905 96.0679 141.477 95.918C140.831 95.6912 140.8 93.2546 140.261 92.8504C139.713 92.4388 139.701 90.2369 138.999 90.221C138.467 90.2089 136.974 89.7234 136.613 90.0895C136.142 90.5672 136.026 92.968 136.333 93.5515C136.709 94.2678 139.847 96.338 139.326 96.9697C139.071 97.2791 138.687 97.142 138.344 97.3641Z" fill="black" stroke="black"/>
<path data-testid="fly-53" d="M74.164 29.8931C73.727 30.1757 73.6891 30.5454 73.2754 30.8572C73.0702 31.0119 72.9099 31.0426 72.7142 31.2078C72.3186 31.5418 72.2133 31.8412 72.0126 32.3034C71.7603 32.8848 71.4109 33.3084 71.6853 33.881C71.8979 34.3248 72.2366 34.4789 72.7142 34.6698C73.3862 34.9384 73.8682 34.8025 74.5849 34.6698C75.3873 34.5213 75.8892 34.3879 76.5025 33.881C76.8833 33.5662 77.0531 33.3339 77.2975 32.9169C77.722 32.1928 78.1394 31.2078 78.1394 31.2078C78.3622 31.5812 78.0336 31.8872 78.1394 32.3034C78.2825 32.8667 78.5531 33.1407 78.9703 33.5632L78.9812 33.5742C79.5663 34.1668 79.9905 34.6775 80.852 34.6698C81.5708 34.6634 84.2792 34.7862 84.687 34.2316C84.9962 33.8112 84.071 33.1632 84.0323 32.654C83.9864 32.0507 82.6249 31.5784 82.1147 31.2078C81.7083 30.9125 81.2856 31.1164 80.852 30.8572C80.3253 30.5424 79.9166 29.4987 79.9166 29.4987C79.9166 29.4987 80.4759 29.2903 80.852 29.1919C81.3649 29.0578 81.8291 29.4377 82.1147 29.0166C82.3793 28.6267 82.2847 28.2672 82.1147 27.8334C81.9925 27.5215 81.8703 27.3477 81.6003 27.1323C81.3516 26.9338 81.1664 26.8649 80.852 26.7817L80.8418 26.779C80.3899 26.6593 80.0491 26.569 79.636 26.7817C79.1912 27.0106 79.6937 27.5757 79.4021 27.9649C79.2153 28.2143 79.1676 28.4233 78.8877 28.5784C78.4946 28.7962 77.7252 28.5969 77.2975 28.4469C76.6509 28.2202 76.6206 25.7836 76.0815 25.3793C75.5328 24.9678 75.5215 22.7659 74.8188 22.75C74.2871 22.7379 72.7944 22.2524 72.4336 22.6185C71.9627 23.0962 71.8464 25.497 72.153 26.0805C72.5292 26.7968 75.6671 28.867 75.1462 29.4987C74.891 29.8081 74.5075 29.671 74.164 29.8931Z" fill="black" stroke="black"/>
<path data-testid="fly-46" d="M79.9237 85.0219C79.4867 85.3044 79.4488 85.6741 79.0351 85.986C78.8299 86.1407 78.6696 86.1713 78.4739 86.3365C78.0783 86.6705 77.973 86.9699 77.7724 87.4321C77.52 88.0135 77.1706 88.4372 77.445 89.0097C77.6576 89.4535 77.9963 89.6077 78.4739 89.7986C79.1459 90.0671 79.6279 89.9312 80.3446 89.7986C81.147 89.6501 81.6489 89.5167 82.2622 89.0097C82.643 88.695 82.8128 88.4627 83.0572 88.0456C83.4817 87.3216 83.8991 86.3365 83.8991 86.3365C84.1219 86.71 83.7933 87.0159 83.8991 87.4321C84.0422 87.9955 84.3128 88.2695 84.73 88.6919L84.7409 88.703C85.326 89.2955 85.7502 89.8062 86.6117 89.7986C87.3305 89.7922 90.0389 89.915 90.4467 89.3603C90.7559 88.9399 89.8307 88.292 89.792 87.7827C89.7461 87.1794 88.3846 86.7071 87.8744 86.3365C87.468 86.0413 87.0453 86.2451 86.6117 85.986C86.085 85.6712 85.6763 84.6275 85.6763 84.6275C85.6763 84.6275 86.2356 84.4191 86.6117 84.3207C87.1246 84.1865 87.5888 84.5665 87.8744 84.1454C88.139 83.7554 88.0444 83.396 87.8744 82.9622C87.7522 82.6502 87.63 82.4765 87.36 82.261C87.1113 82.0625 86.9261 81.9937 86.6117 81.9104L86.6015 81.9077C86.1496 81.7881 85.8088 81.6978 85.3957 81.9104C84.9509 82.1394 85.4534 82.7045 85.1618 83.0937C84.975 83.343 84.9273 83.5521 84.6474 83.7072C84.2543 83.9249 83.4849 83.7257 83.0572 83.5757C82.4106 83.3489 82.3803 80.9124 81.8412 80.5081C81.2925 80.0966 81.2812 77.8946 80.5785 77.8787C80.0468 77.8667 78.5541 77.3812 78.1933 77.7473C77.7224 78.225 77.6061 80.6258 77.9127 81.2093C78.2889 81.9255 81.4268 83.9958 80.9059 84.6275C80.6507 84.9368 80.2672 84.7998 79.9237 85.0219Z" fill="black" stroke="black"/>
<path data-testid="fly-57" d="M51.1251 131.1C50.6881 131.382 50.6502 131.752 50.2365 132.064C50.0313 132.218 49.871 132.249 49.6753 132.414C49.2797 132.748 49.1744 133.048 48.9737 133.51C48.7214 134.091 48.372 134.515 48.6464 135.087C48.859 135.531 49.1977 135.685 49.6753 135.876C50.3473 136.145 50.8293 136.009 51.546 135.876C52.3484 135.728 52.8503 135.594 53.4636 135.087C53.8444 134.773 54.0142 134.54 54.2586 134.123C54.6831 133.399 55.1005 132.414 55.1005 132.414C55.3233 132.788 54.9947 133.094 55.1005 133.51C55.2436 134.073 55.5142 134.347 55.9314 134.77L55.9423 134.781C56.5274 135.373 56.9516 135.884 57.8131 135.876C58.5319 135.87 61.2403 135.993 61.6481 135.438C61.9573 135.018 61.0321 134.37 60.9934 133.86C60.9475 133.257 59.586 132.785 59.0758 132.414C58.6694 132.119 58.2467 132.323 57.8131 132.064C57.2864 131.749 56.8777 130.705 56.8777 130.705C56.8777 130.705 57.437 130.497 57.8131 130.398C58.326 130.264 58.7902 130.644 59.0758 130.223C59.3404 129.833 59.2458 129.474 59.0758 129.04C58.9536 128.728 58.8314 128.554 58.5614 128.339C58.3127 128.14 58.1275 128.071 57.8131 127.988L57.8029 127.985C57.351 127.866 57.0102 127.776 56.5971 127.988C56.1523 128.217 56.6548 128.782 56.3632 129.171C56.1764 129.421 56.1287 129.63 55.8488 129.785C55.4557 130.003 54.6863 129.803 54.2586 129.653C53.612 129.427 53.5817 126.99 53.0426 126.586C52.4939 126.174 52.4826 123.972 51.7799 123.956C51.2482 123.944 49.7555 123.459 49.3947 123.825C48.9238 124.303 48.8075 126.704 49.1141 127.287C49.4903 128.003 52.6282 130.074 52.1073 130.705C51.8521 131.015 51.4686 130.878 51.1251 131.1Z" fill="black" stroke="black"/>
<path data-testid="fly-63" d="M237.905 198.571C237.468 198.853 237.43 199.223 237.016 199.535C236.811 199.689 236.65 199.72 236.455 199.885C236.059 200.219 235.954 200.519 235.753 200.981C235.501 201.562 235.151 201.986 235.426 202.558C235.638 203.002 235.977 203.156 236.455 203.347C237.127 203.616 237.609 203.48 238.325 203.347C239.128 203.199 239.63 203.065 240.243 202.558C240.624 202.244 240.794 202.011 241.038 201.594C241.463 200.87 241.88 199.885 241.88 199.885C242.103 200.259 241.774 200.565 241.88 200.981C242.023 201.544 242.294 201.818 242.711 202.241L242.722 202.252C243.307 202.844 243.731 203.355 244.593 203.347C245.311 203.341 248.02 203.464 248.428 202.909C248.737 202.489 247.812 201.841 247.773 201.331C247.727 200.728 246.365 200.256 245.855 199.885C245.449 199.59 245.026 199.794 244.593 199.535C244.066 199.22 243.657 198.176 243.657 198.176C243.657 198.176 244.216 197.968 244.593 197.869C245.105 197.735 245.57 198.115 245.855 197.694C246.12 197.304 246.025 196.945 245.855 196.511C245.733 196.199 245.611 196.025 245.341 195.81C245.092 195.611 244.907 195.542 244.593 195.459L244.582 195.456C244.13 195.337 243.79 195.247 243.377 195.459C242.932 195.688 243.434 196.253 243.143 196.642C242.956 196.892 242.908 197.101 242.628 197.256C242.235 197.474 241.466 197.274 241.038 197.124C240.391 196.898 240.361 194.461 239.822 194.057C239.273 193.645 239.262 191.443 238.559 191.427C238.028 191.415 236.535 190.93 236.174 191.296C235.703 191.774 235.587 194.175 235.894 194.758C236.27 195.474 239.408 197.545 238.887 198.176C238.632 198.486 238.248 198.349 237.905 198.571Z" fill="black" stroke="black"/>
<path data-testid="fly-69" d="M129.293 164.835C128.856 165.118 128.818 165.487 128.404 165.799C128.199 165.954 128.039 165.985 127.843 166.15C127.447 166.484 127.342 166.783 127.141 167.245C126.889 167.827 126.54 168.25 126.814 168.823C127.027 169.267 127.365 169.421 127.843 169.612C128.515 169.88 128.997 169.744 129.714 169.612C130.516 169.463 131.018 169.33 131.631 168.823C132.012 168.508 132.182 168.276 132.426 167.859C132.851 167.135 133.268 166.15 133.268 166.15C133.491 166.523 133.162 166.829 133.268 167.245C133.411 167.809 133.682 168.083 134.099 168.505L134.11 168.516C134.695 169.109 135.119 169.619 135.981 169.612C136.699 169.605 139.408 169.728 139.816 169.174C140.125 168.753 139.2 168.105 139.161 167.596C139.115 166.993 137.754 166.52 137.243 166.15C136.837 165.854 136.414 166.058 135.981 165.799C135.454 165.484 135.045 164.441 135.045 164.441C135.045 164.441 135.605 164.232 135.981 164.134C136.494 164 136.958 164.38 137.243 163.959C137.508 163.569 137.413 163.209 137.243 162.775C137.121 162.463 136.999 162.29 136.729 162.074C136.48 161.876 136.295 161.807 135.981 161.724L135.971 161.721C135.519 161.601 135.178 161.511 134.765 161.724C134.32 161.953 134.822 162.518 134.531 162.907C134.344 163.156 134.296 163.365 134.016 163.52C133.623 163.738 132.854 163.539 132.426 163.389C131.78 163.162 131.749 160.726 131.21 160.321C130.661 159.91 130.65 157.708 129.947 157.692C129.416 157.68 127.923 157.194 127.562 157.56C127.091 158.038 126.975 160.439 127.282 161.022C127.658 161.739 130.796 163.809 130.275 164.441C130.02 164.75 129.636 164.613 129.293 164.835Z" fill="black" stroke="black"/>
<path data-testid="fly-75" d="M142.458 23.3106C142.021 23.5931 141.983 23.9629 141.569 24.2747C141.364 24.4294 141.204 24.4601 141.008 24.6253C140.612 24.9592 140.507 25.2587 140.306 25.7208C140.054 26.3022 139.705 26.7259 139.979 27.2985C140.192 27.7423 140.53 27.8964 141.008 28.0873C141.68 28.3559 142.162 28.2199 142.879 28.0873C143.681 27.9388 144.183 27.8054 144.796 27.2985C145.177 26.9837 145.347 26.7514 145.591 26.3344C146.016 25.6103 146.433 24.6253 146.433 24.6253C146.656 24.9987 146.327 25.3046 146.433 25.7208C146.576 26.2842 146.847 26.5582 147.264 26.9807L147.275 26.9917C147.86 27.5842 148.284 28.0949 149.146 28.0873C149.865 28.0809 152.573 28.2037 152.981 27.6491C153.29 27.2287 152.365 26.5807 152.326 26.0714C152.28 25.4681 150.919 24.9959 150.409 24.6253C150.002 24.33 149.579 24.5339 149.146 24.2747C148.619 23.9599 148.21 22.9162 148.21 22.9162C148.21 22.9162 148.77 22.7078 149.146 22.6094C149.659 22.4753 150.123 22.8552 150.409 22.4341C150.673 22.0442 150.578 21.6847 150.409 21.2509C150.286 20.939 150.164 20.7652 149.894 20.5497C149.645 20.3512 149.46 20.2824 149.146 20.1992L149.136 20.1965C148.684 20.0768 148.343 19.9865 147.93 20.1992C147.485 20.4281 147.988 20.9932 147.696 21.3824C147.509 21.6318 147.461 21.8408 147.181 21.9959C146.788 22.2136 146.019 22.0144 145.591 21.8644C144.945 21.6377 144.914 19.2011 144.375 18.7968C143.827 18.3853 143.815 16.1834 143.113 16.1675C142.581 16.1554 141.088 15.6699 140.727 16.036C140.256 16.5137 140.14 18.9145 140.447 19.498C140.823 20.2142 143.961 22.2845 143.44 22.9162C143.185 23.2256 142.801 23.0885 142.458 23.3106Z" fill="black" stroke="black"/>
<path data-testid="fly-55" d="M134.23 137.682C133.793 137.965 133.755 138.334 133.341 138.646C133.136 138.801 132.976 138.832 132.78 138.997C132.384 139.331 132.279 139.63 132.078 140.092C131.826 140.674 131.476 141.097 131.751 141.67C131.964 142.114 132.302 142.268 132.78 142.459C133.452 142.727 133.934 142.591 134.651 142.459C135.453 142.31 135.955 142.177 136.568 141.67C136.949 141.355 137.119 141.123 137.363 140.706C137.788 139.982 138.205 138.997 138.205 138.997C138.428 139.37 138.099 139.676 138.205 140.092C138.348 140.656 138.619 140.93 139.036 141.352L139.047 141.363C139.632 141.956 140.056 142.466 140.918 142.459C141.636 142.452 144.345 142.575 144.753 142.021C145.062 141.6 144.137 140.952 144.098 140.443C144.052 139.84 142.69 139.367 142.18 138.997C141.774 138.702 141.351 138.905 140.918 138.646C140.391 138.331 139.982 137.288 139.982 137.288C139.982 137.288 140.542 137.079 140.918 136.981C141.43 136.847 141.895 137.227 142.18 136.806C142.445 136.416 142.35 136.056 142.18 135.622C142.058 135.31 141.936 135.137 141.666 134.921C141.417 134.723 141.232 134.654 140.918 134.571L140.907 134.568C140.456 134.448 140.115 134.358 139.702 134.571C139.257 134.8 139.759 135.365 139.468 135.754C139.281 136.003 139.233 136.212 138.953 136.367C138.56 136.585 137.791 136.386 137.363 136.236C136.717 136.009 136.686 133.573 136.147 133.168C135.598 132.757 135.587 130.555 134.884 130.539C134.353 130.527 132.86 130.041 132.499 130.408C132.028 130.885 131.912 133.286 132.219 133.87C132.595 134.586 135.733 136.656 135.212 137.288C134.957 137.597 134.573 137.46 134.23 137.682Z" fill="black" stroke="black"/>
<path data-testid="fly-52" d="M37.9601 85.0219C37.5231 85.3044 37.4852 85.6741 37.0715 85.986C36.8662 86.1407 36.706 86.1713 36.5103 86.3365C36.1146 86.6705 36.0094 86.9699 35.8087 87.4321C35.5563 88.0135 35.2069 88.4372 35.4813 89.0097C35.694 89.4535 36.0327 89.6077 36.5103 89.7986C37.1823 90.0671 37.6643 89.9312 38.381 89.7986C39.1833 89.6501 39.6852 89.5167 40.2985 89.0097C40.6794 88.695 40.8491 88.4627 41.0936 88.0456C41.5181 87.3216 41.9355 86.3365 41.9355 86.3365C42.1583 86.71 41.8297 87.0159 41.9355 87.4321C42.0786 87.9955 42.3492 88.2695 42.7664 88.6919L42.7773 88.703C43.3624 89.2955 43.7866 89.8062 44.6481 89.7986C45.3669 89.7922 48.0752 89.915 48.4831 89.3603C48.7923 88.9399 47.867 88.292 47.8283 87.7827C47.7825 87.1794 46.4209 86.7071 45.9108 86.3365C45.5043 86.0413 45.0817 86.2451 44.6481 85.986C44.1213 85.6712 43.7127 84.6275 43.7127 84.6275C43.7127 84.6275 44.272 84.4191 44.6481 84.3207C45.1609 84.1865 45.6252 84.5665 45.9108 84.1454C46.1753 83.7554 46.0808 83.396 45.9108 82.9622C45.7886 82.6502 45.6663 82.4765 45.3964 82.261C45.1476 82.0625 44.9625 81.9937 44.6481 81.9104L44.6379 81.9077C44.186 81.7881 43.8452 81.6978 43.4321 81.9104C42.9873 82.1394 43.4898 82.7045 43.1982 83.0937C43.0114 83.343 42.9637 83.5521 42.6838 83.7072C42.2907 83.9249 41.5213 83.7257 41.0936 83.5757C40.447 83.3489 40.4167 80.9124 39.8776 80.5081C39.3289 80.0966 39.3175 77.8946 38.6149 77.8787C38.0831 77.8667 36.5905 77.3812 36.2296 77.7473C35.7587 78.225 35.6425 80.6258 35.949 81.2093C36.3253 81.9255 39.4632 83.9958 38.9422 84.6275C38.6871 84.9368 38.3035 84.7998 37.9601 85.0219Z" fill="black" stroke="black"/>
<path data-testid="fly-58" d="M9.16149 131.1C8.72451 131.382 8.68657 131.752 8.27288 132.064C8.06764 132.218 7.90736 132.249 7.71166 132.414C7.31603 132.748 7.21076 133.048 7.01012 133.51C6.75773 134.091 6.40834 134.515 6.68274 135.087C6.89542 135.531 7.23411 135.685 7.71166 135.876C8.38366 136.145 8.86569 136.009 9.58241 135.876C10.3847 135.728 10.8866 135.594 11.4999 135.087C11.8808 134.773 12.0505 134.54 12.295 134.123C12.7195 133.399 13.1369 132.414 13.1369 132.414C13.3597 132.788 13.0311 133.094 13.1369 133.51C13.28 134.073 13.5506 134.347 13.9678 134.77L13.9787 134.781C14.5638 135.373 14.988 135.884 15.8495 135.876C16.5683 135.87 19.2766 135.993 19.6845 135.438C19.9937 135.018 19.0684 134.37 19.0297 133.86C18.9839 133.257 17.6223 132.785 17.1122 132.414C16.7057 132.119 16.2831 132.323 15.8495 132.064C15.3227 131.749 14.9141 130.705 14.9141 130.705C14.9141 130.705 15.4734 130.497 15.8495 130.398C16.3623 130.264 16.8266 130.644 17.1122 130.223C17.3767 129.833 17.2822 129.474 17.1122 129.04C16.99 128.728 16.8677 128.554 16.5978 128.339C16.349 128.14 16.1639 128.071 15.8495 127.988L15.8393 127.985C15.3874 127.866 15.0466 127.776 14.6335 127.988C14.1887 128.217 14.6912 128.782 14.3996 129.171C14.2128 129.421 14.1651 129.63 13.8852 129.785C13.4921 130.003 12.7227 129.803 12.295 129.653C11.6484 129.427 11.6181 126.99 11.079 126.586C10.5303 126.174 10.5189 123.972 9.81626 123.956C9.28454 123.944 7.79191 123.459 7.43104 123.825C6.96014 124.303 6.84392 126.704 7.15043 127.287C7.52669 128.003 10.6646 130.074 10.1436 130.705C9.88848 131.015 9.50495 130.878 9.16149 131.1Z" fill="black" stroke="black"/>
<path data-testid="fly-64" d="M195.941 198.571C195.504 198.853 195.466 199.223 195.052 199.535C194.847 199.689 194.687 199.72 194.491 199.885C194.095 200.219 193.99 200.519 193.79 200.981C193.537 201.562 193.188 201.986 193.462 202.558C193.675 203.002 194.014 203.156 194.491 203.347C195.163 203.616 195.645 203.48 196.362 203.347C197.164 203.199 197.666 203.065 198.279 202.558C198.66 202.244 198.83 202.011 199.074 201.594C199.499 200.87 199.916 199.885 199.916 199.885C200.139 200.259 199.811 200.565 199.916 200.981C200.059 201.544 200.33 201.818 200.747 202.241L200.758 202.252C201.343 202.844 201.767 203.355 202.629 203.347C203.348 203.341 206.056 203.464 206.464 202.909C206.773 202.489 205.848 201.841 205.809 201.331C205.763 200.728 204.402 200.256 203.892 199.885C203.485 199.59 203.063 199.794 202.629 199.535C202.102 199.22 201.694 198.176 201.694 198.176C201.694 198.176 202.253 197.968 202.629 197.869C203.142 197.735 203.606 198.115 203.892 197.694C204.156 197.304 204.062 196.945 203.892 196.511C203.769 196.199 203.647 196.025 203.377 195.81C203.128 195.611 202.943 195.542 202.629 195.459L202.619 195.456C202.167 195.337 201.826 195.247 201.413 195.459C200.968 195.688 201.471 196.253 201.179 196.642C200.992 196.892 200.945 197.101 200.665 197.256C200.272 197.474 199.502 197.274 199.074 197.124C198.428 196.898 198.398 194.461 197.858 194.057C197.31 193.645 197.298 191.443 196.596 191.427C196.064 191.415 194.571 190.93 194.21 191.296C193.74 191.774 193.623 194.175 193.93 194.758C194.306 195.474 197.444 197.545 196.923 198.176C196.668 198.486 196.284 198.349 195.941 198.571Z" fill="black" stroke="black"/>
<path data-testid="fly-70" d="M87.3291 164.835C86.8921 165.118 86.8542 165.487 86.4405 165.799C86.2353 165.954 86.075 165.985 85.8793 166.15C85.4837 166.484 85.3784 166.783 85.1777 167.245C84.9254 167.827 84.576 168.25 84.8504 168.823C85.063 169.267 85.4017 169.421 85.8793 169.612C86.5513 169.88 87.0333 169.744 87.75 169.612C88.5524 169.463 89.0542 169.33 89.6676 168.823C90.0484 168.508 90.2182 168.276 90.4626 167.859C90.8871 167.135 91.3045 166.15 91.3045 166.15C91.5273 166.523 91.1987 166.829 91.3045 167.245C91.4476 167.809 91.7182 168.083 92.1354 168.505L92.1463 168.516C92.7314 169.109 93.1556 169.619 94.0171 169.612C94.7359 169.605 97.4442 169.728 97.8521 169.174C98.1613 168.753 97.2361 168.105 97.1974 167.596C97.1515 166.993 95.79 166.52 95.2798 166.15C94.8734 165.854 94.4507 166.058 94.0171 165.799C93.4904 165.484 93.0817 164.441 93.0817 164.441C93.0817 164.441 93.641 164.232 94.0171 164.134C94.53 164 94.9942 164.38 95.2798 163.959C95.5444 163.569 95.4498 163.209 95.2798 162.775C95.1576 162.463 95.0353 162.29 94.7654 162.074C94.5166 161.876 94.3315 161.807 94.0171 161.724L94.0069 161.721C93.555 161.601 93.2142 161.511 92.8011 161.724C92.3563 161.953 92.8588 162.518 92.5672 162.907C92.3804 163.156 92.3327 163.365 92.0528 163.52C91.6597 163.738 90.8903 163.539 90.4626 163.389C89.816 163.162 89.7857 160.726 89.2466 160.321C88.6979 159.91 88.6866 157.708 87.9839 157.692C87.4522 157.68 85.9595 157.194 85.5987 157.56C85.1278 158.038 85.0115 160.439 85.318 161.022C85.6943 161.739 88.8322 163.809 88.3113 164.441C88.0561 164.75 87.6726 164.613 87.3291 164.835Z" fill="black" stroke="black"/>
<path data-testid="fly-76" d="M100.494 23.3106C100.057 23.5931 100.019 23.9629 99.6056 24.2747C99.4003 24.4294 99.2401 24.4601 99.0444 24.6253C98.6487 24.9592 98.5435 25.2587 98.3428 25.7208C98.0904 26.3022 97.741 26.7259 98.0154 27.2985C98.2281 27.7423 98.5668 27.8964 99.0444 28.0873C99.7164 28.3559 100.198 28.2199 100.915 28.0873C101.717 27.9388 102.219 27.8054 102.833 27.2985C103.213 26.9837 103.383 26.7514 103.628 26.3344C104.052 25.6103 104.47 24.6253 104.47 24.6253C104.692 24.9987 104.364 25.3046 104.47 25.7208C104.613 26.2842 104.883 26.5582 105.3 26.9807L105.311 26.9917C105.896 27.5842 106.321 28.0949 107.182 28.0873C107.901 28.0809 110.609 28.2037 111.017 27.6491C111.326 27.2287 110.401 26.5807 110.362 26.0714C110.317 25.4681 108.955 24.9959 108.445 24.6253C108.038 24.33 107.616 24.5339 107.182 24.2747C106.655 23.9599 106.247 22.9162 106.247 22.9162C106.247 22.9162 106.806 22.7078 107.182 22.6094C107.695 22.4753 108.159 22.8552 108.445 22.4341C108.709 22.0442 108.615 21.6847 108.445 21.2509C108.323 20.939 108.2 20.7652 107.93 20.5497C107.682 20.3512 107.497 20.2824 107.182 20.1992L107.172 20.1965C106.72 20.0768 106.379 19.9865 105.966 20.1992C105.521 20.4281 106.024 20.9932 105.732 21.3824C105.545 21.6318 105.498 21.8408 105.218 21.9959C104.825 22.2136 104.055 22.0144 103.628 21.8644C102.981 21.6377 102.951 19.2011 102.412 18.7968C101.863 18.3853 101.852 16.1834 101.149 16.1675C100.617 16.1554 99.1246 15.6699 98.7637 16.036C98.2928 16.5137 98.1766 18.9145 98.4831 19.498C98.8594 20.2142 101.997 22.2845 101.476 22.9162C101.221 23.2256 100.838 23.0885 100.494 23.3106Z" fill="black" stroke="black"/>
<path data-testid="fly-44" d="M66.7587 122.871C66.3217 123.154 66.2838 123.524 65.8701 123.836C65.6648 123.99 65.5046 124.021 65.3089 124.186C64.9132 124.52 64.808 124.82 64.6073 125.282C64.3549 125.863 64.0055 126.287 64.2799 126.859C64.4926 127.303 64.8313 127.457 65.3089 127.648C65.9809 127.917 66.4629 127.781 67.1796 127.648C67.9819 127.5 68.4838 127.366 69.0971 126.859C69.478 126.545 69.6477 126.312 69.8922 125.895C70.3167 125.171 70.7341 124.186 70.7341 124.186C70.9569 124.56 70.6283 124.865 70.7341 125.282C70.8772 125.845 71.1478 126.119 71.565 126.542L71.5759 126.553C72.161 127.145 72.5852 127.656 73.4467 127.648C74.1655 127.642 76.8738 127.765 77.2817 127.21C77.5909 126.79 76.6656 126.142 76.6269 125.632C76.5811 125.029 75.2195 124.557 74.7094 124.186C74.3029 123.891 73.8803 124.095 73.4467 123.836C72.9199 123.521 72.5113 122.477 72.5113 122.477C72.5113 122.477 73.0706 122.269 73.4467 122.17C73.9595 122.036 74.4238 122.416 74.7094 121.995C74.9739 121.605 74.8794 121.246 74.7094 120.812C74.5872 120.5 74.4649 120.326 74.195 120.111C73.9462 119.912 73.7611 119.843 73.4467 119.76L73.4365 119.757C72.9846 119.638 72.6438 119.547 72.2307 119.76C71.7859 119.989 72.2884 120.554 71.9968 120.943C71.81 121.193 71.7623 121.402 71.4824 121.557C71.0893 121.774 70.3199 121.575 69.8922 121.425C69.2456 121.199 69.2153 118.762 68.6762 118.358C68.1275 117.946 68.1161 115.744 67.4135 115.728C66.8817 115.716 65.3891 115.231 65.0282 115.597C64.5573 116.075 64.4411 118.475 64.7476 119.059C65.1239 119.775 68.2618 121.845 67.7408 122.477C67.4857 122.786 67.1021 122.649 66.7587 122.871Z" fill="black" stroke="black"/>
<path data-testid="fly-59" d="M37.9601 168.949C37.5231 169.232 37.4852 169.601 37.0715 169.913C36.8662 170.068 36.706 170.099 36.5103 170.264C36.1146 170.598 36.0094 170.897 35.8087 171.359C35.5563 171.941 35.2069 172.365 35.4813 172.937C35.694 173.381 36.0327 173.535 36.5103 173.726C37.1823 173.994 37.6643 173.859 38.381 173.726C39.1833 173.577 39.6852 173.444 40.2985 172.937C40.6794 172.622 40.8491 172.39 41.0936 171.973C41.5181 171.249 41.9355 170.264 41.9355 170.264C42.1583 170.637 41.8297 170.943 41.9355 171.359C42.0786 171.923 42.3492 172.197 42.7664 172.619L42.7773 172.63C43.3624 173.223 43.7866 173.734 44.6481 173.726C45.3669 173.72 48.0752 173.842 48.4831 173.288C48.7923 172.867 47.867 172.219 47.8283 171.71C47.7825 171.107 46.4209 170.634 45.9108 170.264C45.5043 169.969 45.0817 170.172 44.6481 169.913C44.1213 169.599 43.7127 168.555 43.7127 168.555C43.7127 168.555 44.272 168.346 44.6481 168.248C45.1609 168.114 45.6252 168.494 45.9108 168.073C46.1753 167.683 46.0808 167.323 45.9108 166.89C45.7886 166.578 45.6663 166.404 45.3964 166.188C45.1476 165.99 44.9625 165.921 44.6481 165.838L44.6379 165.835C44.186 165.715 43.8452 165.625 43.4321 165.838C42.9873 166.067 43.4898 166.632 43.1982 167.021C43.0114 167.27 42.9637 167.479 42.6838 167.635C42.2907 167.852 41.5213 167.653 41.0936 167.503C40.447 167.276 40.4167 164.84 39.8776 164.435C39.3289 164.024 39.3175 161.822 38.6149 161.806C38.0831 161.794 36.5905 161.308 36.2296 161.675C35.7587 162.152 35.6425 164.553 35.949 165.137C36.3253 165.853 39.4632 167.923 38.9422 168.555C38.6871 168.864 38.3035 168.727 37.9601 168.949Z" fill="black" stroke="black"/>
<path data-testid="fly-65" d="M224.739 236.42C224.303 236.703 224.265 237.072 223.851 237.384C223.646 237.539 223.485 237.57 223.29 237.735C222.894 238.069 222.789 238.368 222.588 238.83C222.336 239.412 221.986 239.835 222.261 240.408C222.473 240.852 222.812 241.006 223.29 241.197C223.962 241.465 224.444 241.33 225.16 241.197C225.963 241.048 226.465 240.915 227.078 240.408C227.459 240.093 227.629 239.861 227.873 239.444C228.297 238.72 228.715 237.735 228.715 237.735C228.938 238.108 228.609 238.414 228.715 238.83C228.858 239.394 229.129 239.668 229.546 240.09L229.557 240.101C230.142 240.694 230.566 241.204 231.427 241.197C232.146 241.19 234.855 241.313 235.262 240.759C235.572 240.338 234.646 239.69 234.608 239.181C234.562 238.578 233.2 238.105 232.69 237.735C232.284 237.44 231.861 237.643 231.427 237.384C230.901 237.069 230.492 236.026 230.492 236.026C230.492 236.026 231.051 235.817 231.427 235.719C231.94 235.585 232.405 235.965 232.69 235.544C232.955 235.154 232.86 234.794 232.69 234.36C232.568 234.049 232.446 233.875 232.176 233.659C231.927 233.461 231.742 233.392 231.427 233.309L231.417 233.306C230.965 233.186 230.625 233.096 230.211 233.309C229.767 233.538 230.269 234.103 229.978 234.492C229.791 234.741 229.743 234.95 229.463 235.105C229.07 235.323 228.301 235.124 227.873 234.974C227.226 234.747 227.196 232.311 226.657 231.906C226.108 231.495 226.097 229.293 225.394 229.277C224.863 229.265 223.37 228.779 223.009 229.146C222.538 229.623 222.422 232.024 222.728 232.608C223.105 233.324 226.243 235.394 225.722 236.026C225.466 236.335 225.083 236.198 224.739 236.42Z" fill="black" stroke="black"/>
<path data-testid="fly-71" d="M116.128 202.685C115.691 202.967 115.653 203.337 115.239 203.649C115.034 203.803 114.874 203.834 114.678 203.999C114.282 204.333 114.177 204.633 113.976 205.095C113.724 205.676 113.375 206.1 113.649 206.673C113.862 207.116 114.2 207.271 114.678 207.461C115.35 207.73 115.832 207.594 116.549 207.461C117.351 207.313 117.853 207.179 118.466 206.673C118.847 206.358 119.017 206.125 119.261 205.708C119.686 204.984 120.103 203.999 120.103 203.999C120.326 204.373 119.997 204.679 120.103 205.095C120.246 205.658 120.517 205.932 120.934 206.355L120.945 206.366C121.53 206.958 121.954 207.469 122.816 207.461C123.534 207.455 126.243 207.578 126.651 207.023C126.96 206.603 126.035 205.955 125.996 205.446C125.95 204.842 124.589 204.37 124.078 203.999C123.672 203.704 123.249 203.908 122.816 203.649C122.289 203.334 121.88 202.29 121.88 202.29C121.88 202.29 122.44 202.082 122.816 201.984C123.329 201.849 123.793 202.229 124.078 201.808C124.343 201.418 124.248 201.059 124.078 200.625C123.956 200.313 123.834 200.139 123.564 199.924C123.315 199.725 123.13 199.657 122.816 199.573L122.806 199.571C122.354 199.451 122.013 199.361 121.6 199.573C121.155 199.802 121.657 200.367 121.366 200.756C121.179 201.006 121.131 201.215 120.851 201.37C120.458 201.588 119.689 201.388 119.261 201.239C118.615 201.012 118.584 198.575 118.045 198.171C117.496 197.759 117.485 195.557 116.782 195.542C116.251 195.529 114.758 195.044 114.397 195.41C113.926 195.888 113.81 198.289 114.117 198.872C114.493 199.588 117.631 201.659 117.11 202.29C116.855 202.6 116.471 202.463 116.128 202.685Z" fill="black" stroke="black"/>
<path data-testid="fly-77" d="M129.293 61.1602C128.856 61.4427 128.818 61.8125 128.404 62.1243C128.199 62.279 128.039 62.3096 127.843 62.4749C127.447 62.8088 127.342 63.1082 127.141 63.5704C126.889 64.1518 126.54 64.5755 126.814 65.1481C127.027 65.5918 127.365 65.746 127.843 65.9369C128.515 66.2054 128.997 66.0695 129.714 65.9369C130.516 65.7884 131.018 65.655 131.631 65.1481C132.012 64.8333 132.182 64.601 132.426 64.1839C132.851 63.4599 133.268 62.4749 133.268 62.4749C133.491 62.8483 133.162 63.1542 133.268 63.5704C133.411 64.1338 133.682 64.4078 134.099 64.8302L134.11 64.8413C134.695 65.4338 135.119 65.9445 135.981 65.9369C136.699 65.9305 139.408 66.0533 139.816 65.4986C140.125 65.0782 139.2 64.4303 139.161 63.921C139.115 63.3177 137.754 62.8454 137.243 62.4749C136.837 62.1796 136.414 62.3834 135.981 62.1243C135.454 61.8095 135.045 60.7658 135.045 60.7658C135.045 60.7658 135.605 60.5574 135.981 60.459C136.494 60.3249 136.958 60.7048 137.243 60.2837C137.508 59.8937 137.413 59.5343 137.243 59.1005C137.121 58.7886 136.999 58.6148 136.729 58.3993C136.48 58.2008 136.295 58.132 135.981 58.0487L135.971 58.0461C135.519 57.9264 135.178 57.8361 134.765 58.0487C134.32 58.2777 134.822 58.8428 134.531 59.232C134.344 59.4813 134.296 59.6904 134.016 59.8455C133.623 60.0632 132.854 59.864 132.426 59.714C131.78 59.4873 131.749 57.0507 131.21 56.6464C130.661 56.2349 130.65 54.0329 129.947 54.017C129.416 54.005 127.923 53.5195 127.562 53.8856C127.091 54.3633 126.975 56.7641 127.282 57.3476C127.658 58.0638 130.796 60.1341 130.275 60.7658C130.02 61.0751 129.636 60.9381 129.293 61.1602Z" fill="black" stroke="black"/>
<path data-testid="fly-50" d="M60.1761 156.607C59.7392 156.889 59.7012 157.259 59.2875 157.571C59.0823 157.726 58.922 157.756 58.7263 157.922C58.3307 158.256 58.2254 158.555 58.0248 159.017C57.7724 159.599 57.423 160.022 57.6974 160.595C57.9101 161.039 58.2488 161.193 58.7263 161.384C59.3983 161.652 59.8803 161.516 60.5971 161.384C61.3994 161.235 61.9013 161.102 62.5146 160.595C62.8954 160.28 63.0652 160.048 63.3097 159.631C63.7341 158.907 64.1515 157.922 64.1515 157.922C64.3743 158.295 64.0457 158.601 64.1515 159.017C64.2947 159.581 64.5652 159.855 64.9824 160.277L64.9933 160.288C65.5784 160.881 66.0026 161.391 66.8641 161.384C67.5829 161.377 70.2913 161.5 70.6992 160.945C71.0083 160.525 70.0831 159.877 70.0444 159.368C69.9985 158.764 68.637 158.292 68.1269 157.922C67.7204 157.626 67.2977 157.83 66.8641 157.571C66.3374 157.256 65.9287 156.213 65.9287 156.213C65.9287 156.213 66.488 156.004 66.8641 155.906C67.377 155.772 67.8412 156.152 68.1269 155.73C68.3914 155.34 68.2968 154.981 68.1269 154.547C68.0046 154.235 67.8824 154.062 67.6124 153.846C67.3637 153.648 67.1785 153.579 66.8641 153.495L66.854 153.493C66.402 153.373 66.0612 153.283 65.6481 153.495C65.2033 153.724 65.7059 154.29 65.4143 154.679C65.2274 154.928 65.1797 155.137 64.8998 155.292C64.5068 155.51 63.7373 155.311 63.3097 155.161C62.663 154.934 62.6327 152.497 62.0937 152.093C61.5449 151.682 61.5336 149.48 60.8309 149.464C60.2992 149.452 58.8066 148.966 58.4457 149.332C57.9748 149.81 57.8586 152.211 58.1651 152.794C58.5413 153.511 61.6793 155.581 61.1583 156.213C60.9031 156.522 60.5196 156.385 60.1761 156.607Z" fill="black" stroke="black"/>
<path data-testid="fly-60" d="M31.3775 202.685C30.9406 202.967 30.9026 203.337 30.4889 203.649C30.2837 203.803 30.1234 203.834 29.9277 203.999C29.5321 204.333 29.4268 204.633 29.2262 205.095C28.9738 205.676 28.6244 206.1 28.8988 206.673C29.1115 207.116 29.4502 207.271 29.9277 207.461C30.5997 207.73 31.0817 207.594 31.7985 207.461C32.6008 207.313 33.1027 207.179 33.716 206.673C34.0968 206.358 34.2666 206.125 34.5111 205.708C34.9355 204.984 35.3529 203.999 35.3529 203.999C35.5757 204.373 35.2471 204.679 35.3529 205.095C35.4961 205.658 35.7667 205.932 36.1838 206.355L36.1947 206.366C36.7799 206.958 37.204 207.469 38.0655 207.461C38.7843 207.455 41.4927 207.578 41.9006 207.023C42.2097 206.603 41.2845 205.955 41.2458 205.446C41.1999 204.842 39.8384 204.37 39.3283 203.999C38.9218 203.704 38.4991 203.908 38.0655 203.649C37.5388 203.334 37.1301 202.29 37.1301 202.29C37.1301 202.29 37.6894 202.082 38.0655 201.984C38.5784 201.849 39.0426 202.229 39.3283 201.808C39.5928 201.418 39.4982 201.059 39.3283 200.625C39.2061 200.313 39.0838 200.139 38.8138 199.924C38.5651 199.725 38.3799 199.657 38.0655 199.573L38.0554 199.571C37.6034 199.451 37.2626 199.361 36.8495 199.573C36.4047 199.802 36.9073 200.367 36.6157 200.756C36.4288 201.006 36.3811 201.215 36.1012 201.37C35.7082 201.588 34.9387 201.388 34.5111 201.239C33.8644 201.012 33.8341 198.575 33.2951 198.171C32.7463 197.759 32.735 195.557 32.0323 195.542C31.5006 195.529 30.008 195.044 29.6471 195.41C29.1762 195.888 29.06 198.289 29.3665 198.872C29.7427 199.588 32.8807 201.659 32.3597 202.29C32.1045 202.6 31.721 202.463 31.3775 202.685Z" fill="black" stroke="black"/>
<path data-testid="fly-66" d="M218.157 270.156C217.72 270.438 217.682 270.808 217.268 271.12C217.063 271.274 216.903 271.305 216.707 271.47C216.311 271.804 216.206 272.104 216.006 272.566C215.753 273.147 215.404 273.571 215.678 274.144C215.891 274.587 216.23 274.741 216.707 274.932C217.379 275.201 217.861 275.065 218.578 274.932C219.38 274.784 219.882 274.65 220.495 274.144C220.876 273.829 221.046 273.596 221.29 273.179C221.715 272.455 222.132 271.47 222.132 271.47C222.355 271.844 222.027 272.15 222.132 272.566C222.275 273.129 222.546 273.403 222.963 273.826L222.974 273.837C223.559 274.429 223.983 274.94 224.845 274.932C225.564 274.926 228.272 275.049 228.68 274.494C228.989 274.074 228.064 273.426 228.025 272.916C227.979 272.313 226.618 271.841 226.108 271.47C225.701 271.175 225.279 271.379 224.845 271.12C224.318 270.805 223.91 269.761 223.91 269.761C223.91 269.761 224.469 269.553 224.845 269.454C225.358 269.32 225.822 269.7 226.108 269.279C226.372 268.889 226.278 268.53 226.108 268.096C225.985 267.784 225.863 267.61 225.593 267.395C225.344 267.196 225.159 267.127 224.845 267.044L224.835 267.042C224.383 266.922 224.042 266.832 223.629 267.044C223.184 267.273 223.687 267.838 223.395 268.227C223.208 268.477 223.161 268.686 222.881 268.841C222.488 269.059 221.718 268.859 221.29 268.709C220.644 268.483 220.614 266.046 220.074 265.642C219.526 265.23 219.514 263.028 218.812 263.012C218.28 263 216.787 262.515 216.427 262.881C215.956 263.359 215.839 265.76 216.146 266.343C216.522 267.059 219.66 269.13 219.139 269.761C218.884 270.071 218.5 269.934 218.157 270.156Z" fill="black" stroke="black"/>
<path data-testid="fly-72" d="M109.545 236.42C109.108 236.703 109.07 237.072 108.657 237.384C108.451 237.539 108.291 237.57 108.095 237.735C107.7 238.069 107.594 238.368 107.394 238.83C107.141 239.412 106.792 239.835 107.066 240.408C107.279 240.852 107.618 241.006 108.095 241.197C108.767 241.465 109.249 241.33 109.966 241.197C110.768 241.048 111.27 240.915 111.884 240.408C112.264 240.093 112.434 239.861 112.679 239.444C113.103 238.72 113.521 237.735 113.521 237.735C113.743 238.108 113.415 238.414 113.521 238.83C113.664 239.394 113.934 239.668 114.351 240.09L114.362 240.101C114.947 240.694 115.372 241.204 116.233 241.197C116.952 241.19 119.66 241.313 120.068 240.759C120.377 240.338 119.452 239.69 119.413 239.181C119.368 238.578 118.006 238.105 117.496 237.735C117.089 237.44 116.667 237.643 116.233 237.384C115.706 237.069 115.298 236.026 115.298 236.026C115.298 236.026 115.857 235.817 116.233 235.719C116.746 235.585 117.21 235.965 117.496 235.544C117.76 235.154 117.666 234.794 117.496 234.36C117.374 234.049 117.251 233.875 116.981 233.659C116.733 233.461 116.548 233.392 116.233 233.309L116.223 233.306C115.771 233.186 115.43 233.096 115.017 233.309C114.572 233.538 115.075 234.103 114.783 234.492C114.596 234.741 114.549 234.95 114.269 235.105C113.876 235.323 113.106 235.124 112.679 234.974C112.032 234.747 112.002 232.311 111.463 231.906C110.914 231.495 110.903 229.293 110.2 229.277C109.668 229.265 108.176 228.779 107.815 229.146C107.344 229.623 107.228 232.024 107.534 232.608C107.91 233.324 111.048 235.394 110.527 236.026C110.272 236.335 109.889 236.198 109.545 236.42Z" fill="black" stroke="black"/>
<path data-testid="fly-78" d="M122.71 94.8956C122.273 95.1782 122.235 95.5479 121.822 95.8597C121.616 96.0145 121.456 96.0451 121.26 96.2103C120.865 96.5443 120.76 96.8437 120.559 97.3059C120.306 97.8873 119.957 98.311 120.231 98.8835C120.444 99.3273 120.783 99.4815 121.26 99.6723C121.932 99.9409 122.414 99.805 123.131 99.6723C123.933 99.5238 124.435 99.3905 125.049 98.8835C125.43 98.5688 125.599 98.3365 125.844 97.9194C126.268 97.1954 126.686 96.2103 126.686 96.2103C126.908 96.5838 126.58 96.8897 126.686 97.3059C126.829 97.8692 127.099 98.1433 127.517 98.5657L127.527 98.5768C128.113 99.1693 128.537 99.68 129.398 99.6723C130.117 99.666 132.825 99.7887 133.233 99.2341C133.542 98.8137 132.617 98.1658 132.578 97.6565C132.533 97.0532 131.171 96.5809 130.661 96.2103C130.254 95.915 129.832 96.1189 129.398 95.8597C128.871 95.5449 128.463 94.5012 128.463 94.5012C128.463 94.5012 129.022 94.2928 129.398 94.1945C129.911 94.0603 130.375 94.4403 130.661 94.0192C130.925 93.6292 130.831 93.2697 130.661 92.836C130.539 92.524 130.416 92.3503 130.147 92.1348C129.898 91.9363 129.713 91.8675 129.398 91.7842L129.388 91.7815C128.936 91.6618 128.595 91.5716 128.182 91.7842C127.737 92.0131 128.24 92.5783 127.948 92.9674C127.762 93.2168 127.714 93.4259 127.434 93.581C127.041 93.7987 126.271 93.5994 125.844 93.4495C125.197 93.2227 125.167 90.7861 124.628 90.3819C124.079 89.9703 124.068 87.7684 123.365 87.7525C122.833 87.7405 121.341 87.2549 120.98 87.621C120.509 88.0988 120.393 90.4996 120.699 91.083C121.075 91.7993 124.213 93.8696 123.692 94.5012C123.437 94.8106 123.054 94.6736 122.71 94.8956Z" fill="black" stroke="black"/>
<path data-testid="fly-51" d="M31.3775 140.151C30.9406 140.433 30.9026 140.803 30.4889 141.115C30.2837 141.269 30.1234 141.3 29.9277 141.465C29.5321 141.799 29.4268 142.099 29.2262 142.561C28.9738 143.142 28.6244 143.566 28.8988 144.139C29.1115 144.582 29.4502 144.736 29.9277 144.927C30.5997 145.196 31.0817 145.06 31.7985 144.927C32.6008 144.779 33.1027 144.645 33.716 144.139C34.0968 143.824 34.2666 143.591 34.5111 143.174C34.9355 142.45 35.3529 141.465 35.3529 141.465C35.5757 141.839 35.2471 142.145 35.3529 142.561C35.4961 143.124 35.7667 143.398 36.1838 143.821L36.1947 143.832C36.7799 144.424 37.204 144.935 38.0655 144.927C38.7843 144.921 41.4927 145.044 41.9006 144.489C42.2097 144.069 41.2845 143.421 41.2458 142.911C41.1999 142.308 39.8384 141.836 39.3283 141.465C38.9218 141.17 38.4991 141.374 38.0655 141.115C37.5388 140.8 37.1301 139.756 37.1301 139.756C37.1301 139.756 37.6894 139.548 38.0655 139.449C38.5784 139.315 39.0426 139.695 39.3283 139.274C39.5928 138.884 39.4982 138.525 39.3283 138.091C39.2061 137.779 39.0838 137.605 38.8138 137.39C38.5651 137.191 38.3799 137.122 38.0655 137.039L38.0554 137.036C37.6034 136.917 37.2626 136.827 36.8495 137.039C36.4047 137.268 36.9073 137.833 36.6157 138.222C36.4288 138.472 36.3811 138.681 36.1012 138.836C35.7082 139.054 34.9387 138.854 34.5111 138.704C33.8644 138.478 33.8341 136.041 33.2951 135.637C32.7463 135.225 32.735 133.023 32.0323 133.007C31.5006 132.995 30.008 132.51 29.6471 132.876C29.1762 133.354 29.06 135.755 29.3665 136.338C29.7427 137.054 32.8807 139.125 32.3597 139.756C32.1045 140.066 31.721 139.929 31.3775 140.151Z" fill="black" stroke="black"/>
<path data-testid="fly-61" d="M2.57895 186.228C2.14197 186.511 2.10403 186.881 1.69034 187.192C1.48509 187.347 1.32482 187.378 1.12911 187.543C0.733491 187.877 0.62822 188.176 0.42758 188.639C0.175191 189.22 -0.174201 189.644 0.100197 190.216C0.312877 190.66 0.651569 190.814 1.12911 191.005C1.80111 191.274 2.28314 191.138 2.99987 191.005C3.8022 190.857 4.30409 190.723 4.9174 190.216C5.29821 189.901 5.46799 189.669 5.71247 189.252C6.13692 188.528 6.55431 187.543 6.55431 187.543C6.77714 187.917 6.44855 188.222 6.55431 188.639C6.69746 189.202 6.96805 189.476 7.38523 189.898L7.39615 189.91C7.98125 190.502 8.40542 191.013 9.26691 191.005C9.98572 190.999 12.6941 191.121 13.102 190.567C13.4111 190.146 12.4859 189.498 12.4472 188.989C12.4014 188.386 11.0398 187.914 10.5297 187.543C10.1232 187.248 9.70054 187.452 9.26691 187.192C8.74019 186.878 8.33153 185.834 8.33153 185.834C8.33153 185.834 8.89084 185.626 9.26691 185.527C9.7798 185.393 10.244 185.773 10.5297 185.352C10.7942 184.962 10.6996 184.602 10.5297 184.169C10.4075 183.857 10.2852 183.683 10.0152 183.468C9.76648 183.269 9.58132 183.2 9.26691 183.117L9.25676 183.114C8.80484 182.995 8.46405 182.904 8.05092 183.117C7.60613 183.346 8.10867 183.911 7.81707 184.3C7.63021 184.55 7.58254 184.759 7.30261 184.914C6.90956 185.131 6.14011 184.932 5.71247 184.782C5.06584 184.555 5.03551 182.119 4.49648 181.715C3.94772 181.303 3.93639 179.101 3.23371 179.085C2.702 179.073 1.20937 178.588 0.848498 178.954C0.377592 179.432 0.261374 181.832 0.567884 182.416C0.944146 183.132 4.08208 185.202 3.5611 185.834C3.30593 186.143 2.92241 186.006 2.57895 186.228Z" fill="black" stroke="black"/>
<path data-testid="fly-67" d="M189.358 253.699C188.921 253.982 188.883 254.352 188.47 254.663C188.265 254.818 188.104 254.849 187.909 255.014C187.513 255.348 187.408 255.647 187.207 256.11C186.955 256.691 186.605 257.115 186.88 257.687C187.092 258.131 187.431 258.285 187.909 258.476C188.581 258.745 189.063 258.609 189.779 258.476C190.582 258.328 191.084 258.194 191.697 257.687C192.078 257.372 192.247 257.14 192.492 256.723C192.916 255.999 193.334 255.014 193.334 255.014C193.557 255.387 193.228 255.693 193.334 256.11C193.477 256.673 193.748 256.947 194.165 257.369L194.176 257.38C194.761 257.973 195.185 258.484 196.046 258.476C196.765 258.47 199.474 258.592 199.881 258.038C200.191 257.617 199.265 256.969 199.227 256.46C199.181 255.857 197.819 255.385 197.309 255.014C196.903 254.719 196.48 254.923 196.046 254.663C195.52 254.349 195.111 253.305 195.111 253.305C195.111 253.305 195.67 253.097 196.046 252.998C196.559 252.864 197.024 253.244 197.309 252.823C197.574 252.433 197.479 252.073 197.309 251.64C197.187 251.328 197.065 251.154 196.795 250.938C196.546 250.74 196.361 250.671 196.046 250.588L196.036 250.585C195.584 250.466 195.244 250.375 194.83 250.588C194.386 250.817 194.888 251.382 194.597 251.771C194.41 252.02 194.362 252.23 194.082 252.385C193.689 252.602 192.92 252.403 192.492 252.253C191.845 252.026 191.815 249.59 191.276 249.186C190.727 248.774 190.716 246.572 190.013 246.556C189.481 246.544 187.989 246.059 187.628 246.425C187.157 246.902 187.041 249.303 187.347 249.887C187.724 250.603 190.862 252.673 190.341 253.305C190.085 253.614 189.702 253.477 189.358 253.699Z" fill="black" stroke="black"/>
<path data-testid="fly-73" d="M80.7466 219.964C80.3096 220.246 80.2716 220.616 79.858 220.928C79.6527 221.083 79.4924 221.113 79.2967 221.279C78.9011 221.613 78.7958 221.912 78.5952 222.374C78.3428 222.955 77.9934 223.379 78.2678 223.952C78.4805 224.396 78.8192 224.55 79.2967 224.741C79.9687 225.009 80.4508 224.873 81.1675 224.741C81.9698 224.592 82.4717 224.459 83.085 223.952C83.4658 223.637 83.6356 223.405 83.8801 222.988C84.3045 222.264 84.7219 221.279 84.7219 221.279C84.9448 221.652 84.6162 221.958 84.7219 222.374C84.8651 222.937 85.1357 223.211 85.5528 223.634L85.5638 223.645C86.1489 224.238 86.573 224.748 87.4345 224.741C88.1533 224.734 90.8617 224.857 91.2696 224.302C91.5787 223.882 90.6535 223.234 90.6148 222.725C90.569 222.121 89.2074 221.649 88.6973 221.279C88.2908 220.983 87.8682 221.187 87.4345 220.928C86.9078 220.613 86.4991 219.569 86.4991 219.569C86.4991 219.569 87.0585 219.361 87.4345 219.263C87.9474 219.129 88.4117 219.508 88.6973 219.087C88.9618 218.697 88.8672 218.338 88.6973 217.904C88.5751 217.592 88.4528 217.418 88.1828 217.203C87.9341 217.004 87.7489 216.936 87.4345 216.852L87.4244 216.85C86.9725 216.73 86.6317 216.64 86.2185 216.852C85.7737 217.081 86.2763 217.646 85.9847 218.036C85.7978 218.285 85.7502 218.494 85.4702 218.649C85.0772 218.867 84.3077 218.668 83.8801 218.518C83.2335 218.291 83.2031 215.854 82.6641 215.45C82.1153 215.039 82.104 212.837 81.4013 212.821C80.8696 212.809 79.377 212.323 79.0161 212.689C78.5452 213.167 78.429 215.568 78.7355 216.151C79.1118 216.868 82.2497 218.938 81.7287 219.569C81.4736 219.879 81.09 219.742 80.7466 219.964Z" fill="black" stroke="black"/>
<path data-testid="fly-79" d="M93.9117 78.4393C93.4747 78.7219 93.4367 79.0916 93.023 79.4034C92.8178 79.5581 92.6575 79.5888 92.4618 79.754C92.0662 80.088 91.9609 80.3874 91.7603 80.8496C91.5079 81.431 91.1585 81.8546 91.4329 82.4272C91.6456 82.871 91.9843 83.0252 92.4618 83.216C93.1338 83.4846 93.6158 83.3487 94.3326 83.216C95.1349 83.0675 95.6368 82.9341 96.2501 82.4272C96.6309 82.1124 96.8007 81.8801 97.0452 81.4631C97.4696 80.739 97.887 79.754 97.887 79.754C98.1098 80.1274 97.7813 80.4334 97.887 80.8496C98.0302 81.4129 98.3008 81.6869 98.7179 82.1094L98.7289 82.1204C99.314 82.713 99.7381 83.2237 100.6 83.216C101.318 83.2096 104.027 83.3324 104.435 82.7778C104.744 82.3574 103.819 81.7094 103.78 81.2002C103.734 80.5969 102.372 80.1246 101.862 79.754C101.456 79.4587 101.033 79.6626 100.6 79.4034C100.073 79.0886 99.6642 78.0449 99.6642 78.0449C99.6642 78.0449 100.224 77.8365 100.6 77.7381C101.112 77.604 101.577 77.984 101.862 77.5629C102.127 77.1729 102.032 76.8134 101.862 76.3796C101.74 76.0677 101.618 75.8939 101.348 75.6785C101.099 75.48 100.914 75.4111 100.6 75.3279L100.589 75.3252C100.138 75.2055 99.7967 75.1152 99.3836 75.3279C98.9388 75.5568 99.4414 76.1219 99.1498 76.5111C98.9629 76.7605 98.9152 76.9696 98.6353 77.1246C98.2423 77.3424 97.4728 77.1431 97.0452 76.9932C96.3985 76.7664 96.3682 74.3298 95.8292 73.9255C95.2804 73.514 95.2691 71.3121 94.5664 71.2962C94.0347 71.2841 92.5421 70.7986 92.1812 71.1647C91.7103 71.6424 91.5941 74.0432 91.9006 74.6267C92.2768 75.343 95.4148 77.4132 94.8938 78.0449C94.6386 78.3543 94.2551 78.2172 93.9117 78.4393Z" fill="black" stroke="black"/>
<path data-testid="fly-45" d="M125.179 58.6917C124.742 58.9743 124.704 59.344 124.29 59.6558C124.085 59.8105 123.925 59.8412 123.729 60.0064C123.333 60.3404 123.228 60.6398 123.027 61.102C122.775 61.6834 122.426 62.107 122.7 62.6796C122.913 63.1234 123.251 63.2776 123.729 63.4684C124.401 63.737 124.883 63.6011 125.6 63.4684C126.402 63.3199 126.904 63.1865 127.517 62.6796C127.898 62.3648 128.068 62.1325 128.312 61.7155C128.737 60.9915 129.154 60.0064 129.154 60.0064C129.377 60.3799 129.048 60.6858 129.154 61.102C129.297 61.6653 129.568 61.9393 129.985 62.3618L129.996 62.3728C130.581 62.9654 131.005 63.4761 131.867 63.4684C132.585 63.462 135.294 63.5848 135.702 63.0302C136.011 62.6098 135.086 61.9618 135.047 61.4526C135.001 60.8493 133.64 60.377 133.129 60.0064C132.723 59.7111 132.3 59.915 131.867 59.6558C131.34 59.341 130.931 58.2973 130.931 58.2973C130.931 58.2973 131.491 58.0889 131.867 57.9906C132.38 57.8564 132.844 58.2364 133.129 57.8153C133.394 57.4253 133.299 57.0658 133.129 56.632C133.007 56.3201 132.885 56.1463 132.615 55.9309C132.366 55.7324 132.181 55.6636 131.867 55.5803L131.856 55.5776C131.405 55.4579 131.064 55.3677 130.651 55.5803C130.206 55.8092 130.708 56.3743 130.417 56.7635C130.23 57.0129 130.182 57.222 129.902 57.377C129.509 57.5948 128.74 57.3955 128.312 57.2456C127.666 57.0188 127.635 54.5822 127.096 54.178C126.547 53.7664 126.536 51.5645 125.833 51.5486C125.302 51.5365 123.809 51.051 123.448 51.4171C122.977 51.8949 122.861 54.2957 123.168 54.8791C123.544 55.5954 126.682 57.6656 126.161 58.2973C125.906 58.6067 125.522 58.4696 125.179 58.6917Z" fill="black" stroke="black"/>
<path data-testid="fly-41" d="M242.019 134.391C241.582 134.673 241.544 135.043 241.13 135.355C240.925 135.51 240.765 135.54 240.569 135.706C240.173 136.04 240.068 136.339 239.867 136.801C239.615 137.382 239.265 137.806 239.54 138.379C239.753 138.823 240.091 138.977 240.569 139.168C241.241 139.436 241.723 139.3 242.44 139.168C243.242 139.019 243.744 138.886 244.357 138.379C244.738 138.064 244.908 137.832 245.152 137.415C245.577 136.691 245.994 135.706 245.994 135.706C246.217 136.079 245.888 136.385 245.994 136.801C246.137 137.364 246.408 137.638 246.825 138.061L246.836 138.072C247.421 138.665 247.845 139.175 248.707 139.168C249.425 139.161 252.134 139.284 252.542 138.729C252.851 138.309 251.926 137.661 251.887 137.152C251.841 136.548 250.479 136.076 249.969 135.706C249.563 135.41 249.14 135.614 248.707 135.355C248.18 135.04 247.771 133.996 247.771 133.996C247.771 133.996 248.331 133.788 248.707 133.69C249.219 133.556 249.684 133.935 249.969 133.514C250.234 133.124 250.139 132.765 249.969 132.331C249.847 132.019 249.725 131.845 249.455 131.63C249.206 131.431 249.021 131.363 248.707 131.279L248.696 131.277C248.245 131.157 247.904 131.067 247.491 131.279C247.046 131.508 247.548 132.073 247.257 132.463C247.07 132.712 247.022 132.921 246.742 133.076C246.349 133.294 245.58 133.095 245.152 132.945C244.506 132.718 244.475 130.281 243.936 129.877C243.387 129.466 243.376 127.264 242.673 127.248C242.142 127.236 240.649 126.75 240.288 127.116C239.817 127.594 239.701 129.995 240.008 130.578C240.384 131.295 243.522 133.365 243.001 133.996C242.746 134.306 242.362 134.169 242.019 134.391Z" fill="black" stroke="black"/>
<path data-testid="fly-40" d="M278.223 97.3641C277.786 97.6467 277.748 98.0164 277.334 98.3282C277.129 98.4829 276.968 98.5136 276.773 98.6788C276.377 99.0128 276.272 99.3122 276.071 99.7744C275.819 100.356 275.469 100.779 275.744 101.352C275.957 101.796 276.295 101.95 276.773 102.141C277.445 102.409 277.927 102.273 278.644 102.141C279.446 101.992 279.948 101.859 280.561 101.352C280.942 101.037 281.112 100.805 281.356 100.388C281.781 99.6638 282.198 98.6788 282.198 98.6788C282.421 99.0522 282.092 99.3582 282.198 99.7744C282.341 100.338 282.612 100.612 283.029 101.034L283.04 101.045C283.625 101.638 284.049 102.148 284.911 102.141C285.629 102.134 288.338 102.257 288.746 101.703C289.055 101.282 288.13 100.634 288.091 100.125C288.045 99.5217 286.683 99.0494 286.173 98.6788C285.767 98.3835 285.344 98.5874 284.911 98.3282C284.384 98.0134 283.975 96.9697 283.975 96.9697C283.975 96.9697 284.535 96.7613 284.911 96.663C285.423 96.5288 285.888 96.9088 286.173 96.4877C286.438 96.0977 286.343 95.7382 286.173 95.3044C286.051 94.9925 285.929 94.8187 285.659 94.6033C285.41 94.4048 285.225 94.3359 284.911 94.2527L284.9 94.25C284.449 94.1303 284.108 94.0401 283.695 94.2527C283.25 94.4816 283.752 95.0467 283.461 95.4359C283.274 95.6853 283.226 95.8944 282.946 96.0494C282.553 96.2672 281.784 96.0679 281.356 95.918C280.71 95.6912 280.679 93.2546 280.14 92.8504C279.591 92.4388 279.58 90.2369 278.877 90.221C278.346 90.2089 276.853 89.7234 276.492 90.0895C276.021 90.5672 275.905 92.968 276.212 93.5515C276.588 94.2678 279.726 96.338 279.205 96.9697C278.95 97.2791 278.566 97.142 278.223 97.3641Z" fill="black" stroke="black"/>
</g>
<g id="Phone">
<g id="Rectangle 2" filter="url(#filter1_di_185_272)">
<rect x="348.558" y="110.004" width="33.4562" height="57.952" rx="5" transform="rotate(-12.9223 348.558 110.004)" fill="#330001"/>
<rect x="347.36" y="109.253" width="35.4562" height="59.952" rx="6" transform="rotate(-12.9223 347.36 109.253)" stroke="black" stroke-width="2"/>
</g>
<g id="INSEKT STOP">
<path d="M358.687 141.795L360.16 147.415L359.418 147.61L357.945 141.99L358.687 141.795Z" fill="#FF47F9"/>
<path d="M365.034 140.133L366.506 145.753L365.788 145.941L361.293 142.403L361.233 142.419L362.389 146.831L361.647 147.026L360.175 141.406L360.893 141.217L365.403 144.763L365.463 144.748L364.304 140.324L365.034 140.133Z" fill="#FF47F9"/>
<path d="M370.238 140.271C370.129 140.003 369.927 139.825 369.631 139.738C369.336 139.651 369.002 139.656 368.631 139.754C368.36 139.825 368.133 139.927 367.951 140.061C367.77 140.194 367.642 140.346 367.565 140.517C367.49 140.687 367.476 140.862 367.523 141.041C367.563 141.191 367.635 141.31 367.741 141.397C367.849 141.482 367.974 141.545 368.116 141.584C368.258 141.621 368.403 141.644 368.551 141.655C368.698 141.663 368.832 141.666 368.953 141.664L369.615 141.654C369.785 141.651 369.976 141.657 370.189 141.674C370.405 141.69 370.617 141.733 370.827 141.803C371.039 141.871 371.227 141.98 371.393 142.13C371.558 142.28 371.675 142.487 371.744 142.751C371.823 143.054 371.808 143.351 371.699 143.642C371.592 143.932 371.392 144.193 371.098 144.424C370.807 144.655 370.426 144.832 369.955 144.955C369.517 145.07 369.12 145.105 368.764 145.059C368.411 145.013 368.113 144.897 367.868 144.713C367.626 144.528 367.452 144.285 367.348 143.984L368.114 143.784C368.189 143.991 368.313 144.146 368.485 144.249C368.659 144.35 368.859 144.407 369.086 144.42C369.315 144.431 369.551 144.404 369.794 144.34C370.078 144.266 370.321 144.158 370.524 144.014C370.727 143.869 370.874 143.704 370.966 143.517C371.058 143.329 371.077 143.133 371.023 142.928C370.974 142.741 370.877 142.604 370.733 142.517C370.589 142.43 370.414 142.374 370.209 142.349C370.005 142.324 369.788 142.313 369.558 142.314L368.752 142.314C368.24 142.313 367.814 142.233 367.474 142.072C367.133 141.91 366.913 141.641 366.814 141.262C366.732 140.947 366.752 140.649 366.877 140.366C367.002 140.081 367.206 139.832 367.487 139.619C367.769 139.405 368.106 139.246 368.497 139.144C368.892 139.04 369.26 139.013 369.601 139.063C369.942 139.11 370.231 139.222 370.469 139.398C370.709 139.574 370.871 139.802 370.956 140.083L370.238 140.271Z" fill="#FF47F9"/>
<path d="M373.363 143.957L371.891 138.337L375.589 137.368L375.747 137.972L372.791 138.746L373.289 140.645L376.053 139.921L376.211 140.525L373.447 141.249L373.947 143.159L376.951 142.372L377.109 142.976L373.363 143.957Z" fill="#FF47F9"/>
<path d="M378.399 142.638L376.927 137.018L377.669 136.823L378.399 139.612L378.471 139.593L380.493 136.084L381.462 135.83L379.553 139.039L382.934 141.45L382.037 141.685L379.222 139.63L378.663 140.621L379.141 142.444L378.399 142.638Z" fill="#FF47F9"/>
<path d="M382.246 136.27L382.087 135.666L386.683 134.462L386.841 135.066L384.914 135.571L386.228 140.587L385.486 140.781L384.172 135.765L382.246 136.27Z" fill="#FF47F9"/>
<path d="M367.992 151.182C367.883 150.913 367.681 150.736 367.385 150.649C367.09 150.562 366.756 150.567 366.385 150.664C366.114 150.735 365.887 150.838 365.705 150.972C365.525 151.105 365.396 151.257 365.319 151.428C365.244 151.598 365.231 151.772 365.277 151.952C365.317 152.102 365.389 152.22 365.496 152.308C365.603 152.393 365.728 152.455 365.87 152.494C366.012 152.531 366.157 152.555 366.305 152.565C366.452 152.574 366.586 152.577 366.707 152.574L367.369 152.565C367.539 152.562 367.73 152.568 367.943 152.585C368.159 152.601 368.371 152.644 368.582 152.714C368.793 152.781 368.982 152.89 369.147 153.041C369.312 153.191 369.429 153.398 369.498 153.661C369.578 153.965 369.563 154.262 369.453 154.553C369.346 154.843 369.146 155.104 368.852 155.335C368.561 155.566 368.18 155.743 367.71 155.866C367.271 155.981 366.874 156.015 366.519 155.97C366.165 155.923 365.867 155.808 365.622 155.624C365.38 155.439 365.207 155.196 365.102 154.895L365.868 154.694C365.944 154.901 366.067 155.057 366.239 155.16C366.413 155.261 366.613 155.318 366.84 155.331C367.069 155.342 367.305 155.315 367.549 155.251C367.832 155.177 368.075 155.068 368.278 154.925C368.481 154.78 368.629 154.614 368.72 154.428C368.812 154.24 368.831 154.043 368.777 153.838C368.728 153.652 368.632 153.515 368.487 153.428C368.343 153.34 368.168 153.284 367.964 153.26C367.759 153.235 367.542 153.224 367.312 153.225L366.506 153.225C365.994 153.224 365.568 153.143 365.228 152.982C364.887 152.821 364.667 152.551 364.568 152.173C364.486 151.858 364.507 151.559 364.631 151.277C364.756 150.991 364.96 150.743 365.241 150.53C365.523 150.315 365.86 150.157 366.251 150.054C366.646 149.951 367.014 149.924 367.355 149.973C367.696 150.021 367.985 150.133 368.223 150.309C368.463 150.485 368.625 150.713 368.71 150.994L367.992 151.182Z" fill="#FF47F9"/>
<path d="M369.468 149.939L369.31 149.335L373.906 148.131L374.064 148.735L372.137 149.24L373.451 154.256L372.709 154.451L371.395 149.434L369.468 149.939Z" fill="#FF47F9"/>
<path d="M380.702 149.354C380.857 149.947 380.875 150.49 380.754 150.983C380.634 151.476 380.401 151.892 380.056 152.233C379.71 152.574 379.276 152.813 378.753 152.95C378.231 153.086 377.735 153.091 377.267 152.964C376.799 152.836 376.392 152.587 376.045 152.216C375.699 151.846 375.448 151.364 375.293 150.771C375.137 150.178 375.12 149.636 375.24 149.143C375.36 148.65 375.593 148.233 375.939 147.892C376.284 147.551 376.718 147.313 377.241 147.176C377.764 147.039 378.259 147.034 378.727 147.162C379.195 147.289 379.603 147.538 379.949 147.909C380.296 148.28 380.547 148.761 380.702 149.354ZM379.984 149.542C379.856 149.056 379.66 148.668 379.395 148.38C379.132 148.091 378.827 147.9 378.481 147.807C378.136 147.713 377.779 147.715 377.408 147.812C377.037 147.91 376.723 148.084 376.467 148.334C376.213 148.585 376.041 148.901 375.951 149.282C375.863 149.663 375.883 150.096 376.011 150.583C376.138 151.07 376.333 151.457 376.597 151.746C376.862 152.035 377.167 152.225 377.511 152.319C377.857 152.412 378.216 152.41 378.587 152.313C378.958 152.216 379.27 152.042 379.524 151.792C379.78 151.541 379.952 151.225 380.04 150.844C380.13 150.463 380.111 150.029 379.984 149.542Z" fill="#FF47F9"/>
<path d="M382.686 151.837L381.213 146.217L383.284 145.675C383.764 145.549 384.178 145.526 384.525 145.605C384.873 145.682 385.157 145.835 385.375 146.066C385.593 146.296 385.745 146.577 385.832 146.908C385.919 147.239 385.924 147.559 385.847 147.869C385.772 148.178 385.603 148.452 385.34 148.693C385.077 148.933 384.707 149.114 384.23 149.239L382.746 149.628L382.588 149.024L384.048 148.642C384.377 148.556 384.628 148.434 384.8 148.278C384.972 148.121 385.08 147.943 385.123 147.742C385.168 147.538 385.161 147.324 385.102 147.099C385.043 146.874 384.944 146.685 384.806 146.531C384.67 146.377 384.488 146.276 384.26 146.229C384.032 146.179 383.751 146.198 383.418 146.285L382.114 146.627L383.428 151.643L382.686 151.837Z" fill="#FF47F9"/>
</g>
<g id="phone">
<path d="M372.119 124.738C369.655 124.386 369.303 128.611 369.303 128.611C369.303 128.611 365.237 123.237 364.383 121.57C363.679 120.194 363.669 117.697 363.669 117.697C363.669 117.697 365.644 117.697 366.486 117.16C367.114 116.76 368.549 115.941 368.246 115.232C367.784 114.15 367.712 114.012 366.962 112.92C366.266 111.908 365.032 110.404 363.827 110.641C362.953 110.813 362.587 111.295 361.91 111.871C361.208 112.469 360.631 112.762 360.342 113.638C359.894 114.997 359.985 115.783 360.067 117.16C360.275 120.662 360.626 121.351 362.153 124.348L362.182 124.405C363.818 127.616 367.984 132.02 369.895 132.686C371.805 133.352 372.042 132.894 373.136 132.095C373.941 131.507 374.536 130.982 375.131 130.299C375.699 129.649 375.982 129.04 375.868 128.184C375.767 127.416 375.424 127.453 374.936 126.851C374.42 126.214 372.931 124.854 372.119 124.738Z" fill="#FF47F9"/>
<path d="M368.804 128.569C369.136 128.597 369.469 128.625 369.801 128.652C369.923 127.581 370.23 126.368 370.884 125.654C371.21 125.309 371.595 125.166 372.048 125.233C372.818 125.445 373.868 126.385 374.547 127.165C374.742 127.416 375.03 127.653 375.179 127.794C375.308 127.922 375.335 128.007 375.373 128.249C375.471 128.898 375.235 129.43 374.754 129.971C374.193 130.621 373.551 131.176 372.841 131.692C372.338 132.055 371.914 132.452 371.546 132.491C371.149 132.556 370.59 132.397 370.059 132.213C367.042 130.557 364.401 127.329 362.627 124.178C361.367 121.908 360.6 119.711 360.566 117.131C360.523 116.377 360.455 115.658 360.54 114.987C360.588 114.588 360.686 114.193 360.817 113.795C360.992 113.165 361.562 112.813 362.234 112.252C362.869 111.702 363.294 111.228 363.924 111.132C364.797 110.978 365.847 112.18 366.55 113.203C367.076 113.946 367.451 114.587 367.787 115.429C367.786 115.421 367.804 115.46 367.71 115.597C367.623 115.722 367.477 115.862 367.318 115.992C366.995 116.256 366.619 116.486 366.217 116.739C365.606 117.088 364.551 117.177 363.67 117.197L363.167 117.197L363.169 117.699C363.221 119.08 363.302 120.425 363.938 121.797C364.802 123.341 365.795 124.656 366.774 126.03C367.476 126.999 368.186 127.96 368.904 128.913C369.17 128.711 369.435 128.51 369.701 128.309C368.99 127.366 368.281 126.406 367.584 125.444C366.621 124.096 365.596 122.715 364.829 121.342C364.335 120.308 364.205 118.94 364.169 117.695L363.669 118.197C364.695 118.15 365.659 118.167 366.755 117.582C367.135 117.342 367.555 117.089 367.951 116.766C368.15 116.602 368.349 116.424 368.529 116.17C368.7 115.939 368.904 115.482 368.706 115.036C368.393 114.227 367.879 113.335 367.374 112.637C366.542 111.584 365.733 110.032 363.731 110.151C362.786 110.296 362.106 111.051 361.586 111.491C361.055 111.948 360.143 112.509 359.867 113.481C359.721 113.924 359.604 114.389 359.547 114.867C359.448 115.681 359.528 116.455 359.568 117.19C359.568 119.743 360.5 122.463 361.736 124.632C363.721 128.052 366.056 131.126 369.73 133.158C370.316 133.347 370.916 133.581 371.704 133.479C372.534 133.329 372.974 132.803 373.431 132.499C374.173 131.961 374.897 131.337 375.508 130.628C376.07 130.04 376.533 129.024 376.364 128.118C376.336 127.81 376.17 127.335 375.881 127.082C375.625 126.842 375.475 126.726 375.324 126.536C374.425 125.581 373.716 124.714 372.19 124.243C371.472 124.111 370.626 124.434 370.159 124.966C369.211 126.052 368.967 127.309 368.804 128.569ZM369.801 128.652L368.804 128.569L369.701 128.309L368.904 128.913L369.692 129.955L369.801 128.652Z" fill="#FF47F9"/>
</g>
</g>
</g>
</g>
<defs>
<filter id="filter0_f_185_272" x="197.956" y="152.976" width="14.5197" height="8.03041" filterUnits="userSpaceOnUse" color-interpolation-filters="sRGB">
<feFlood flood-opacity="0" result="BackgroundImageFix"/>
<feBlend mode="normal" in="SourceGraphic" in2="BackgroundImageFix" result="shape"/>
<feGaussianBlur stdDeviation="1.2" result="effect1_foregroundBlur_185_272"/>
</filter>
<filter id="filter1_di_185_272" x="343.548" y="101.513" width="55.5887" height="73.9861" filterUnits="userSpaceOnUse" color-interpolation-filters="sRGB">
<feFlood flood-opacity="0" result="BackgroundImageFix"/>
<feColorMatrix in="SourceAlpha" type="matrix" values="0 0 0 0 0 0 0 0 0 0 0 0 0 0 0 0 0 0 127 0" result="hardAlpha"/>
<feOffset dy="4"/>
<feGaussianBlur stdDeviation="2"/>
<feComposite in2="hardAlpha" operator="out"/>
<feColorMatrix type="matrix" values="0 0 0 0 0 0 0 0 0 0 0 0 0 0 0 0 0 0 0.25 0"/>
<feBlend mode="normal" in2="BackgroundImageFix" result="effect1_dropShadow_185_272"/>
<feBlend mode="normal" in="SourceGraphic" in2="effect1_dropShadow_185_272" result="shape"/>
<feColorMatrix in="SourceAlpha" type="matrix" values="0 0 0 0 0 0 0 0 0 0 0 0 0 0 0 0 0 0 127 0" result="hardAlpha"/>
<feOffset/>
<feGaussianBlur stdDeviation="2"/>
<feComposite in2="hardAlpha" operator="arithmetic" k2="-1" k3="1"/>
<feColorMatrix type="matrix" values="0 0 0 0 0 0 0 0 0 0 0 0 0 0 0 0 0 0 0.25 0"/>
<feBlend mode="normal" in2="shape" result="effect2_innerShadow_185_272"/>
</filter>
<linearGradient id="paint0_linear_185_272" x1="201.5" y1="0" x2="201.5" y2="543" gradientUnits="userSpaceOnUse">
<stop stop-color="#FFFFF0"/>
<stop offset="1" stop-color="#330001"/>
</linearGradient>
<linearGradient id="paint1_linear_185_272" x1="157.981" y1="94.1611" x2="116.429" y2="162.044" gradientUnits="userSpaceOnUse">
<stop stop-color="#990003"/>
<stop offset="1" stop-color="#330001"/>
</linearGradient>
<linearGradient id="paint2_linear_185_272" x1="206.47" y1="142.707" x2="206.116" y2="151.758" gradientUnits="userSpaceOnUse">
<stop stop-color="#FF0004"/>
<stop offset="1" stop-color="#990003"/>
</linearGradient>
<linearGradient id="paint3_linear_185_272" x1="206.938" y1="492.722" x2="176.7" y2="541.268" gradientUnits="userSpaceOnUse">
<stop stop-color="#65D1C1"/>
<stop offset="1" stop-color="#336B62"/>
</linearGradient>
</defs>
</svg>
