<svg viewBox="0 0 37 37" fill="none" xmlns="http://www.w3.org/2000/svg">
<path d="M10.1667 26.4167V12.25C10.1667 11.7898 9.79357 11.4167 9.33333 11.4167C8.8731 11.4167 8.5 11.7898 8.5 12.25V26.4167C8.5 28.2576 9.99238 29.75 11.8333 29.75H22.6667C23.1269 29.75 23.5 29.3769 23.5 28.9167C23.5 28.4564 23.1269 28.0833 22.6667 28.0833H11.8333C10.9129 28.0833 10.1667 27.3371 10.1667 26.4167Z" fill="#FF47F9"/>
<path fill-rule="evenodd" clip-rule="evenodd" d="M11.8333 9.75C11.8333 8.36929 12.9526 7.25 14.3333 7.25H26C27.3807 7.25 28.5 8.36929 28.5 9.75V23.9167C28.5 25.2974 27.3807 26.4167 26 26.4167H14.3333C12.9526 26.4167 11.8333 25.2974 11.8333 23.9167V9.75ZM15.1388 16.3948C14.9586 16.0187 15.2328 15.5833 15.6498 15.5833C15.8644 15.5833 16.0606 15.7046 16.1566 15.8966L17.5521 18.6874C17.8105 19.2042 18.5036 19.3076 18.9016 18.8887L25.3453 12.1058C25.6789 11.7546 26.2533 11.808 26.5164 12.2147C26.7027 12.5027 26.6695 12.8805 26.4358 13.1315L18.7776 21.3554C18.3773 21.7852 17.67 21.6772 17.4162 21.1475L15.1388 16.3948Z" fill="#FF47F9"/>
</svg>
