<svg viewBox="0 0 36 37" fill="none" xmlns="http://www.w3.org/2000/svg">
<path d="M11.5 9.6087C11.5 8.16795 12.6417 7 14.05 7H25.95C27.3583 7 28.5 8.16795 28.5 9.6087V24.3913C28.5 25.832 27.3583 27 25.95 27H14.05C12.6417 27 11.5 25.832 11.5 24.3913V9.6087Z" fill="#FF47F9"/>
<path d="M10.1667 26.5455V11.8636C10.1667 11.3867 9.79357 11 9.33333 11C8.8731 11 8.5 11.3867 8.5 11.8636V26.5455C8.5 28.4533 9.99238 30 11.8333 30H22.6667C23.1269 30 23.5 29.6133 23.5 29.1364C23.5 28.6594 23.1269 28.2727 22.6667 28.2727H11.8333C10.9129 28.2727 10.1667 27.4994 10.1667 26.5455Z" fill="#FF47F9"/>
</svg>
