<svg viewBox="0 0 38 37" fill="none" xmlns="http://www.w3.org/2000/svg">
<path d="M18.6718 11.7471L9.76811 19.4848C9.60963 18.2304 15.5562 9.39069 15.16 8.44107C14.771 7.49145 14.2956 6.69423 13.7337 6.04943C13.179 5.3929 12.5631 4.90051 11.886 4.57224C11.2088 4.24398 10.5029 4.07985 9.76811 4.07985C8.42824 4.07985 7.21443 4.63086 6.12668 5.73289C5.04614 6.83492 4.1853 8.45865 3.54418 10.6041C2.91026 12.7495 2.5933 15.3815 2.5933 18.5C2.5933 21.6185 2.91026 24.2505 3.54418 26.3959C4.1853 28.5414 5.04614 30.1651 6.12668 31.2671C7.21443 32.3691 8.42824 32.9202 9.76811 32.9202C10.5029 32.9202 11.2088 32.756 11.886 32.4278C12.5631 32.0995 13.179 31.613 13.7337 30.9682C14.2956 30.3116 14.771 29.5086 15.16 28.5589C15.5562 27.5976 9.60963 20.7275 9.76811 19.4848L18.6718 25.2529C18.4701 27.0935 18.1027 28.7407 17.5696 30.1944C17.0366 31.6481 16.3738 32.885 15.5814 33.9049C14.789 34.9132 13.8994 35.6811 12.9125 36.2087C11.9328 36.7362 10.8847 37 9.76811 37C7.88076 37 6.20232 36.2497 4.73278 34.7491C3.26324 33.2484 2.10706 31.1147 1.26424 28.3479C0.421412 25.5811 0 22.2985 0 18.5C0 14.7015 0.421412 11.4189 1.26424 8.65209C2.10706 5.8853 3.26324 3.75159 4.73278 2.25095C6.20232 0.750317 7.88076 0 9.76811 0C10.8847 0 11.9328 0.263783 12.9125 0.79135C13.8994 1.31892 14.789 2.09268 15.5814 3.11264C16.3738 4.12088 17.0366 5.35187 17.5696 6.80561C18.1027 8.24762 18.4701 9.8948 18.6718 11.7471Z" fill="#323232"/>
<path d="M23.0021 36.5076V0.492396H30.4794C32.2155 0.492396 33.6346 1.00238 34.7368 2.02234C35.8461 3.03058 36.6673 4.39639 37.2004 6.11977C37.7335 7.84316 38 9.76584 38 11.8878C38 14.0098 37.7335 15.9384 37.2004 17.6735C36.6745 19.4086 35.8605 20.792 34.7584 21.8237C33.6562 22.8436 32.2443 23.3536 30.5226 23.3536H25.1631V19.4848H29.0882L30.393 10.6041C31.4654 11.7471 32.5793 19.1507 33.2996 18.4824C34.02 17.8142 34.5423 16.9114 34.8664 15.7742C35.1978 14.6253 35.3635 13.3298 35.3635 11.8878C35.3635 10.4458 35.1978 9.15621 34.8664 8.01901C34.5423 6.88181 34.0164 5.99081 33.2888 5.34601C32.5613 4.68948 31.596 4.36122 30.393 4.36122H25.6818L30.393 10.6041H25.6818V36.5076H23.0021Z" fill="#323232"/>
</svg>
