<svg viewBox="0 0 37 37" fill="none" xmlns="http://www.w3.org/2000/svg">
<path fill-rule="evenodd" clip-rule="evenodd" d="M18.5 32C25.9559 32 32 25.9558 32 18.5C32 11.0442 25.9559 5 18.5 5C11.0441 5 5 11.0442 5 18.5C5 25.9558 11.0441 32 18.5 32ZM22.0502 19.0971L23.0262 16.3503H19.4417V14.2078C19.4417 13.164 19.6678 12.372 20.1204 11.8318C20.5818 11.2916 21.3315 11.0215 22.3696 11.0215C22.8221 11.0215 23.1859 11.0627 23.461 11.1451C23.6764 11.2076 23.8561 11.2623 24 11.309L23.9532 8.19574L23.9401 8.19229C23.4521 8.0641 22.8221 8.00002 22.0502 8.00002C21.0742 8.00002 20.147 8.20145 19.2686 8.60431C18.3902 9.00719 17.676 9.61148 17.1259 10.4172C16.5757 11.2229 16.3007 12.2301 16.3007 13.4387V16.3503H13V19.0971H16.3007V31H19.4417V19.0971H22.0502Z" fill="#FF47F9"/>
</svg>
