<svg viewBox="0 0 408 236" fill="none" xmlns="http://www.w3.org/2000/svg">
<g id="crack">
<g clip-path="url(#paint0_diamond_43_58_clip_path)" data-figma-skip-parse="true"><g transform="matrix(0.265 0.11 -0.104504 0.25176 142.099 126)"><rect x="0" y="0" width="1004.56" height="804.417" fill="url(#paint0_diamond_43_58)" opacity="1" shape-rendering="crispEdges"/><rect x="0" y="0" width="1004.56" height="804.417" transform="scale(1 -1)" fill="url(#paint0_diamond_43_58)" opacity="1" shape-rendering="crispEdges"/><rect x="0" y="0" width="1004.56" height="804.417" transform="scale(-1 1)" fill="url(#paint0_diamond_43_58)" opacity="1" shape-rendering="crispEdges"/><rect x="0" y="0" width="1004.56" height="804.417" transform="scale(-1)" fill="url(#paint0_diamond_43_58)" opacity="1" shape-rendering="crispEdges"/></g></g><rect id="Rectangle 1" x="0" width="408" height="236" data-figma-gradient-fill="{&#34;type&#34;:&#34;GRADIENT_DIAMOND&#34;,&#34;stops&#34;:[{&#34;color&#34;:{&#34;r&#34;:0.0,&#34;g&#34;:0.0,&#34;b&#34;:0.0,&#34;a&#34;:1.0},&#34;position&#34;:0.087673805654048920},{&#34;color&#34;:{&#34;r&#34;:1.0,&#34;g&#34;:1.0,&#34;b&#34;:0.94117647409439087,&#34;a&#34;:1.0},&#34;position&#34;:1.0}],&#34;stopsVar&#34;:[{&#34;color&#34;:{&#34;r&#34;:0.0,&#34;g&#34;:0.0,&#34;b&#34;:0.0,&#34;a&#34;:1.0},&#34;position&#34;:0.087673805654048920},{&#34;color&#34;:{&#34;r&#34;:1.0,&#34;g&#34;:1.0,&#34;b&#34;:0.94117647409439087,&#34;a&#34;:1.0},&#34;position&#34;:1.0}],&#34;transform&#34;:{&#34;m00&#34;:530.0,&#34;m01&#34;:-209.00846862792969,&#34;m02&#34;:-18.397256851196289,&#34;m10&#34;:220.0,&#34;m11&#34;:503.52041625976562,&#34;m12&#34;:-235.76020812988281},&#34;opacity&#34;:1.0,&#34;blendMode&#34;:&#34;NORMAL&#34;,&#34;visible&#34;:true}"/>
<g id="forest-bg" opacity="0.64">
<rect x="5.09852" y="0" width="402" height="104" fill="url(#paint8_sky_43_58)"/>
<path d="M5.09852 136C45 112 87 114 126 123C171 133 215 137 261 125C311 112 358 111 407.099 126V236H5.09852V136Z" fill="url(#paint9_hills_far_43_58)"/>
<path d="M5.09852 169C45 149 83 147 121 157C166 169 210 176 253 168C303 159 356 152 407.099 164V236H5.09852V169Z" fill="url(#paint10_hills_mid_43_58)"/>
<path d="M5.09852 183L17 168L27 183L38 161L51 183L62 166L73 183L86 158L99 183L112 162L126 183L140 160L154 183L167 163L181 183L194 158L207 183L220 161L233 183L248 157L262 183L277 164L291 183L306 159L321 183L336 163L352 183L367 160L382 183L395 166L407.099 183V236H5.09852V183Z" fill="url(#paint11_tree_line_43_58)"/>
<path d="M5.09852 201C50 191 95 195 137 203C176 210 217 212 257 207C304 201 352 200 407.099 206V236H5.09852V201Z" fill="url(#paint12_meadow_43_58)"/>
</g>
<path id="bars2" d="M33.5985 1.5V234M79.5985 1.5V234M121.599 1.5L103.599 118L121.599 234M161.599 1.5L148.599 118L161.599 234M211.599 1.5L185.099 110L211.599 234M253.099 1.5L226.099 123.5L253.099 234M292.599 1.5V234M332.099 1.5V234M373.099 1.5V234M7.59853 36H407.599M7.59853 82.5H407.599M7.59853 123.5L211.599 152.5L407.599 123.5M7.59853 165.5H126.599L172.599 174.5L407.599 165.5M7.59853 205H407.599" stroke="url(#paint1_linear_43_58)"/>
<g data-testid="fly">
<path id="Vector 5" d="M157.917 76.1266C136.905 77.6972 117.077 83.2097 112.405 101.595C107.733 119.981 117.469 127.831 129.736 137.312C139.606 144.941 145.461 155.171 157.917 154.492C168.476 153.916 177.386 143.72 185.797 137.312C198.192 127.87 205.361 119.305 203.58 101.595C201.018 76.1266 157.917 76.1266 157.917 76.1266Z" fill="#B45AB2"/>
<path id="Vector 5 (Stroke)" d="M157.917 75.976V76.1267C157.917 75.976 157.917 75.976 157.918 75.976H157.949C157.97 75.9761 158.001 75.9764 158.042 75.9768C158.124 75.9776 158.246 75.979 158.405 75.9821C158.722 75.9884 159.188 76.0008 159.78 76.0257C160.966 76.0755 162.663 76.1752 164.706 76.3745C168.793 76.773 174.27 77.5703 179.829 79.1654C190.933 82.3515 202.439 88.7452 203.73 101.58C204.623 110.46 203.273 117.061 200.136 122.628C197.001 128.191 192.09 132.707 185.888 137.432C183.79 139.031 181.659 140.866 179.475 142.733C177.292 144.599 175.056 146.496 172.752 148.21C168.147 151.637 163.25 154.352 157.925 154.643C151.647 154.985 147.033 152.575 142.762 149.135C140.629 147.417 138.577 145.439 136.448 143.42C134.316 141.398 132.105 139.333 129.644 137.431C123.515 132.694 117.991 128.346 114.59 122.872C111.183 117.387 109.914 110.785 112.259 101.558C114.608 92.3118 120.771 86.306 128.969 82.4191C137.161 78.5346 147.393 76.762 157.906 75.9762L157.912 75.976H157.917ZM157.925 76.2774C147.426 77.0623 137.239 78.8313 129.098 82.6916C120.96 86.55 114.873 92.4933 112.551 101.633C110.224 110.791 111.488 117.307 114.847 122.714C118.213 128.132 123.69 132.449 129.828 137.193C132.302 139.105 134.524 141.18 136.655 143.201C138.789 145.224 140.83 147.192 142.951 148.9C147.189 152.313 151.731 154.679 157.909 154.342C163.143 154.056 167.981 151.385 172.572 147.968C174.867 146.261 177.096 144.37 179.279 142.504C181.461 140.639 183.599 138.797 185.706 137.192C191.899 132.474 196.77 127.987 199.873 122.48C202.974 116.977 204.318 110.441 203.43 101.61C202.159 88.977 190.833 82.6362 179.746 79.4551C174.21 77.8666 168.752 77.0721 164.677 76.6747C162.64 76.4761 160.949 76.3767 159.768 76.3271C159.177 76.3023 158.714 76.2897 158.399 76.2835C158.241 76.2804 158.12 76.279 158.039 76.2782C157.999 76.2779 157.968 76.2775 157.948 76.2774C157.938 76.2773 157.93 76.2774 157.925 76.2774Z" fill="black"/>
<path id="Ellipse 3" d="M153.396 98.28C153.396 106.187 148.268 112.597 141.943 112.597C135.617 112.597 130.489 106.187 130.489 98.28C130.489 90.373 135.617 83.9632 141.943 83.9632C148.268 83.9632 153.396 90.373 153.396 98.28Z" fill="#D9D9D9"/>
<path id="Ellipse 5" d="M161.835 97.9785C161.835 105.885 166.963 112.295 173.289 112.295C179.614 112.295 184.742 105.885 184.742 97.9785C184.742 90.0716 179.614 83.6618 173.289 83.6618C166.963 83.6618 161.835 90.0716 161.835 97.9785Z" fill="#D9D9D9"/>
<path id="Ellipse 4" d="M150.382 92.2518C150.382 96.996 147.481 100.842 143.902 100.842C140.323 100.842 137.422 96.996 137.422 92.2518C137.422 87.5077 140.323 83.6618 143.902 83.6618C147.481 83.6618 150.382 87.5077 150.382 92.2518Z" fill="black"/>
<path id="Ellipse 6" d="M167.261 104.007C167.261 108.751 170.162 112.597 173.741 112.597C177.32 112.597 180.221 108.751 180.221 104.007C180.221 99.2625 177.32 95.4166 173.741 95.4166C170.162 95.4166 167.261 99.2625 167.261 104.007Z" fill="black"/>
<g id="Mouth">
<path id="Vector 6" d="M151.158 124.016C146.998 125.151 141.943 130.099 141.943 130.099C141.943 130.099 142.642 135.42 144.884 137.653C147.832 140.591 151.116 139.883 155.275 140.008C160.071 140.152 162.846 139.353 167.333 137.653C170.568 136.428 172.605 135.85 175.176 133.533C177.292 131.625 178.904 130.436 179.489 127.646C179.78 126.259 182.482 122.25 182.482 122.25C182.482 122.25 176.992 122.361 175.176 122.25C173.037 122.119 172.077 123.573 169.98 124.016C166.346 124.783 164.184 124.016 160.471 124.016C156.834 124.016 154.667 123.059 151.158 124.016Z" fill="black"/>
<path id="Vector 6 (Stroke)" d="M184.502 123.611C183.99 124.427 183.465 125.302 182.995 126.143C182.76 126.565 182.533 126.988 182.341 127.385C182.244 127.583 182.156 127.777 182.09 127.942C182.057 128.022 182.03 128.098 182.013 128.151C181.997 128.2 181.992 128.239 182.009 128.175C181.528 131.559 178.564 134.096 176.969 135.523C174.958 137.476 172.032 138.853 169.754 139.645C169.256 139.831 168.771 140.007 168.292 140.185C164.47 141.702 159.556 142.814 155.207 142.266C152.101 141.92 146.773 142.271 143.992 138.548C143.086 137.436 142.683 136.253 142.373 135.1C141.95 133.432 141.79 131.769 141.793 130.119L141.776 130.061L141.837 129.991C142.924 128.775 144.096 127.629 145.347 126.556C146.977 125.187 148.701 123.867 150.904 123.084C154.17 121.858 157.69 122.713 160.471 122.485C163.927 122.31 166.913 122.873 169.568 122.066C170.148 121.907 170.654 121.595 171.546 121.072C172.392 120.55 173.919 119.948 175.31 120.044C177.515 120.046 180.05 119.916 182.433 119.815L187.068 119.622L184.502 123.611ZM175.041 124.456C174.568 124.404 174.276 124.439 173.507 124.801C172.773 125.152 171.64 125.758 170.392 125.966C166.771 126.678 163.366 125.671 160.471 125.547C157.027 125.385 154.251 124.274 151.412 124.948C149.578 125.322 147.712 126.321 145.969 127.402C144.642 128.236 143.344 129.161 142.115 130.152C142.595 131.664 143.2 133.154 143.945 134.477C144.468 135.399 145.098 136.27 145.775 136.759C148.287 138.812 151.341 137.876 155.343 137.75C159.29 137.673 162.539 136.655 166.374 135.122C166.878 134.927 167.374 134.742 167.859 134.561C170.187 133.717 171.799 132.971 173.382 131.543C175.455 129.737 176.62 128.812 176.969 127.117C177.259 126.001 177.535 125.617 177.816 125.054C177.898 124.903 177.98 124.755 178.063 124.609C177.086 124.578 176.088 124.531 175.041 124.456Z" fill="#D9D9D9"/>
<path id="Vector 7" d="M152.447 139.05C151.198 137.614 148.574 137.483 148.574 137.483L150.704 133.565C150.704 131.538 155.004 131.161 156.708 129.435C158.292 127.832 162.48 129.098 165.424 128.687C169.238 128.153 167.354 125.754 171.19 126.219C176.515 126.865 177.347 129.53 181.888 131.382C183.346 131.977 185.52 133.834 187.117 133.565C191.766 132.782 196.309 131.307 199.9 133.565L199.994 133.624C202.731 135.345 204.748 136.613 204.92 139.05C205.044 140.803 204.457 141.906 202.881 143.359C200.87 145.213 198.575 145.749 195.194 146.493C190.455 147.536 182.329 146.493 182.329 146.493L171.19 144.731C171.19 144.731 155.879 142.992 152.447 139.05Z" fill="#FF0004"/>
<path id="Vector 7 (Stroke)" d="M169.151 126.194C169.607 126.013 170.238 125.952 171.208 126.07C173.901 126.396 175.462 127.236 176.918 128.224C178.37 129.21 179.693 130.325 181.945 131.243C182.32 131.396 182.738 131.628 183.171 131.882C183.609 132.137 184.063 132.414 184.523 132.665C184.982 132.916 185.44 133.136 185.878 133.278C186.317 133.419 186.726 133.478 187.092 133.416C189.4 133.027 191.719 132.459 193.892 132.274C196.074 132.089 198.145 132.284 199.98 133.438L200.074 133.497C201.438 134.354 202.642 135.11 203.523 135.96C204.411 136.815 204.981 137.774 205.071 139.039C205.134 139.937 205.016 140.678 204.674 141.383C204.334 142.084 203.777 142.738 202.983 143.47C200.938 145.356 198.601 145.898 195.226 146.641C192.836 147.167 189.602 147.165 186.977 147.035C185.662 146.97 184.496 146.872 183.658 146.79C183.239 146.749 182.903 146.712 182.67 146.686C182.554 146.673 182.464 146.662 182.403 146.655C182.373 146.651 182.349 146.648 182.334 146.646C182.326 146.645 182.32 146.644 182.316 146.644C182.314 146.644 182.313 146.643 182.312 146.643C182.311 146.643 182.311 146.643 182.31 146.643H182.31L182.308 146.643L182.305 146.642L171.167 144.88C171.165 144.879 171.164 144.879 171.162 144.879C171.154 144.878 171.143 144.877 171.129 144.875C171.099 144.872 171.056 144.867 170.999 144.86C170.886 144.846 170.719 144.825 170.506 144.798C170.08 144.742 169.467 144.659 168.722 144.546C167.23 144.321 165.206 143.98 163.073 143.516C160.942 143.051 158.698 142.462 156.771 141.742C154.85 141.023 153.218 140.165 152.334 139.149C151.739 138.466 150.806 138.084 150.004 137.874C149.605 137.77 149.245 137.709 148.984 137.675C148.853 137.658 148.748 137.648 148.676 137.641C148.64 137.638 148.612 137.636 148.593 137.635C148.584 137.634 148.577 137.634 148.572 137.634C148.57 137.634 148.568 137.633 148.567 137.633C148.567 137.633 148.566 137.633 148.566 137.633L148.327 137.621L150.555 133.525C150.569 132.975 150.869 132.545 151.308 132.19C151.755 131.829 152.362 131.531 153.007 131.249C153.659 130.964 154.346 130.696 154.986 130.388C155.624 130.08 156.194 129.742 156.601 129.329C157.028 128.897 157.621 128.667 158.299 128.551C158.976 128.435 159.753 128.431 160.562 128.464C162.194 128.529 163.949 128.741 165.403 128.537C166.339 128.407 166.913 128.163 167.308 127.887C167.706 127.61 167.934 127.294 168.181 126.985C168.427 126.676 168.691 126.377 169.151 126.194ZM171.172 126.369C170.224 126.254 169.652 126.319 169.263 126.474C168.879 126.626 168.656 126.873 168.417 127.173C168.178 127.471 167.922 127.827 167.481 128.134C167.037 128.444 166.416 128.7 165.445 128.836C163.955 129.044 162.144 128.829 160.55 128.765C159.746 128.732 158.995 128.738 158.35 128.848C157.704 128.959 157.181 129.172 156.816 129.541C156.371 129.991 155.764 130.347 155.117 130.659C154.471 130.97 153.763 131.247 153.128 131.525C152.484 131.807 151.91 132.091 151.497 132.424C151.088 132.756 150.855 133.12 150.855 133.565V133.604L148.816 137.352C148.876 137.358 148.945 137.366 149.023 137.376C149.293 137.412 149.666 137.474 150.08 137.582C150.902 137.797 151.906 138.199 152.561 138.951C153.392 139.906 154.962 140.743 156.876 141.459C158.785 142.173 161.013 142.758 163.138 143.221C165.262 143.684 167.28 144.024 168.767 144.248C169.51 144.36 170.121 144.443 170.545 144.499C170.757 144.526 170.923 144.547 171.036 144.56C171.092 144.567 171.135 144.572 171.164 144.576C171.178 144.577 171.189 144.579 171.196 144.58C171.2 144.58 171.203 144.58 171.205 144.58C171.206 144.581 171.206 144.581 171.207 144.581H171.207L171.211 144.581L171.214 144.582L182.349 146.344C182.349 146.344 182.349 146.344 182.35 146.344C182.351 146.344 182.352 146.344 182.354 146.345C182.358 146.345 182.364 146.346 182.371 146.347C182.386 146.349 182.409 146.352 182.44 146.355C182.5 146.363 182.589 146.373 182.705 146.387C182.935 146.413 183.27 146.45 183.687 146.49C184.521 146.571 185.683 146.669 186.992 146.734C189.614 146.864 192.813 146.863 195.161 146.346C198.549 145.601 200.803 145.07 202.779 143.249C203.561 142.527 204.086 141.903 204.403 141.251C204.717 140.603 204.831 139.916 204.77 139.06C204.687 137.889 204.163 136.995 203.314 136.177C202.46 135.353 201.286 134.615 199.914 133.752L199.82 133.693C198.064 132.589 196.068 132.392 193.918 132.575C191.76 132.758 189.483 133.319 187.142 133.714C186.71 133.786 186.249 133.714 185.785 133.565C185.321 133.415 184.844 133.184 184.378 132.93C183.913 132.676 183.45 132.394 183.019 132.142C182.585 131.889 182.184 131.666 181.831 131.522C179.541 130.588 178.178 129.444 176.748 128.473C175.321 127.504 173.804 126.688 171.172 126.369Z" fill="#D9D9D9"/>
</g>
<path id="Vector 8" d="M149.524 113.273L159.997 111.276L163.519 112.774L155.597 117.149L150.855 119.769L154.14 114.511L149.397 117.13L149.524 113.273Z" fill="black"/>
<path id="Vector 8 (Stroke)" d="M163.175 112.791L159.981 111.432L149.671 113.398L149.557 116.87L154.575 114.098L151.29 119.356L163.175 112.791ZM150.419 120.181L153.704 114.924L149.238 117.39L149.373 113.268L149.377 113.147L149.496 113.125L159.969 111.127L160.014 111.119L160.057 111.137L163.862 112.756L150.419 120.181Z" fill="black"/>
<path id="Vector 11" d="M126.044 117.2L120.776 108.468L120.162 105.966L125.676 113.142L128.977 117.438L124.853 113.775L128.153 118.071L126.044 117.2Z" fill="black"/>
<path id="Vector 9" d="M138.477 132.037L135.161 129.626L136.668 136.709L142.395 141.833L138.477 132.037Z" fill="black"/>
<path id="Vector 9 (Stroke)" d="M138.565 131.915L138.6 131.941L138.616 131.981L142.535 141.777L142.294 141.945L136.531 136.789L136.521 136.741L134.932 129.273L138.565 131.915ZM136.805 136.63L142.016 141.292L138.353 132.134L135.39 129.979L136.805 136.63Z" fill="black"/>
<path id="Vector 10" d="M189.703 111.544L186.249 109.281L187.819 115.927L193.784 120.735L189.703 111.544Z" fill="black"/>
<path id="Vector 10 (Stroke)" d="M189.786 111.418L189.823 111.442L189.841 111.483L193.922 120.673L193.69 120.852L187.725 116.044L187.684 116.012L187.672 115.962L186.016 108.948L189.786 111.418ZM187.954 115.842L193.394 120.226L189.583 111.645L186.483 109.614L187.954 115.842Z" fill="black"/>
<path id="Ellipse 7" d="M175.7 102.198C175.7 103.28 174.958 104.157 174.042 104.157C173.127 104.157 172.385 103.28 172.385 102.198C172.385 101.116 173.127 100.239 174.042 100.239C174.958 100.239 175.7 101.116 175.7 102.198Z" fill="#D9D9D9"/>
<path id="Ellipse 8" d="M147.067 90.142C147.067 91.224 146.324 92.1011 145.409 92.1011C144.493 92.1011 143.751 91.224 143.751 90.142C143.751 89.06 144.493 88.1829 145.409 88.1829C146.324 88.1829 147.067 89.06 147.067 90.142Z" fill="#D9D9D9"/>
<g id="wing">
<path id="Vector 21 (Stroke)" d="M244.26 68.2972L234.808 75.158L234.678 75.1942L222.268 78.6845L234.484 83.9017L249.43 77.9522L252.471 71.0022L253.852 71.6062L250.563 79.1236L234.464 85.5317L220.032 79.3676L208.066 85.3504L201.354 91.0192L200.381 89.8677L207.163 84.141L207.232 84.083L207.312 84.0427L219.734 77.8318L219.803 77.8126L234.14 73.7802L243.375 67.0774L244.26 68.2972ZM239.128 61.0078L246.36 55.1946L247.304 56.369L239.163 62.9134L230.802 56.6804L222.34 61.4991L231.256 67.0477L230.459 68.3269L220.85 62.3471L220.38 62.6155L220.206 62.7141H208.155L201.496 78.9924L194.123 85.2898L193.144 84.1436L199.953 78.3274L197.012 71.6062L196.949 71.4619V58.9465H198.456V71.1467L200.844 76.605L207.143 61.2071H219.807L230.913 54.8832L239.128 61.0078ZM213.871 52.5526L209.802 59.3342L208.51 58.5589L212.579 51.7773L213.871 52.5526Z" fill="#B45AB2"/>
<path id="Vector 20" d="M195.141 56.3846C185.913 62.4769 177.509 78.5379 177.509 78.5379L191.072 82.1548L195.141 85.3195L203.429 95.1152H215.335C215.335 95.1152 226.937 96.866 234.022 95.1152C243.264 92.8314 248.422 89.3388 254.668 82.1548C258.529 77.7141 261.91 75.062 262.354 69.1943C262.865 62.4493 259.773 58.1106 254.668 53.6719C247.571 47.5002 240.261 50.2515 230.857 50.0551C216.695 49.7592 206.962 48.5796 195.141 56.3846Z" fill="#FFFEFE" fill-opacity="0.32"/>
<path id="Vector 20 (Stroke)" d="M237.537 49.6848C239.654 49.5511 241.679 49.4177 243.632 49.472C247.546 49.5809 251.185 50.443 254.767 53.5581C257.325 55.7824 259.389 57.9907 260.749 60.4963C262.111 63.0052 262.762 65.8052 262.505 69.2056C262.056 75.1364 258.624 77.8354 254.782 82.2537C251.653 85.8519 248.792 88.5326 245.55 90.5998C242.307 92.6673 238.691 94.1168 234.058 95.2615C230.493 96.1427 225.802 96.141 222.013 95.9221C220.116 95.8124 218.442 95.6482 217.241 95.5112C216.641 95.4426 216.159 95.3809 215.827 95.3363C215.661 95.314 215.533 95.2961 215.446 95.2836C215.402 95.2774 215.369 95.2725 215.346 95.2692C215.338 95.2679 215.33 95.2668 215.325 95.266H203.36L203.314 95.2127L195.035 85.4282L191.004 82.2926L177.288 78.6351L177.375 78.4679L177.509 78.538C177.387 78.4745 177.376 78.4685 177.375 78.4679L177.377 78.465C177.378 78.463 177.379 78.46 177.381 78.4561C177.386 78.4483 177.391 78.4365 177.4 78.4211C177.416 78.3903 177.44 78.3446 177.472 78.2848C177.536 78.1653 177.631 77.9892 177.755 77.7632C178.004 77.3112 178.369 76.659 178.836 75.8574C179.769 74.2542 181.11 72.0529 182.74 69.6609C185.996 64.8818 190.418 59.3224 195.058 56.259C206.926 48.4229 216.712 49.6088 230.861 49.9044C233.204 49.9534 235.418 49.8187 237.537 49.6848ZM243.623 49.7734C241.687 49.7196 239.677 49.8517 237.556 49.9857C235.438 50.1195 233.212 50.2551 230.854 50.2058C216.677 49.9096 206.998 48.7364 195.224 56.5103C190.636 59.5393 186.242 65.0564 182.989 69.8307C181.364 72.2155 180.027 74.4103 179.096 76.009C178.631 76.8082 178.267 77.4583 178.02 77.9084C177.896 78.1334 177.802 78.3086 177.738 78.4273C177.736 78.432 177.733 78.4366 177.73 78.4411L191.111 82.0091L191.14 82.0171L191.164 82.0359L195.233 85.2007L195.246 85.2101L195.256 85.2222L203.499 94.9646H215.346L215.357 94.9663H215.358C215.358 94.9664 215.359 94.9665 215.359 94.9666L215.39 94.971C215.412 94.9743 215.445 94.979 215.488 94.9852C215.575 94.9975 215.702 95.0154 215.867 95.0376C216.198 95.0819 216.677 95.1435 217.276 95.2118C218.472 95.3483 220.141 95.512 222.03 95.6212C225.814 95.8399 230.467 95.8386 233.986 94.969C238.595 93.8299 242.179 92.3912 245.387 90.3455C248.597 88.2994 251.437 85.6417 254.555 82.0559C258.435 77.5931 261.765 74.9874 262.204 69.1829C262.457 65.8383 261.817 63.0965 260.484 60.6402C259.149 58.1806 257.116 55.9999 254.569 53.7856C251.054 50.729 247.49 49.881 243.623 49.7734Z" fill="white"/>
</g>
<g id="wing_2">
<path id="Vector 21 (Stroke)_2" d="M105.58 38.5737L111.762 48.4834L111.789 48.6155L114.402 61.2394L120.462 49.4188L115.573 34.0927L108.853 30.5726L109.553 29.2379L116.821 33.0449L122.086 49.5529L114.927 63.5182L120.057 75.8731L125.241 82.9664L124.025 83.8558L118.787 76.6898L118.734 76.617L118.699 76.534L113.374 63.7078L113.359 63.6377L110.341 49.0535L104.301 39.3715L105.58 38.5737ZM97.9492 43.1827L92.6567 35.562L93.8944 34.7023L99.8526 43.2812L93.0493 51.1855L97.2635 59.9645L103.423 51.4591L104.643 52.3433L98.0051 61.5096L98.24 61.9979L98.3262 62.1778L97.4822 74.1997L113.254 81.9826L119.02 89.7778L117.808 90.6742L112.483 83.4748L105.572 85.9374L105.424 85.9904L92.9391 85.1139L93.0446 83.6106L105.215 84.465L110.827 82.4654L95.908 75.1033L96.7949 62.4704L91.2643 50.9493L97.9492 43.1827ZM87.7459 67.7857L94.2259 72.3196L93.362 73.5543L86.882 69.0204L87.7459 67.7857Z" fill="#B45AB2"/>
<path id="Vector 20_2" d="M90.2568 86.7385C95.688 96.3699 111.121 105.879 111.121 105.879L115.679 92.6022L119.121 88.7649L129.473 81.1826L130.307 69.3063C130.307 69.3063 132.866 57.8549 131.615 50.6651C129.984 41.286 126.862 35.8959 120.133 29.1618C115.973 24.9993 113.564 21.441 107.742 20.5872C101.05 19.6057 96.5049 22.3862 91.7197 27.1671C85.0661 33.8148 87.2987 41.2998 86.4442 50.6663C85.1571 64.7733 83.2988 74.3996 90.2568 86.7385Z" fill="#FFFEFE" fill-opacity="0.32"/>
<path id="Vector 20 (Stroke)_2" d="M86.5427 43.9767C86.5575 41.8559 86.5662 39.8271 86.7572 37.8825C87.1399 33.9857 88.2548 30.4158 91.6131 27.0604C94.011 24.6646 96.3585 22.76 98.9532 21.5791C101.551 20.3967 104.39 19.9432 107.764 20.4379C113.649 21.3009 116.101 24.9138 120.239 29.0554C123.61 32.4283 126.083 35.4707 127.918 38.8496C129.754 42.229 130.946 45.9379 131.764 50.6392C132.393 54.2577 132.063 58.9372 131.579 62.7012C131.337 64.5854 131.056 66.2443 130.835 67.4323C130.725 68.0262 130.629 68.5025 130.562 68.8306C130.528 68.9946 130.501 69.1217 130.482 69.2077C130.473 69.2507 130.466 69.2836 130.461 69.3057C130.459 69.3144 130.457 69.3215 130.456 69.3269L129.618 81.2628L129.562 81.3042L119.222 88.8779L115.811 92.6797L111.202 106.106L111.042 106.007L111.121 105.879C111.049 105.995 111.042 106.006 111.042 106.007L111.039 106.005C111.037 106.004 111.034 106.002 111.03 106C111.023 105.995 111.012 105.989 110.997 105.979C110.967 105.961 110.923 105.933 110.866 105.897C110.751 105.825 110.582 105.718 110.365 105.578C109.932 105.299 109.307 104.889 108.54 104.367C107.006 103.324 104.904 101.832 102.632 100.039C98.0927 96.4558 92.8566 91.6554 90.1257 86.8125C83.14 74.4245 85.0084 64.7453 86.2941 50.6526C86.5071 48.3181 86.5279 46.0999 86.5427 43.9767ZM87.0573 37.9118C86.8679 39.8402 86.8589 41.8544 86.8441 43.979C86.8293 46.1014 86.8086 48.3314 86.5943 50.6801C85.306 64.8012 83.4578 74.3747 90.388 86.6645C93.0883 91.4529 98.2841 96.2228 102.819 99.8022C105.084 101.59 107.18 103.078 108.709 104.118C109.474 104.638 110.097 105.047 110.529 105.325C110.745 105.464 110.913 105.57 111.027 105.642C111.031 105.645 111.036 105.648 111.04 105.651L115.536 92.5533L115.546 92.5245L115.567 92.5017L119.009 88.6644L119.019 88.6527L119.032 88.6433L129.327 81.1022L130.157 69.2846L130.16 69.2736L130.16 69.273C130.16 69.2727 130.16 69.2722 130.16 69.2715L130.167 69.241C130.171 69.2193 130.178 69.1868 130.188 69.1442C130.206 69.059 130.233 68.9329 130.266 68.7697C130.334 68.4434 130.429 67.9691 130.539 67.3773C130.759 66.1934 131.039 64.5401 131.28 62.6628C131.763 58.9037 132.088 54.2623 131.467 50.6909C130.653 46.0132 129.469 42.3373 127.653 38.9935C125.837 35.6491 123.385 32.6294 120.026 29.2682C115.846 25.0849 113.48 21.581 107.72 20.7364C104.402 20.2498 101.622 20.6959 99.0782 21.8535C96.5311 23.0127 94.2134 24.8886 91.8262 27.2737C88.5309 30.566 87.4353 34.0625 87.0573 37.9118Z" fill="white"/>
</g>
<path id="Vector 12" d="M188.962 74.3182C186.419 76.467 182.934 80.3463 182.934 80.3463L188.962 82.4561L190.77 76.1266L196.497 71.0027H202.676L204.183 78.8393L207.197 80.3463C212.84 81.9377 208.072 68.3236 202.676 66.0295C196.917 63.5811 193.742 70.2791 188.962 74.3182Z" fill="#B45AB2"/>
<path id="Vector 13" d="M129.261 74.3905C131.804 76.5393 135.289 80.4186 135.289 80.4186L129.261 82.5284L127.453 76.1989L121.726 71.075H115.547L114.04 78.9115L111.026 80.4186C105.383 82.01 110.152 68.3959 115.547 66.1018C121.306 63.6534 124.482 70.3514 129.261 74.3905Z" fill="#B45AB2"/>
<path id="Vector 14" d="M145.107 160.822C142.91 156.964 141.943 147.258 141.943 147.258L154.451 154.04H161.986L170.275 149.82C170.275 149.82 168.267 156.848 165.904 160.822C164.569 163.068 164.069 164.669 161.986 166.247C160.07 167.699 156.259 168.507 156.259 168.507C156.259 168.507 151.764 167.848 149.478 166.247C147.249 164.686 146.454 163.185 145.107 160.822Z" fill="#B45AB2"/>
<path id="Vector 14 (Stroke)" d="M156.291 168.655L156.264 168.66L156.238 168.657L156.259 168.507L156.291 168.655ZM154.489 153.889H161.95L170.515 149.529L170.42 149.862C170.42 149.862 170.419 149.863 170.419 149.863C170.419 149.864 170.419 149.865 170.418 149.867C170.417 149.871 170.416 149.876 170.414 149.882C170.41 149.896 170.404 149.916 170.396 149.942C170.381 149.995 170.358 150.073 170.328 150.173C170.269 150.373 170.181 150.664 170.068 151.025C169.842 151.748 169.517 152.752 169.117 153.881C168.32 156.136 167.223 158.898 166.034 160.899C164.714 163.12 164.191 164.765 162.077 166.367C161.097 167.109 159.645 167.681 158.45 168.065C157.851 168.258 157.311 168.405 156.922 168.504C156.727 168.554 156.57 168.591 156.461 168.617C156.406 168.629 156.364 168.639 156.335 168.645C156.321 168.648 156.31 168.651 156.302 168.652C156.299 168.653 156.296 168.654 156.294 168.654C156.293 168.655 156.292 168.655 156.292 168.655L156.291 168.655L156.259 168.507L156.238 168.657L156.237 168.656C156.237 168.656 156.237 168.656 156.236 168.656C156.236 168.656 156.235 168.656 156.234 168.656C156.232 168.656 156.228 168.655 156.224 168.655C156.215 168.653 156.202 168.651 156.185 168.648C156.151 168.643 156.101 168.635 156.037 168.625C155.909 168.603 155.723 168.571 155.493 168.527C155.034 168.44 154.397 168.307 153.688 168.124C152.276 167.758 150.558 167.187 149.391 166.37C147.132 164.788 146.322 163.258 144.976 160.896C143.863 158.942 143.069 155.526 142.553 152.62C142.294 151.163 142.104 149.826 141.979 148.855C141.916 148.369 141.87 147.973 141.839 147.7C141.823 147.563 141.812 147.456 141.804 147.384C141.801 147.348 141.797 147.32 141.796 147.302C141.795 147.292 141.794 147.285 141.793 147.28C141.793 147.278 141.793 147.276 141.793 147.275V147.273L141.765 146.99L154.489 153.889ZM142.138 147.666C142.169 147.938 142.215 148.332 142.278 148.816C142.402 149.785 142.592 151.116 142.849 152.567C143.366 155.478 144.154 158.844 145.238 160.747C146.586 163.113 147.367 164.585 149.564 166.124C150.684 166.908 152.357 167.468 153.764 167.832C154.465 168.013 155.095 168.145 155.549 168.231C155.777 168.274 155.96 168.306 156.086 168.327C156.149 168.338 156.198 168.346 156.231 168.351C156.24 168.352 156.248 168.353 156.254 168.354C156.259 168.353 156.264 168.352 156.27 168.351C156.298 168.345 156.34 168.335 156.393 168.323C156.5 168.298 156.655 168.261 156.848 168.213C157.232 168.115 157.766 167.969 158.358 167.778C159.548 167.396 160.959 166.837 161.895 166.127C163.947 164.572 164.424 163.016 165.775 160.744C166.948 158.771 168.037 156.032 168.833 153.78C169.231 152.656 169.556 151.655 169.78 150.936C169.888 150.591 169.972 150.311 170.031 150.113L162.054 154.174L162.022 154.191H154.413L154.379 154.172L142.123 147.527C142.128 147.569 142.133 147.616 142.138 147.666Z" fill="black"/>
<path id="Vector 15 (Stroke)" d="M165.462 155.623C166.042 155.377 166.694 155.369 167.282 155.581C168.029 155.85 168.775 156.123 169.519 156.399C172.705 157.58 175.866 158.822 179.002 160.125L180.213 160.629L180.571 161.891C182.236 167.77 183.809 173.676 185.289 179.607C188.086 183.021 190.845 186.468 193.567 189.948C194.056 190.574 194.544 191.201 195.031 191.829C195.293 192.167 195.429 192.591 195.396 193.021C195.363 193.451 195.165 193.85 194.845 194.131C194.524 194.412 194.103 194.555 193.673 194.532C193.242 194.508 192.839 194.318 192.538 194.014C191.979 193.449 191.421 192.883 190.865 192.316C187.626 189.014 184.429 185.676 181.273 182.302L180.767 181.371C178.997 175.814 177.311 170.233 175.709 164.628C172.983 163.479 170.276 162.284 167.589 161.043C166.868 160.71 166.149 160.374 165.431 160.034C164.866 159.767 164.412 159.299 164.177 158.715C163.942 158.131 163.943 157.481 164.183 156.904C164.422 156.328 164.882 155.868 165.462 155.623Z" fill="#B45AB2"/>
<path id="Vector 17 (Stroke)" d="M170.856 145.095C171.43 144.84 172.08 144.82 172.671 145.017C173.324 145.235 173.975 145.457 174.625 145.681C177.408 146.643 180.166 147.666 182.899 148.751C182.97 148.779 183.04 148.807 183.111 148.835L184.335 149.32L184.711 150.585C186.185 155.559 187.569 160.561 188.865 165.588C191.321 168.48 193.742 171.405 196.125 174.364C196.557 174.9 196.987 175.438 197.417 175.976C197.682 176.309 197.826 176.73 197.802 177.159C197.779 177.589 197.591 177.99 197.279 178.277C196.966 178.564 196.55 178.716 196.121 178.703C195.691 178.691 195.284 178.511 194.974 178.219C194.475 177.745 193.976 177.27 193.479 176.794C190.577 174.018 187.716 171.205 184.896 168.354L184.361 167.41C182.791 162.76 181.3 158.086 179.888 153.389C177.497 152.425 175.124 151.414 172.771 150.356C172.143 150.074 171.517 149.789 170.893 149.5C170.327 149.238 169.868 148.778 169.625 148.198C169.381 147.619 169.372 146.971 169.602 146.393C169.831 145.815 170.282 145.35 170.856 145.095Z" fill="#B45AB2"/>
<path id="Vector 19 (Stroke)" d="M136.238 137.258C135.663 137.003 135.014 136.983 134.423 137.18C133.77 137.398 133.118 137.62 132.468 137.845C129.686 138.807 126.928 139.83 124.194 140.914C124.124 140.942 124.053 140.971 123.983 140.999L122.758 141.483L122.382 142.748C120.909 147.723 119.524 152.724 118.228 157.752C115.772 160.644 113.352 163.569 110.969 166.528C110.537 167.064 110.106 167.601 109.677 168.14C109.411 168.473 109.268 168.893 109.291 169.323C109.315 169.752 109.502 170.153 109.815 170.44C110.128 170.727 110.543 170.88 110.973 170.867C111.403 170.854 111.81 170.675 112.119 170.382C112.619 169.908 113.118 169.433 113.615 168.957C116.516 166.182 119.377 163.368 122.197 160.518L122.732 159.573C124.303 154.923 125.794 150.25 127.206 145.553C129.597 144.589 131.969 143.578 134.323 142.519C134.95 142.237 135.576 141.952 136.201 141.663C136.766 141.402 137.226 140.941 137.469 140.362C137.712 139.783 137.721 139.135 137.492 138.557C137.263 137.979 136.812 137.513 136.238 137.258Z" fill="#B45AB2"/>
<path id="Vector 16 (Stroke)" d="M144.947 153.815C144.367 153.569 143.715 153.561 143.127 153.772C142.38 154.042 141.634 154.314 140.89 154.59C137.704 155.772 134.543 157.014 131.407 158.317L130.196 158.82L129.838 160.082C128.173 165.961 126.6 171.867 125.12 177.799C122.323 181.213 119.564 184.659 116.842 188.139C116.353 188.765 115.865 189.392 115.378 190.02C115.116 190.358 114.98 190.783 115.013 191.213C115.046 191.643 115.244 192.041 115.564 192.323C115.885 192.604 116.306 192.747 116.736 192.723C117.167 192.7 117.571 192.509 117.871 192.205C118.43 191.64 118.988 191.075 119.544 190.507C122.783 187.206 125.98 183.868 129.136 180.494L129.642 179.563C131.413 174.005 133.098 168.424 134.7 162.819C137.426 161.67 140.133 160.476 142.82 159.235C143.541 158.902 144.26 158.565 144.978 158.226C145.543 157.958 145.997 157.491 146.232 156.906C146.467 156.322 146.466 155.672 146.226 155.096C145.987 154.519 145.527 154.06 144.947 153.815Z" fill="#B45AB2"/>
<path id="Vector 18 (Stroke)" d="M146.398 149.847C146.72 149.979 147.041 150.113 147.36 150.249C148.71 150.825 150.036 151.438 151.337 152.086C154.349 151.693 157.36 151.49 160.371 151.479C161.575 151.152 162.87 151.114 164.254 151.366C164.632 151.434 165.016 151.524 165.407 151.636C165.437 151.731 165.467 151.827 165.497 151.923C165.239 152.238 164.975 152.531 164.703 152.802C163.63 153.875 162.452 154.612 161.169 155.012L160.63 155.095C157.465 155.095 154.3 154.883 151.136 154.46L150.623 154.392L150.47 154.254C149.265 153.164 148.091 152.029 146.947 150.848C146.706 150.599 146.466 150.348 146.228 150.095C146.285 150.012 146.342 149.93 146.398 149.847Z" fill="black"/>
<path id="Vector 22 (Stroke)" d="M162.683 128.353C163.038 128.889 163.402 129.416 163.775 129.934C165.078 131.745 166.491 133.45 168.014 135.051C170.325 135.051 172.636 134.91 174.947 134.704L175.105 134.742C177.242 135.604 179.408 136.41 181.569 137.224C183.033 137.059 184.496 136.901 185.96 136.769C187.643 135.569 189.355 134.42 191.125 133.367L191.588 133.092H192.127C192.7 133.092 193.272 133.183 193.845 133.365C194.478 133.565 195.111 133.876 195.744 134.298V135.805C195.111 136.227 194.478 136.538 193.845 136.738C193.469 136.857 193.092 136.937 192.716 136.978C190.986 137.987 189.204 138.909 187.394 139.785L186.861 140.044L186.551 140.017C184.843 139.871 183.135 139.686 181.427 139.494L180.913 139.37C178.893 138.032 176.879 136.679 174.833 135.389C172.56 135.188 170.287 135.051 168.014 135.051C166.491 133.45 164.858 131.954 163.115 130.562C162.616 130.163 162.108 129.773 161.591 129.392C161.955 129.046 162.319 128.7 162.683 128.353Z" fill="black"/>
</g>
<path id="bars" d="M33.5985 1.5V234M79.5985 1.5V234M121.599 1.5V234M161.599 1.5V234M211.599 1.5V234M253.099 1.5V234M292.599 1.5V234M332.099 1.5V234M373.099 1.5V234M7.59852 36H407.599M7.59852 82.5H407.599M7.59852 123.5H407.599M7.59852 165.5H407.599M7.59852 205H407.599" stroke="url(#paint2_linear_43_58)"/>
<g data-testid="cracks">
<g id="Vector 1" filter="url(#filter1_df_43_58)">
<path d="M155.973 147.978C156.057 147.656 156.14 147.333 156.224 147.01C158.903 147.423 161.572 147.872 164.233 148.356C170.649 149.525 177.01 150.902 183.318 152.488L181.969 152.615C182.599 152.312 183.231 152.011 183.864 151.713C194.937 146.495 206.026 141.311 217.131 136.163L217.649 136.005C226.284 134.739 234.921 133.493 243.561 132.266L243.79 132.247C255.538 132.217 267.286 132.222 279.035 132.264L278.092 132.761C283.17 125.79 288.263 118.83 293.372 111.881C294.97 109.708 296.57 107.536 298.171 105.365C298.443 105.556 298.716 105.748 298.989 105.94C297.488 108.181 295.986 110.421 294.482 112.661C289.673 119.821 284.849 126.971 280.009 134.11L279.645 134.61L279.066 134.607C267.323 134.963 255.579 135.282 243.834 135.566L244.063 135.547C235.452 136.961 226.837 138.355 218.22 139.73L218.738 139.572C207.698 144.86 196.642 150.113 185.569 155.332C184.936 155.63 184.303 155.926 183.668 156.219L183.001 156.528L182.319 156.346C176.034 154.67 169.804 152.785 163.628 150.691C161.067 149.823 158.515 148.918 155.973 147.978Z" fill="url(#paint3_linear_43_58)"/>
</g>
<g id="Vector 2" filter="url(#filter2_df_43_58)">
<path d="M161.956 154.473C162.051 154.771 162.146 155.068 162.241 155.365C164.892 155.098 167.532 154.798 170.161 154.465C177.185 153.575 184.134 152.449 191.007 151.087C191.128 151.063 191.248 151.039 191.369 151.015L189.899 150.862C201.02 155.587 212.158 160.28 223.315 164.94L223.924 165.107C232.593 166.22 241.264 167.316 249.937 168.393L250.183 168.411C262.253 168.489 274.322 168.532 286.39 168.54L285.305 167.979C289.247 173.764 293.204 179.542 297.176 185.314C298.546 187.305 299.918 189.296 301.292 191.285C301.604 191.146 301.917 191.006 302.229 190.866C300.97 188.825 299.71 186.785 298.447 184.745C294.788 178.834 291.114 172.929 287.425 167.031L287.043 166.47L286.339 166.47C274.261 166.076 262.184 165.717 250.108 165.393L250.353 165.411C241.704 164.159 233.052 162.924 224.398 161.708L225.007 161.875C213.923 157.084 202.821 152.325 191.7 147.599L190.987 147.296L190.23 147.446C190.109 147.47 189.988 147.494 189.867 147.518C182.994 148.88 176.196 150.479 169.474 152.313C166.958 153 164.452 153.72 161.956 154.473Z" fill="url(#paint4_linear_43_58)" fill-opacity="0.9"/>
</g>
<g id="Vector 3" filter="url(#filter3_df_43_58)">
<path d="M147.535 149.525C147.282 149.324 147.028 149.122 146.775 148.92C144.764 150.856 142.781 152.813 140.827 154.793C136.073 159.609 131.486 164.557 127.067 169.638L128.273 168.923C127.627 169.055 126.982 169.189 126.336 169.325C114.076 171.914 101.822 174.539 89.5734 177.203L89.0455 177.393C81.0906 181.615 73.1442 185.853 65.2064 190.109L65.0036 190.233C55.1249 197.312 45.2662 204.42 35.4275 211.556L36.5088 211.379C28.3679 208.949 20.22 206.538 12.0651 204.144C9.49969 203.391 6.93357 202.64 4.36676 201.89C4.2445 202.204 4.12226 202.517 4 202.83C6.52188 203.695 9.04446 204.558 11.5677 205.419C19.5885 208.156 27.6162 210.876 35.6509 213.578L36.2438 213.755L36.7322 213.4C46.793 206.578 56.8338 199.728 66.8546 192.849L66.6517 192.973C74.6719 188.88 82.6835 184.77 90.6865 180.644L90.1586 180.834C102.431 178.32 114.697 175.769 126.958 173.18C127.603 173.044 128.248 172.906 128.892 172.766L129.627 172.606L130.098 172.05C134.453 166.917 138.64 161.651 142.66 156.252C144.313 154.032 145.938 151.79 147.535 149.525Z" fill="url(#paint5_linear_43_58)" fill-opacity="0.96"/>
</g>
<g id="Vector 4" filter="url(#filter4_df_43_58)">
<path d="M153.086 147.618C153.052 147.302 153.019 146.987 152.985 146.671C150.204 146.444 147.426 146.251 144.653 146.094C137.244 145.675 129.862 145.506 122.507 145.588C122.045 145.593 121.582 145.598 121.12 145.603L122.505 146.028C112.208 138.941 101.888 131.883 91.5453 124.852L90.974 124.568C82.2153 121.721 73.4509 118.892 64.6806 116.081L64.4499 116.019C51.8352 113.59 39.2146 111.197 26.5883 108.84L27.5406 109.639C25.1163 102.912 22.6776 96.1875 20.2244 89.466C19.34 87.0428 18.4537 84.6199 17.5655 82.1975C17.2314 82.2661 16.8973 82.3347 16.5632 82.4032C17.3287 84.8509 18.096 87.2982 18.8652 89.7451C20.9987 96.5321 23.1467 103.316 25.3091 110.097L25.5491 110.763L26.2614 110.896C38.8242 113.652 51.3928 116.372 63.9673 119.055L63.7366 118.993C72.4506 121.978 81.1704 124.945 89.896 127.894L89.3247 127.611C99.5739 134.757 109.846 141.876 120.14 148.967L120.769 149.4L121.526 149.391C121.988 149.386 122.451 149.381 122.913 149.376C130.268 149.294 137.596 148.962 144.898 148.378C147.631 148.16 150.36 147.907 153.086 147.618Z" fill="url(#paint6_linear_43_58)"/>
</g>
</g>
</g>
<defs>
<clipPath id="paint0_diamond_43_58_clip_path"><rect id="Rectangle 1" x="0" width="408" height="236"/></clipPath><filter id="filter1_df_43_58" x="151.973" y="102.565" width="151.016" height="61.9633" filterUnits="userSpaceOnUse" color-interpolation-filters="sRGB">
<feFlood flood-opacity="0" result="BackgroundImageFix"/>
<feColorMatrix in="SourceAlpha" type="matrix" values="0 0 0 0 0 0 0 0 0 0 0 0 0 0 0 0 0 0 127 0" result="hardAlpha"/>
<feOffset dy="4"/>
<feGaussianBlur stdDeviation="2"/>
<feComposite in2="hardAlpha" operator="out"/>
<feColorMatrix type="matrix" values="0 0 0 0 1 0 0 0 0 1 0 0 0 0 1 0 0 0 0.25 0"/>
<feBlend mode="normal" in2="BackgroundImageFix" result="effect1_dropShadow_43_58"/>
<feBlend mode="normal" in="SourceGraphic" in2="effect1_dropShadow_43_58" result="shape"/>
<feGaussianBlur stdDeviation="1.4" result="effect2_foregroundBlur_43_58"/>
</filter>
<filter id="filter2_df_43_58" x="157.956" y="145.296" width="148.273" height="53.9894" filterUnits="userSpaceOnUse" color-interpolation-filters="sRGB">
<feFlood flood-opacity="0" result="BackgroundImageFix"/>
<feColorMatrix in="SourceAlpha" type="matrix" values="0 0 0 0 0 0 0 0 0 0 0 0 0 0 0 0 0 0 127 0" result="hardAlpha"/>
<feOffset dy="4"/>
<feGaussianBlur stdDeviation="2"/>
<feComposite in2="hardAlpha" operator="out"/>
<feColorMatrix type="matrix" values="0 0 0 0 1 0 0 0 0 1 0 0 0 0 1 0 0 0 0.25 0"/>
<feBlend mode="normal" in2="BackgroundImageFix" result="effect1_dropShadow_43_58"/>
<feBlend mode="normal" in="SourceGraphic" in2="effect1_dropShadow_43_58" result="shape"/>
<feGaussianBlur stdDeviation="1" result="effect2_foregroundBlur_43_58"/>
</filter>
<filter id="filter3_df_43_58" x="0" y="146.92" width="151.535" height="74.8343" filterUnits="userSpaceOnUse" color-interpolation-filters="sRGB">
<feFlood flood-opacity="0" result="BackgroundImageFix"/>
<feColorMatrix in="SourceAlpha" type="matrix" values="0 0 0 0 0 0 0 0 0 0 0 0 0 0 0 0 0 0 127 0" result="hardAlpha"/>
<feOffset dy="4"/>
<feGaussianBlur stdDeviation="2"/>
<feComposite in2="hardAlpha" operator="out"/>
<feColorMatrix type="matrix" values="0 0 0 0 1 0 0 0 0 1 0 0 0 0 1 0 0 0 0.25 0"/>
<feBlend mode="normal" in2="BackgroundImageFix" result="effect1_dropShadow_43_58"/>
<feBlend mode="normal" in="SourceGraphic" in2="effect1_dropShadow_43_58" result="shape"/>
<feGaussianBlur stdDeviation="1" result="effect2_foregroundBlur_43_58"/>
</filter>
<filter id="filter4_df_43_58" x="12.5632" y="80.1975" width="144.523" height="77.2022" filterUnits="userSpaceOnUse" color-interpolation-filters="sRGB">
<feFlood flood-opacity="0" result="BackgroundImageFix"/>
<feColorMatrix in="SourceAlpha" type="matrix" values="0 0 0 0 0 0 0 0 0 0 0 0 0 0 0 0 0 0 127 0" result="hardAlpha"/>
<feOffset dy="4"/>
<feGaussianBlur stdDeviation="2"/>
<feComposite in2="hardAlpha" operator="out"/>
<feColorMatrix type="matrix" values="0 0 0 0 0 0 0 0 0 0 0 0 0 0 0 0 0 0 0.25 0"/>
<feBlend mode="normal" in2="BackgroundImageFix" result="effect1_dropShadow_43_58"/>
<feBlend mode="normal" in="SourceGraphic" in2="effect1_dropShadow_43_58" result="shape"/>
<feGaussianBlur stdDeviation="1" result="effect2_foregroundBlur_43_58"/>
</filter>
<linearGradient id="paint0_diamond_43_58" x1="0" y1="0" x2="500" y2="500" gradientUnits="userSpaceOnUse">
  <stop offset="0.08" stop-color="#4B2F1F" stop-opacity="0.35"/>
  <stop offset="0.44" stop-color="#8D6A3E" stop-opacity="0.68"/>
  <stop offset="1" stop-color="#E4C689"/>
</linearGradient>

<linearGradient id="paint1_linear_43_58" x1="332.099" y1="65" x2="8.09854" y2="229" gradientUnits="userSpaceOnUse">
  <stop stop-color="#8e9a6a"/>
  <stop offset="0.239298" stop-color="#4d5b38"/>
</linearGradient>

<linearGradient id="paint2_linear_43_58" x1="332.099" y1="65" x2="8.09853" y2="229" gradientUnits="userSpaceOnUse">
  <stop stop-color="#5c6b43"/>
  <stop offset="0.239298" stop-color="#2f3b24"/>
</linearGradient>
<linearGradient id="paint8_sky_43_58" x1="206.099" y1="0" x2="206.099" y2="104" gradientUnits="userSpaceOnUse">
<stop offset="0" stop-color="#F6D6B0" stop-opacity="0.9"/>
<stop offset="1" stop-color="#DFA46F" stop-opacity="0"/>
</linearGradient>
<linearGradient id="paint9_hills_far_43_58" x1="206.099" y1="112" x2="206.099" y2="236" gradientUnits="userSpaceOnUse">
<stop offset="0" stop-color="#8C7A62"/>
<stop offset="1" stop-color="#5B4D3A"/>
</linearGradient>
<linearGradient id="paint10_hills_mid_43_58" x1="206.099" y1="147" x2="206.099" y2="236" gradientUnits="userSpaceOnUse">
<stop offset="0" stop-color="#6F5A3E"/>
<stop offset="1" stop-color="#433523"/>
</linearGradient>
<linearGradient id="paint11_tree_line_43_58" x1="206.099" y1="157" x2="206.099" y2="236" gradientUnits="userSpaceOnUse">
<stop offset="0" stop-color="#3F3427"/>
<stop offset="1" stop-color="#282016"/>
</linearGradient>
<linearGradient id="paint12_meadow_43_58" x1="206.099" y1="191" x2="206.099" y2="236" gradientUnits="userSpaceOnUse">
<stop offset="0" stop-color="#9A7B4D" stop-opacity="0.82"/>
<stop offset="1" stop-color="#5D462C" stop-opacity="0.98"/>
</linearGradient>
<linearGradient id="paint3_linear_43_58" x1="258.497" y1="155.542" x2="199.561" y2="100.747" gradientUnits="userSpaceOnUse">
<stop offset="0.0817308" stop-color="white"/>
<stop offset="0.0818308" stop-color="#383838"/>
<stop offset="0.25" stop-color="#CCCCCC"/>
<stop offset="0.2501" stop-color="#424242"/>
<stop offset="0.5625" stop-color="white"/>
<stop offset="0.754758" stop-color="#424141"/>
<stop offset="0.754858" stop-color="#242424"/>
<stop offset="0.754958" stop-color="white"/>
<stop offset="0.947115" stop-color="white"/>
</linearGradient>
<linearGradient id="paint4_linear_43_58" x1="268.949" y1="148.721" x2="208.401" y2="204.859" gradientUnits="userSpaceOnUse">
<stop offset="0.0817308" stop-color="white"/>
<stop offset="0.0818308" stop-color="#383838"/>
<stop offset="0.25" stop-color="#CCCCCC"/>
<stop offset="0.2501" stop-color="#424242"/>
<stop offset="0.5625" stop-color="white"/>
<stop offset="0.730769" stop-color="#424141"/>
<stop offset="0.754858" stop-color="#242424"/>
<stop offset="0.754958" stop-color="white"/>
<stop offset="0.947115" stop-color="white"/>
</linearGradient>
<linearGradient id="paint5_linear_43_58" x1="65.6695" y1="217.496" x2="79.2024" y2="137.699" gradientUnits="userSpaceOnUse">
<stop offset="0.0817308" stop-color="white"/>
<stop offset="0.0818308" stop-color="#383838"/>
<stop offset="0.25" stop-color="#CCCCCC"/>
<stop offset="0.2501" stop-color="#424242"/>
<stop offset="0.5625" stop-color="white"/>
<stop offset="0.5626" stop-color="#424141"/>
<stop offset="0.754858" stop-color="#242424"/>
<stop offset="0.754958" stop-color="white"/>
<stop offset="0.947115" stop-color="white"/>
</linearGradient>
<linearGradient id="paint6_linear_43_58" x1="39.2779" y1="132.838" x2="119.813" y2="87.7731" gradientUnits="userSpaceOnUse">
<stop offset="0.0817308" stop-color="white"/>
<stop offset="0.0818308" stop-color="#383838"/>
<stop offset="0.25" stop-color="#CCCCCC"/>
<stop offset="0.2501" stop-color="#424242"/>
<stop offset="0.5625" stop-color="white"/>
<stop offset="0.730769" stop-color="#424141"/>
<stop offset="0.754858" stop-color="#242424"/>
<stop offset="0.754958" stop-color="white"/>
<stop offset="0.947115" stop-color="white"/>
</linearGradient>
</defs>
</svg>
