<svg viewBox="0 0 38 37" fill="none" xmlns="http://www.w3.org/2000/svg">
<path d="M11.9141 12.025C11.9141 12.025 12.1754 14.0425 11.9141 15.277C10.8323 20.3876 1.19792 20.3876 0.116134 15.277C-0.145167 14.0425 0.116134 12.025 0.116134 12.025H11.9141ZM3.64982 37V8.57793C3.64982 7.14707 3.9443 5.95469 4.53325 5.00078C5.12219 4.04688 5.88688 3.33145 6.8273 2.85449C7.76771 2.37754 8.76038 2.13906 9.80528 2.13906C10.6317 2.13906 11.3062 2.21494 11.8286 2.3667C12.3511 2.51846 12.94 2.52929 13.1965 2.65937C13.453 2.78945 14.4247 3.7 14.0448 5.00078C13.6648 6.30156 12.5695 6.23652 12.0281 6.10645C11.4866 5.97638 11.6196 5.96011 11.3157 5.86255C11.0212 5.76499 10.6317 5.71621 10.1473 5.71621C9.03585 5.71621 8.23317 6.03599 7.73922 6.67554C7.25476 7.31509 7.01253 8.25274 7.01253 9.48848V37H3.64982Z" fill="#323232"/>
<path d="M17.0828 37C17.0828 37 17.0828 12.025 17.0828 3.7C17.0828 -4.625 26.943 3.7 26.943 3.7C29.2228 3.7 31.0941 4.14443 32.557 5.0333C34.0199 5.91133 35.1028 7.11997 35.8057 8.65923C36.5086 10.1985 36.8601 11.9491 36.8601 13.9111C36.8601 15.8731 36.5086 17.6129 35.8057 19.1305C35.1028 20.6481 34.0246 21.8405 32.5712 22.7077C31.1179 23.564 29.2608 23.9922 27 23.9922H19.0207V20.35H26.886C28.4438 20.35 29.6977 20.0898 30.6476 19.5695C31.6071 19.0492 32.3005 18.3121 32.728 17.3582C33.1649 16.3935 33.3834 15.2444 33.3834 13.9111C33.3834 12.5778 33.1649 11.4126 32.728 10.4153C32.291 9.41802 31.5928 8.64839 30.6334 8.1064C29.674 7.55357 28.4058 7.27715 26.829 7.27715H20.6165V37H17.0828ZM30.8186 22.041L38 37H33.8964L26.829 22.041H30.8186Z" fill="#323232"/>
</svg>
