<svg viewBox="0 0 37 37" fill="none" xmlns="http://www.w3.org/2000/svg">
<path d="M11.1667 31.1405V23.8933C11.1667 21.7271 13.3718 20.5677 15.4302 19.9683C15.8746 19.8389 16.21 19.5933 16.3333 19.1742C16.5004 18.6064 16.4733 17.2213 16.3333 16.6461C16.1983 16.0911 15.7341 15.7677 15.1354 15.5895C13.1538 14.9999 11.1667 13.6787 11.1667 11.5899V6.02809H26.1667V11.5899C26.1667 13.6669 24.1033 14.8634 22.2161 15.6832C21.7779 15.8735 21.4474 16.1772 21.3333 16.6461C21.1934 17.2213 21.1662 18.9435 21.3333 19.5112C21.4808 20.0122 21.9066 20.2403 22.4481 20.3069C24.253 20.529 26.1667 21.5489 26.1667 23.3876V31.1405H11.1667Z" fill="#FF47F9"/>
<path d="M26 23.3876C26 22.5362 25.5595 21.8675 24.8867 21.3777C24.211 20.8858 23.3101 20.5826 22.4281 20.4741C21.8551 20.4036 21.3481 20.1526 21.1735 19.5593C21.082 19.2483 21.048 18.652 21.0514 18.0803C21.0548 17.5058 21.0965 16.9143 21.1715 16.6059C21.3018 16.0706 21.6803 15.7324 22.1504 15.5282C23.0901 15.12 24.0582 14.6242 24.7897 13.9807C25.5185 13.3396 26 12.564 26 11.5899V6.19663H11.3333V11.5899C11.3333 12.5739 11.7996 13.3835 12.5182 14.0255C13.239 14.6694 14.207 15.1375 15.1823 15.4278C15.8052 15.6131 16.3394 15.9657 16.4951 16.6059C16.5697 16.9127 16.6118 17.4183 16.6152 17.9118C16.6186 18.4029 16.5843 18.9127 16.4932 19.2222C16.3478 19.7162 15.9521 19.9915 15.4762 20.1301C14.4562 20.4271 13.4135 20.8597 12.6289 21.4764C11.8476 22.0906 11.3333 22.8772 11.3333 23.8933V30.9719H26V23.3876ZM26.3333 11.5899C26.3333 12.6927 25.7831 13.5538 25.0085 14.2352C24.2366 14.9141 23.2293 15.4264 22.2819 15.8379C21.8756 16.0144 21.593 16.2838 21.4951 16.6862C21.4302 16.953 21.3882 17.5104 21.3848 18.0826C21.3814 18.6577 21.4176 19.2064 21.4932 19.4632C21.6135 19.8718 21.9581 20.0769 22.4681 20.1396C23.3909 20.2532 24.3494 20.571 25.0817 21.1041C25.817 21.6394 26.3333 22.4004 26.3333 23.3876V31.309H11V23.8933C11 22.7432 11.5883 21.8671 12.4242 21.2101C13.2567 20.5557 14.3457 20.1086 15.3841 19.8062C15.797 19.6859 16.0722 19.4702 16.1735 19.1261C16.2495 18.8679 16.2853 18.4012 16.2819 17.9141C16.2785 17.4293 16.2368 16.9546 16.1715 16.6862C16.0573 16.2167 15.6626 15.9223 15.0882 15.7514C14.082 15.4519 13.0656 14.9645 12.2975 14.2783C11.5272 13.5901 11 12.6946 11 11.5899V5.85955H26.3333V11.5899Z" fill="#FF47F9"/>
<path d="M27.6667 6.02809H9.33333C8.689 6.02809 8.16667 5.49989 8.16667 4.84831C8.16667 4.19674 8.689 3.66854 9.33333 3.66854H27.6667C28.311 3.66854 28.8333 4.19674 28.8333 4.84831C28.8333 5.49989 28.311 6.02809 27.6667 6.02809Z" fill="#FF47F9"/>
<path d="M28.6667 4.84831C28.6667 4.28982 28.219 3.83708 27.6667 3.83708H9.33333C8.78105 3.83708 8.33333 4.28982 8.33333 4.84831C8.33333 5.4068 8.78105 5.85955 9.33333 5.85955H27.6667C28.219 5.85955 28.6667 5.4068 28.6667 4.84831ZM29 4.84831C29 5.59297 28.403 6.19663 27.6667 6.19663H9.33333C8.59695 6.19663 8 5.59297 8 4.84831C8 4.10366 8.59695 3.5 9.33333 3.5H27.6667C28.403 3.5 29 4.10366 29 4.84831Z" fill="#FF47F9"/>
<path d="M27.6667 33.3315H9.33333C8.689 33.3315 8.16667 32.8033 8.16667 32.1517C8.16667 31.5001 8.689 30.9719 9.33333 30.9719H27.6667C28.311 30.9719 28.8333 31.5001 28.8333 32.1517C28.8333 32.8033 28.311 33.3315 27.6667 33.3315Z" fill="#FF47F9"/>
<path d="M28.6667 32.1517C28.6667 31.5932 28.219 31.1405 27.6667 31.1405H9.33333C8.78105 31.1405 8.33333 31.5932 8.33333 32.1517C8.33333 32.7102 8.78105 33.1629 9.33333 33.1629H27.6667C28.219 33.1629 28.6667 32.7102 28.6667 32.1517ZM29 32.1517C29 32.8963 28.403 33.5 27.6667 33.5H9.33333C8.59695 33.5 8 32.8963 8 32.1517C8 31.407 8.59695 30.8034 9.33333 30.8034H27.6667C28.403 30.8034 29 31.407 29 32.1517Z" fill="#FF47F9"/>
<path d="M14.7742 25.31C15.6251 24.1023 16.8907 24.0684 17.715 22.8478C18.1934 22.1396 19.1855 20.5225 19.1855 20.5225C19.1855 20.5225 19.829 22.2736 20.1657 22.9846C20.5572 23.8111 21.5618 23.6228 21.7996 24.4893C21.9567 25.0619 22.6943 25.4445 22.9432 25.9939C23.2312 26.6296 24.1568 26.8535 24.4136 27.4985C24.5952 27.9546 24.893 28.1347 25.0672 28.5928C25.3549 29.3495 26.5376 29.9607 25.2305 29.9607H11.8333C11.8333 29.9607 12.4089 29.4359 12.6502 29.14C13.0835 28.6088 13.147 28.272 13.6305 27.7721C14.4584 26.9163 14.1059 26.2585 14.7742 25.31Z" fill="#5B0058"/>
<path d="M19.3418 20.4639L19.3421 20.4649C19.3424 20.4657 19.3428 20.4672 19.3434 20.4688C19.3446 20.4721 19.3466 20.4769 19.349 20.4833C19.3537 20.4962 19.3607 20.5154 19.3698 20.5399C19.388 20.589 19.4145 20.6602 19.4473 20.7476C19.5127 20.9225 19.6035 21.1631 19.7048 21.4257C19.908 21.9531 20.1508 22.5628 20.3161 22.9116C20.483 23.2641 20.775 23.4016 21.1139 23.5707C21.4437 23.7352 21.82 23.933 21.9603 24.4443C22.0252 24.6809 22.2145 24.89 22.4544 25.1306C22.6799 25.3568 22.9546 25.6143 23.0947 25.9236C23.2166 26.1925 23.4771 26.3819 23.7868 26.6054C24.0776 26.8151 24.4186 27.0594 24.5684 27.4355C24.6499 27.6403 24.7568 27.7833 24.8763 27.9435C24.9954 28.103 25.1264 28.2791 25.2227 28.5324C25.2848 28.6957 25.3986 28.8589 25.5273 29.0199C25.6472 29.1697 25.7956 29.3349 25.8841 29.4649C25.9293 29.5314 25.9742 29.6096 25.9919 29.6917C26.0118 29.7849 25.9969 29.8895 25.9147 29.9725C25.8451 30.0429 25.7452 30.078 25.6426 30.0983C25.5354 30.1194 25.3987 30.1292 25.2305 30.1292H11.3997L11.7217 29.8356L11.722 29.8353C11.7223 29.835 11.7228 29.8347 11.7233 29.8343C11.7244 29.8333 11.7258 29.8316 11.7279 29.8297C11.732 29.8258 11.7384 29.8202 11.7464 29.8129C11.7624 29.7982 11.7856 29.7766 11.8141 29.75C11.8713 29.6967 11.9501 29.6225 12.0361 29.5393C12.2105 29.3709 12.4082 29.172 12.5218 29.0327C12.7297 28.7779 12.8475 28.5718 12.9798 28.3556C13.1132 28.1378 13.2574 27.9167 13.5114 27.6541C13.8958 27.2567 14.0049 26.9113 14.1006 26.5339C14.1982 26.1489 14.2834 25.7161 14.6383 25.2123C15.0871 24.5754 15.6466 24.2491 16.1702 23.9384C16.6969 23.6258 17.1886 23.3284 17.5775 22.7527C17.8147 22.4014 18.1807 21.8226 18.4886 21.3296C18.6423 21.0835 18.7811 20.8594 18.8815 20.6969C18.9317 20.6157 18.9723 20.5499 19.0003 20.5044C19.0143 20.4816 19.0252 20.4637 19.0326 20.4517C19.0362 20.4457 19.0391 20.4413 19.041 20.4382C19.0419 20.4368 19.0425 20.4357 19.043 20.4349C19.0432 20.4345 19.0435 20.4341 19.0436 20.4339L19.2233 20.1413L19.3418 20.4639ZM18.7705 21.5097C18.4629 22.0022 18.0936 22.586 17.8525 22.9429C17.417 23.5877 16.8638 23.9175 16.3389 24.229C15.811 24.5423 15.312 24.837 14.9098 25.4078C14.5966 25.8523 14.5236 26.2227 14.4235 26.6175C14.3214 27.0201 14.193 27.4315 13.7497 27.8898C13.5201 28.1271 13.3909 28.3247 13.2633 28.533C13.1348 28.743 13.004 28.9711 12.7786 29.2473C12.6509 29.4039 12.44 29.6154 12.2663 29.7832C12.2632 29.7863 12.2599 29.7891 12.2568 29.7921H25.2305C25.389 29.7921 25.5016 29.7827 25.5788 29.7674C25.6187 29.7596 25.6437 29.7508 25.6589 29.7444C25.6511 29.7254 25.637 29.6963 25.6097 29.6562C25.5299 29.5389 25.4102 29.4094 25.2682 29.2319C25.1351 29.0654 24.9932 28.8682 24.9115 28.6532C24.8336 28.4485 24.7287 28.3056 24.61 28.1466C24.4918 27.9881 24.3592 27.8128 24.2591 27.5616C24.1521 27.2928 23.9016 27.1022 23.5934 26.8799C23.3042 26.6713 22.9578 26.4309 22.7917 26.0642C22.6829 25.8241 22.4646 25.6156 22.2197 25.37C21.9894 25.1389 21.7312 24.8702 21.639 24.5342C21.5415 24.1791 21.2963 24.0377 20.9665 23.8732C20.6458 23.7132 20.2398 23.5314 20.0153 23.0575C19.8438 22.6954 19.5966 22.0741 19.3939 21.5482C19.2986 21.3009 19.2126 21.0732 19.1481 20.901C19.049 21.0614 18.9166 21.2757 18.7705 21.5097Z" fill="#5B0058"/>
<path d="M15.7407 13.0628C16.389 13.8391 17.3532 13.8609 17.9813 14.6456C18.3458 15.1009 19.6667 16.9831 19.6667 16.9831C19.6667 16.9831 20.2434 16.2604 20.5 15.8034C20.7983 15.2721 20.8334 15.4443 21.5 14.7921C21.7755 14.5227 21.8104 14.4712 22 14.118C22.2194 13.7093 22.971 13.1843 23.1667 12.7697C23.305 12.4765 23.8673 12.2215 24 11.927C24.2192 11.4405 25.3292 10.9157 24.3333 10.9157C23.3375 10.9157 20.7828 11.6423 18.5 11.48C16.7613 11.3563 13.9385 10.4104 14.1224 10.6006C14.4525 10.9421 14.5009 11.1586 14.8693 11.48C15.5 12.0301 15.2315 12.453 15.7407 13.0628Z" fill="#5B0058"/>
<path d="M19.7965 17.0891L19.7968 17.0885L19.8033 17.0803C19.8077 17.0747 19.814 17.0666 19.8222 17.0562C19.8387 17.0353 19.8625 17.0048 19.8918 16.967C19.9505 16.8914 20.0314 16.7859 20.1204 16.6658C20.2969 16.4276 20.5112 16.1253 20.6451 15.8867C20.7861 15.6354 20.8565 15.5634 20.9661 15.4745C21.0902 15.3739 21.2752 15.2465 21.6158 14.9133C21.7532 14.7788 21.8401 14.69 21.9159 14.5871C21.9911 14.4851 22.0526 14.373 22.1464 14.1983C22.191 14.1153 22.2677 14.0185 22.3694 13.9083C22.4701 13.7991 22.5868 13.6855 22.7079 13.5673C22.8273 13.4507 22.9507 13.3294 23.0566 13.2104C23.1612 13.0928 23.2576 12.9678 23.317 12.8421C23.3381 12.7974 23.3813 12.7438 23.4501 12.6791C23.5179 12.6155 23.5991 12.5517 23.6877 12.482C23.7737 12.4144 23.8673 12.3406 23.9475 12.2644C24.0266 12.1891 24.1051 12.1 24.1516 11.9968C24.1923 11.9065 24.2821 11.8015 24.401 11.6844C24.4586 11.6275 24.5184 11.5723 24.5777 11.5168C24.6356 11.4626 24.6939 11.4075 24.7431 11.3552C24.7906 11.3046 24.8396 11.2463 24.871 11.1853C24.9015 11.1262 24.9355 11.0234 24.8765 10.9207C24.8242 10.8294 24.7272 10.793 24.6519 10.7752C24.5691 10.7555 24.4626 10.7472 24.3333 10.7472C24.0695 10.7472 23.711 10.7947 23.2971 10.8601C22.874 10.9269 22.402 11.011 21.8743 11.0922C20.8283 11.2531 19.6339 11.3916 18.5116 11.3117C17.659 11.2511 16.5322 10.9875 15.6308 10.759C15.1844 10.6459 14.7896 10.5404 14.5227 10.4763C14.3906 10.4446 14.2803 10.4206 14.207 10.4114C14.188 10.4091 14.1683 10.4071 14.1493 10.4068C14.134 10.4066 14.1039 10.407 14.0722 10.417C14.0559 10.4222 14.0264 10.4339 13.9993 10.4608C13.9678 10.492 13.9472 10.5363 13.9472 10.5859C13.9472 10.629 13.9627 10.6614 13.9726 10.6784C13.9831 10.6964 13.9948 10.7099 14.0032 10.7186L14.108 10.8334C14.2028 10.944 14.2711 11.0425 14.3472 11.1475C14.4503 11.2895 14.5628 11.4354 14.7603 11.6077C15.0426 11.8539 15.1205 12.0635 15.191 12.298C15.2651 12.5445 15.3332 12.8363 15.6132 13.1716C15.9629 13.5904 16.3977 13.8034 16.7945 14.0021C17.1978 14.204 17.5637 14.3917 17.8518 14.7516C18.0304 14.9747 18.4485 15.5544 18.8254 16.0835C19.0131 16.3469 19.1895 16.5963 19.3189 16.7797C19.3836 16.8714 19.4368 16.9466 19.4736 16.9989C19.4919 17.0251 19.5061 17.0456 19.5159 17.0595C19.5207 17.0664 19.5244 17.0718 19.5269 17.0753C19.5282 17.0771 19.5292 17.0784 19.5299 17.0793C19.5302 17.0797 19.5304 17.08 19.5305 17.0803L19.5308 17.0806L19.6581 17.2623L19.7965 17.0891ZM19.5904 16.5842C19.4608 16.4005 19.284 16.1506 19.0959 15.8867C18.7214 15.361 18.2969 14.772 18.1109 14.5397C17.771 14.115 17.3406 13.8992 16.9426 13.6999C16.5383 13.4975 16.1667 13.3115 15.8681 12.954C15.6389 12.6796 15.5866 12.4548 15.51 12.1999C15.4298 11.933 15.3265 11.6561 14.9781 11.3522C14.8073 11.2032 14.7115 11.0799 14.6158 10.948C14.5869 10.9081 14.5565 10.8676 14.525 10.8245C14.785 10.8887 15.1395 10.9819 15.5497 11.0859C16.4483 11.3137 17.6022 11.5851 18.4882 11.6482C19.6488 11.7307 20.8733 11.587 21.9244 11.4253C22.4452 11.3452 22.9413 11.2575 23.3486 11.1932C23.7649 11.1275 24.0991 11.0843 24.3333 11.0843C24.4169 11.0843 24.4797 11.0887 24.5256 11.0948C24.5183 11.1032 24.5108 11.113 24.5015 11.1228C24.4606 11.1664 24.4096 11.2149 24.3512 11.2696C24.294 11.3231 24.2298 11.3823 24.1682 11.4431C24.0484 11.5611 23.9171 11.7043 23.8482 11.8572C23.8284 11.9011 23.7868 11.9543 23.719 12.0188C23.6522 12.0823 23.5715 12.1461 23.483 12.2157C23.3973 12.2831 23.3038 12.3565 23.2232 12.4323C23.1436 12.507 23.0643 12.5953 23.0162 12.6972C22.9777 12.7788 22.9068 12.8748 22.8088 12.9849C22.7119 13.0938 22.5969 13.2074 22.4765 13.325C22.3579 13.4408 22.2336 13.5611 22.1256 13.6782C22.0185 13.7943 21.9186 13.9164 21.8534 14.0377C21.7577 14.2159 21.7071 14.3063 21.6487 14.3856C21.5908 14.4641 21.522 14.536 21.384 14.671C21.0581 14.9898 20.8924 15.1024 20.7577 15.2115C20.6086 15.3324 20.5123 15.4401 20.3551 15.7201C20.2324 15.9385 20.0297 16.2263 19.8538 16.4637C19.787 16.5538 19.7244 16.6353 19.6731 16.702C19.6483 16.6669 19.6208 16.6272 19.5904 16.5842Z" fill="#5B0058"/>
</svg>
