<svg viewBox="0 0 37 37" fill="#FF47F9" xmlns="http://www.w3.org/2000/svg">
<path fill-rule="evenodd" clip-rule="evenodd" d="M32 18.5C32 25.9558 25.9558 32 18.5 32C11.0442 32 5 25.9558 5 18.5C5 11.0442 11.0442 5 18.5 5C25.9558 5 32 11.0442 32 18.5ZM17 28.3644C17 28.7881 17.2131 29 17.6392 29H18.8608C19.2869 29 19.5 28.7881 19.5 28.3644V14.8051C19.5 14.3814 19.2869 14.1695 18.8608 14.1695H17.6392C17.2131 14.1695 17 14.3814 17 14.8051V28.3644ZM17 10.8503C17 11.274 17.2131 11.4859 17.6392 11.4859H18.8608C19.2869 11.4859 19.5 11.274 19.5 10.8503V9.63559C19.5 9.21186 19.2869 9 18.8608 9H17.6392C17.2131 9 17 9.21186 17 9.63559V10.8503Z"/>
</svg>
