<svg viewBox="0 0 37 37" fill="none" xmlns="http://www.w3.org/2000/svg">
<path fill-rule="evenodd" clip-rule="evenodd" d="M32 18.5C32 25.9558 25.9559 32 18.5 32C11.0442 32 5.00001 25.9558 5.00001 18.5C5.00001 11.0442 11.0442 5 18.5 5C25.9559 5 32 11.0442 32 18.5ZM22.55 18.5C22.55 16.2632 20.7368 14.45 18.5 14.45C16.2632 14.45 14.45 16.2632 14.45 18.5C14.45 20.7368 16.2632 22.55 18.5 22.55C20.7368 22.55 22.55 20.7368 22.55 18.5ZM23.9 18.5C23.9 21.4823 21.4823 23.9 18.5 23.9C15.5177 23.9 13.1 21.4823 13.1 18.5C13.1 15.5177 15.5177 13.1 18.5 13.1C21.4823 13.1 23.9 15.5177 23.9 18.5ZM24.0854 27.4956L23.9 27.5H13.1L12.9146 27.4956C11.0739 27.4022 9.59779 25.9261 9.50439 24.0854L9.5 23.9V13.1C9.5 11.1118 11.1118 9.5 13.1 9.5H23.9C25.8882 9.5 27.5 11.1118 27.5 13.1V23.9C27.5 25.826 25.9875 27.3991 24.0854 27.4956ZM23.9 26.15C25.1426 26.15 26.15 25.1426 26.15 23.9V13.1C26.15 11.8574 25.1426 10.85 23.9 10.85H13.1C11.8574 10.85 10.85 11.8574 10.85 13.1V23.9C10.85 25.1426 11.8574 26.15 13.1 26.15H23.9ZM24.8 13.1C24.8 13.5971 24.3971 14 23.9 14C23.4029 14 23 13.5971 23 13.1C23 12.6029 23.4029 12.2 23.9 12.2C24.3971 12.2 24.8 12.6029 24.8 13.1Z" fill="#FF47F9"/>
</svg>
