<svg viewBox="0 0 37 37" fill="#59FF00" xmlns="http://www.w3.org/2000/svg">
<path d="M29 28.5V8.5H19C18.4477 8.5 18 8.05228 18 7.5C18 6.94772 18.4477 6.5 19 6.5H29C30.1046 6.5 31 7.39543 31 8.5V28.5C31 29.6046 30.1046 30.5 29 30.5H19C18.4477 30.5 18 30.0523 18 29.5C18 28.9477 18.4477 28.5 19 28.5H29Z"/>
<path d="M14.9287 11.4287C15.3191 11.0383 15.9522 11.0385 16.3428 11.4287L22.707 17.793C23.0976 18.1835 23.0976 18.8165 22.707 19.207L16.3428 25.5713C15.9522 25.9615 15.3191 25.9617 14.9287 25.5713C14.5383 25.1809 14.5385 24.5478 14.9287 24.1572L19.5859 19.5H7C6.44772 19.5 6 19.0523 6 18.5C6 17.9477 6.44772 17.5 7 17.5H19.5859L14.9287 12.8428C14.5385 12.4522 14.5383 11.8191 14.9287 11.4287Z"/>
</svg>
