<svg viewBox="0 0 37 37" fill="#59FF00" xmlns="http://www.w3.org/2000/svg">
<path d="M29 28.5V8.5H19C18.4477 8.5 18 8.05228 18 7.5C18 6.94772 18.4477 6.5 19 6.5H29C30.1046 6.5 31 7.39543 31 8.5V28.5C31 29.6046 30.1046 30.5 29 30.5H19C18.4477 30.5 18 30.0523 18 29.5C18 28.9477 18.4477 28.5 19 28.5H29Z"/>
<path d="M14.0712 25.5713C13.6808 25.9617 13.0477 25.9615 12.6571 25.5713L6.29286 19.207C5.90234 18.8165 5.90234 18.1835 6.29286 17.793L12.6571 11.4287C13.0477 11.0385 13.6808 11.0383 14.0712 11.4287C14.4616 11.8191 14.4614 12.4522 14.0712 12.8428L9.41396 17.5L21.9999 17.5C22.5522 17.5 22.9999 17.9477 22.9999 18.5C22.9999 19.0523 22.5522 19.5 21.9999 19.5L9.41396 19.5L14.0712 24.1572C14.4614 24.5478 14.4616 25.1809 14.0712 25.5713Z"/>
</svg>
