<svg viewBox="0 0 37 37" fill="none" xmlns="http://www.w3.org/2000/svg">
<path d="M15.1751 27.9313C14.8797 28.187 14.4182 28.0202 14.3546 27.6347L14 25.4863L8.725 25.4606C7.77231 25.4606 7 24.725 7 23.8177V10.1272C7 9.21991 7.77231 8.48438 8.725 8.48438H28.275C29.2277 8.48438 30 9.21991 30 10.1272V23.8177C30 24.725 29.2277 25.4606 28.275 25.4606L18 25.4863L15.1751 27.9313ZM11.3125 17.2463C10.8362 17.2463 10.45 17.614 10.45 18.0677C10.45 18.5214 10.8362 18.8891 11.3125 18.8891H25.6875C26.1638 18.8891 26.55 18.5214 26.55 18.0677C26.55 17.614 26.1638 17.2463 25.6875 17.2463H11.3125ZM11.3125 15.0558C10.8362 15.0558 10.45 15.4236 10.45 15.8772C10.45 16.3309 10.8362 16.6987 11.3125 16.6987H25.6875C26.1638 16.6987 26.55 16.3309 26.55 15.8772C26.55 15.4236 26.1638 15.0558 25.6875 15.0558H11.3125ZM11.3125 12.8653C10.8362 12.8653 10.45 13.2331 10.45 13.6868C10.45 14.1404 10.8362 14.5082 11.3125 14.5082H25.6875C26.1638 14.5082 26.55 14.1404 26.55 13.6868C26.55 13.2331 26.1638 12.8653 25.6875 12.8653H11.3125Z" fill="#FF47F9"/>
</svg>
