<svg viewBox="0 0 37 37" fill="#FF47F9" xmlns="http://www.w3.org/2000/svg">
<path d="M31.0378 14.2245L12.4355 14.7091L12.4938 16.9473L18.5838 25.6223C18.7065 25.7971 18.9081 25.8988 19.121 25.8932L28.791 25.6413C29.0824 25.6337 29.3315 25.4285 29.3957 25.1429L31.6758 15.0051C31.7673 14.5983 31.4529 14.2137 31.0378 14.2245Z" />
<path d="M12.8096 16.8422L18.844 25.438C18.9054 25.5254 19.0062 25.5763 19.1126 25.5735L28.7826 25.3216C28.9282 25.3178 29.0529 25.2152 29.085 25.0725L31.3653 14.9346C31.411 14.7313 31.2537 14.5389 31.0462 14.5443L12.7622 15.0206L12.8096 16.8422Z" />
<path d="M29.5206 28.5019C29.5505 29.6497 28.6483 30.6043 27.5053 30.6341C26.3624 30.6638 25.4117 29.7575 25.3818 28.6097C25.3519 27.4619 26.2542 26.5073 27.3971 26.4775C28.54 26.4477 29.4907 27.3541 29.5206 28.5019Z" />
<path d="M28.8839 28.5185C28.8632 27.7238 28.205 27.0964 27.4137 27.117C26.6225 27.1376 25.9978 27.7985 26.0185 28.5931C26.0392 29.3877 26.6974 30.0152 27.4887 29.9946L27.5053 30.6341C26.3624 30.6638 25.4117 29.7575 25.3818 28.6097C25.3519 27.4619 26.2542 26.5073 27.3971 26.4775C28.54 26.4477 29.4907 27.3541 29.5206 28.5019C29.5505 29.6497 28.6483 30.6043 27.5053 30.6341L27.4887 29.9946C28.2799 29.974 28.9046 29.3131 28.8839 28.5185Z" />
<path d="M23.1532 28.6678C23.1831 29.8155 22.2808 30.7702 21.1379 30.7999C19.995 30.8297 19.0443 29.9234 19.0144 28.7756C18.9845 27.6278 19.8867 26.6732 21.0296 26.6434C22.1725 26.6136 23.1233 27.52 23.1532 28.6678Z" />
<path d="M22.5164 28.6843C22.4957 27.8897 21.8375 27.2622 21.0463 27.2829C20.2551 27.3035 19.6304 27.9643 19.6511 28.759C19.6718 29.5536 20.33 30.1811 21.1213 30.1605L21.1379 30.7999C19.995 30.8297 19.0443 29.9234 19.0144 28.7756C18.9845 27.6278 19.8867 26.6732 21.0296 26.6434C22.1725 26.6136 23.1233 27.52 23.1532 28.6678C23.1831 29.8155 22.2808 30.7702 21.1379 30.7999L21.1213 30.1605C21.9125 30.1398 22.5371 29.479 22.5164 28.6843Z" />
<path d="M6.53233 10.8298L10.2901 13.8525C10.4768 14.0026 10.6986 14.1036 10.9344 14.1454L13.4125 14.5856C13.6707 14.6315 13.8431 14.8784 13.7973 15.1367C13.7514 15.3949 13.5045 15.5673 13.2463 15.5214L10.7682 15.0812C10.3752 15.0114 10.0057 14.8434 9.69468 14.5932L5.93606 11.57C5.7319 11.4056 5.69975 11.1061 5.86409 10.9018C6.02854 10.6976 6.32803 10.6655 6.53233 10.8298Z" />
</svg>
