<svg viewBox="0 0 37 37" fill="none" xmlns="http://www.w3.org/2000/svg">
<path d="M23.6346 21.9231C20.6394 21.4952 20.2115 26.6298 20.2115 26.6298C20.2115 26.6298 15.2706 20.0984 14.2331 18.0721C13.3774 16.4007 13.3654 13.3654 13.3654 13.3654C13.3654 13.3654 15.7652 13.3659 16.7884 12.7134C17.5515 12.2267 19.2962 11.2317 18.9279 10.3702C18.3658 9.05545 18.2786 8.88729 17.3666 7.56023C16.5215 6.33052 15.0216 4.50239 13.5571 4.79077C12.4952 4.99988 12.0504 5.58537 11.2275 6.28558C10.3733 7.01245 9.67252 7.36843 9.32167 8.43269C8.77704 10.0847 8.88764 11.039 8.9872 12.7134C9.24029 16.9697 9.66644 17.8061 11.5223 21.4488L11.5575 21.5178C13.5456 25.4204 18.6087 30.7724 20.931 31.5818C23.2532 32.3912 23.5414 31.8356 24.8706 30.8644C25.8492 30.1493 26.5721 29.5111 27.2952 28.6818C27.9849 27.8908 28.3292 27.1513 28.1913 26.1107C28.0677 25.1776 27.6515 25.223 27.0577 24.4904C26.4307 23.7168 24.6214 22.064 23.6346 21.9231Z" fill="#FF47F9"/>
<path d="M19.7133 26.5883C20.0454 26.616 20.3776 26.6437 20.7098 26.6713C20.8631 25.349 21.2291 23.8701 22.0559 22.9625C22.4666 22.5231 22.9839 22.3294 23.5639 22.4181C24.5811 22.7032 25.8196 23.8376 26.6693 24.8052C26.9017 25.1034 27.236 25.378 27.4287 25.5603C27.6033 25.7293 27.651 25.8742 27.6956 26.1764C27.8226 26.9922 27.5117 27.6908 26.9183 28.3532C26.2306 29.1499 25.4413 29.8321 24.5756 30.4607C23.969 30.8962 23.4515 31.3924 22.9548 31.452C22.4302 31.535 21.7466 31.3333 21.0955 31.1097C17.3585 29.0559 14.1809 25.1494 12.003 21.2909C10.4741 18.5434 9.52423 15.817 9.48632 12.6837C9.43435 11.77 9.35082 10.8896 9.45501 10.0594C9.51435 9.56522 9.63525 9.07783 9.79653 8.58923C10.0201 7.78702 10.7498 7.33742 11.5515 6.66637C12.3109 6.00948 12.8546 5.40309 13.6537 5.28135C14.8367 5.09857 16.0872 6.59653 16.9545 7.84342C17.5923 8.74068 18.063 9.54677 18.4681 10.5667C18.5632 10.597 18.274 11.0772 17.8683 11.3771C17.4679 11.7038 17.0056 11.9858 16.5196 12.2918C15.7242 12.7422 14.4524 12.8386 13.3655 12.8654L12.8634 12.8652L12.8654 13.3673C12.9258 15.031 13.03 16.6685 13.7881 18.3C14.8274 20.1573 16.0374 21.7623 17.2253 23.4301C18.0779 24.6073 18.9411 25.7748 19.8128 26.9315C20.0786 26.7304 20.3444 26.5293 20.6103 26.3282C19.7452 25.1802 18.883 24.0141 18.0353 22.8438C16.8631 21.2025 15.621 19.5319 14.6782 17.8442C14.0626 16.5514 13.9107 14.8919 13.8654 13.3634L13.3652 13.8654C14.5966 13.8114 15.7772 13.8204 17.0573 13.1349C17.5214 12.8418 18.0279 12.5368 18.5012 12.1513C18.7383 11.9553 18.9739 11.7434 19.1836 11.4487C19.3828 11.1771 19.6063 10.6667 19.3876 10.1736C19.0052 9.18737 18.3946 8.13013 17.7786 7.27703C16.7822 6.00062 15.7725 4.15245 13.4605 4.30019C12.3467 4.47097 11.547 5.35866 10.9035 5.90478C10.2427 6.47235 9.17142 7.13111 8.84681 8.27614C8.67079 8.80902 8.53096 9.3663 8.46228 9.93907C8.34289 10.9127 8.43914 11.8482 8.48809 12.7431C8.4922 15.8485 9.60722 19.0984 11.112 21.7448C13.5016 25.8727 16.3718 29.625 20.7664 32.0539C21.4729 32.2832 22.1975 32.5598 23.1134 32.4393C24.0721 32.2689 24.6048 31.644 25.1655 31.2681C26.0638 30.6171 26.9347 29.866 27.672 29.0104C28.3463 28.3011 28.8851 27.1178 28.687 26.045C28.6521 25.6775 28.4651 25.1419 28.1313 24.8487C27.8308 24.5675 27.6341 24.4129 27.4461 24.1756C26.3766 23.0344 25.4785 21.9723 23.7053 21.4281C22.8608 21.2749 21.8825 21.6481 21.3308 22.2738C20.2099 23.5534 19.9063 25.0771 19.7133 26.5883ZM20.7098 26.6713L19.7133 26.5883L20.6103 26.3282L19.8128 26.9315L20.6013 27.9738L20.7098 26.6713Z" fill="#FF47F9"/>
</svg>
