<svg viewBox="0 0 37 37" fill="none" xmlns="http://www.w3.org/2000/svg">
<path d="M20.1999 22.3989C17.2047 21.971 16.7768 27.1056 16.7768 27.1056C16.7768 27.1056 11.8359 20.5742 10.7984 18.5479C9.94265 16.8764 9.93063 13.8411 9.93063 13.8411C9.93063 13.8411 12.3305 13.8417 13.3537 13.1891C14.1168 12.7025 15.8615 11.7075 15.4931 10.8459C14.9311 9.53123 14.8438 9.36306 13.9318 8.036C13.0867 6.80629 11.5869 4.97817 10.1224 5.26654C9.06043 5.47565 8.61566 6.06115 7.79279 6.76135C6.93858 7.48823 6.23779 7.8442 5.88694 8.90846C5.34232 10.5605 5.45292 11.5148 5.55248 13.1891C5.80556 17.4454 6.23171 18.2819 8.08756 21.9246L8.12274 21.9936C10.1109 25.8962 15.174 31.2482 17.4962 32.0576C19.8185 32.867 20.1067 32.3114 21.4358 31.3402C22.4144 30.6251 23.1373 29.9869 23.8604 29.1576C24.5502 28.3666 24.8944 27.6271 24.7566 26.5865C24.6329 25.6534 24.2168 25.6988 23.623 24.9662C22.996 24.1926 21.1866 22.5398 20.1999 22.3989Z" fill="#4794ff"/>
<path d="M17.471 9.25315C17.4567 8.7933 17.8184 8.40504 18.2777 8.43098C19.5562 8.50317 20.81 8.83332 21.9624 9.40473C23.3642 10.0998 24.5725 11.1303 25.4802 12.4048C26.3879 13.6792 26.9667 15.1582 27.1653 16.7101C27.3286 17.986 27.2307 19.2788 26.8809 20.5107C26.7552 20.9533 26.27 21.1682 25.8402 21.0042C25.4103 20.8403 25.1994 20.3595 25.3168 19.9147C25.5736 18.9414 25.6411 17.9252 25.5127 16.9216C25.3489 15.6418 24.8716 14.4222 24.1231 13.3713C23.3746 12.3204 22.3782 11.4706 21.2222 10.8974C20.3158 10.4479 19.3333 10.1795 18.3296 10.104C17.8708 10.0695 17.4854 9.713 17.471 9.25315Z" fill="#4794ff"/>
<path d="M17.5553 5.54947C17.538 4.99746 17.9719 4.53031 18.5237 4.55369C20.4174 4.63393 22.2772 5.1099 23.9818 5.95516C25.9858 6.94881 27.7133 8.42203 29.0108 10.244C30.3084 12.0659 31.1359 14.1801 31.4198 16.3987C31.6613 18.2861 31.503 20.1993 30.9598 22.0151C30.8015 22.5442 30.2181 22.8016 29.7021 22.6048C29.186 22.408 28.9301 21.8303 29.0816 21.2992C29.5112 19.7936 29.632 18.2129 29.4324 16.653C29.1904 14.7617 28.485 12.9594 27.3788 11.4063C26.2727 9.85314 24.8001 8.59727 23.0918 7.75021C21.6828 7.05159 20.1496 6.6489 18.5862 6.56269C18.0348 6.53227 17.5725 6.10149 17.5553 5.54947Z" fill="#4794ff"/>
</svg>
