<svg viewBox="0 0 37 37" fill="#FF47F9" xmlns="http://www.w3.org/2000/svg">
<path fill-rule="evenodd" clip-rule="evenodd" d="M31 9C31 7.34315 29.6569 6 28 6H9C7.34315 6 6 7.34315 6 9V28C6 29.6569 7.34315 31 9 31H28C29.6569 31 31 29.6569 31 28V9ZM9.71094 16.3516L20.6484 11.2734L25.7266 15.1797L15.1797 20.6484L9.71094 16.3516ZM14.7891 20.8438L9.71094 16.7422V22.0156L14.7891 25.7266V20.8438ZM15.1797 21.0391V25.7266L25.7266 20.4531V15.5703L15.1797 21.0391Z"/>
<path d="M17.0627 14.9326L15.9001 15.8735L19.582 18.5087L19.582 20.2578L20.2578 19.0859L20.8437 19.6719L20.8437 17.7188L17.0627 14.9326Z"/>
</svg>
