<svg viewBox="0 0 38 37" fill="none" xmlns="http://www.w3.org/2000/svg">
<path d="M0 28.883V0.0223622H8.02259C9.87752 0.0223622 20.0797 -0.259465 12.5904 1.17791C13.7806 1.93889 14.6617 2.9864 15.2336 4.32045C15.8056 5.6545 20.0797 12.4516 16.0916 8.87219C16.0916 10.5726 15.8056 12.0805 15.2336 13.3958C14.6617 14.711 13.7845 15.7444 12.602 16.496C11.4194 17.2382 9.90844 17.6093 8.06896 17.6093L2.87515 21.7524L4.82283 17.6093H1.57669V14.4527H7.97622C9.24375 14.4527 10.264 14.2272 11.0369 13.7762C11.8175 13.3253 12.3817 12.6865 12.7295 11.8597C13.085 11.0236 13.2628 10.0277 13.2628 8.87219C13.2628 7.71664 13.085 6.70671 12.7295 5.84239C12.374 4.97808 11.8059 4.31106 11.0253 3.84132C10.2446 3.36219 9.21284 3.12262 7.92984 3.12262H2.87515V28.883H0ZM11.176 15.9182L17.019 28.883H13.6801L7.92984 15.9182H11.176Z" fill="#323232"/>
<path d="M20.5115 37V7.23751H23.1548V10.676H23.4794C23.6804 10.3002 23.9586 9.82106 24.3141 9.23859C24.6774 8.64672 25.1952 8.12062 25.8676 7.66028C26.5478 7.19054 27.4675 6.95567 28.6268 6.95567C30.1263 6.95567 31.4479 7.41131 32.5918 8.3226C33.7356 9.23389 42.2693 12.4516 35.2698 12.1979C35.9113 13.8702 36.2321 15.8431 36.2321 18.1166C36.2321 20.4089 38.4435 30.7431 35.2698 24.2326C34.6283 25.9048 33.7395 27.0463 32.6034 27.967C31.4672 28.8783 30.1572 29.3339 28.6732 29.3339C27.5293 29.3339 24.0832 31.2035 23.3954 30.7431C22.7075 30.2734 24.7083 27.6429 24.3373 27.051C23.9663 26.4497 23.6804 25.9518 23.4794 25.5572H23.2475V37H20.5115ZM23.2012 18.0602C23.2012 19.6949 23.3983 21.137 23.7924 22.3865C24.1866 23.6266 24.7624 24.599 25.5198 25.3036C26.2773 25.9988 27.2047 26.3464 28.3022 26.3464C29.4461 26.3464 30.4006 25.98 31.1658 25.2472C31.9387 24.505 32.5183 23.5092 32.9048 22.2597C33.299 21.0008 33.4961 19.601 33.4961 18.0602C33.4961 16.5383 33.3028 15.1667 32.9164 13.9453C32.5377 12.7146 31.9619 11.7423 31.189 11.0283C30.4238 10.3049 29.4616 9.94319 28.3022 9.94319C27.1893 9.94319 26.2541 10.2861 25.4966 10.9719C24.7392 11.6483 24.1673 12.5972 23.7808 13.8185C23.3944 15.0304 23.2012 16.4443 23.2012 18.0602Z" fill="#323232"/>
</svg>
