<svg viewBox="0 0 37 37" fill="none" xmlns="http://www.w3.org/2000/svg">
<path d="M30 16.25C30 11.0033 25.7467 6.75003 20.5 6.75003C15.2533 6.75003 11 11.0033 11 16.25C11 21.4967 15.2533 25.75 20.5 25.75V26.75C14.701 26.75 9.99997 22.049 9.99997 16.25C9.99997 10.451 14.701 5.75003 20.5 5.75003C26.299 5.75003 31 10.451 31 16.25C31 22.049 26.299 26.75 20.5 26.75V25.75C25.7467 25.75 30 21.4967 30 16.25ZM28.9502 16.25C28.9502 11.7288 25.3996 8.03676 20.9345 7.81058L20.5 7.79984C15.833 7.79984 12.0498 11.583 12.0498 16.25L12.0605 16.6846C12.2867 21.1496 15.9787 24.7002 20.5 24.7002C25.167 24.7002 28.9502 20.917 28.9502 16.25ZM29.9502 16.25C29.9502 21.4693 25.7192 25.7002 20.5 25.7002C15.2807 25.7002 11.0498 21.4693 11.0498 16.25C11.0498 11.0308 15.2807 6.79984 20.5 6.79984C25.7192 6.79984 29.9502 11.0308 29.9502 16.25Z" fill="#FF47F9"/>
<path d="M12.7929 23.043C13.1834 22.6525 13.8165 22.6525 14.207 23.043C14.5975 23.4335 14.5975 24.0665 14.207 24.4571L7.70699 30.9571C7.31646 31.3476 6.68345 31.3476 6.29292 30.9571C5.9024 30.5665 5.9024 29.9335 6.29292 29.543L12.7929 23.043Z" fill="#FF47F9"/>
</svg>
