<svg viewBox="0 0 37 37" fill="none" xmlns="http://www.w3.org/2000/svg">
<path d="M22.585 6.42468L26.9151 8.92468C27.3934 9.20083 27.5573 9.81242 27.2811 10.2907L26.8698 11.0031C26.5937 11.4814 25.9821 11.6453 25.5038 11.3691L21.1737 8.86911C20.6954 8.59297 20.5315 7.98138 20.8077 7.50308L21.2189 6.79071C21.4951 6.31242 22.1067 6.14854 22.585 6.42468Z" fill="#FF47F9"/>
<path d="M11.9259 27.9618L11.4747 24.0626C11.45 23.8493 11.4947 23.6337 11.6021 23.4477L19.0012 10.6319C19.2773 10.1537 19.8889 9.98978 20.3672 10.2659L24.6974 12.7659C25.1757 13.0421 25.3395 13.6537 25.0634 14.1319L17.6803 26.9199C17.5631 27.1229 17.3783 27.2782 17.1582 27.3589L13.2633 28.7858C12.6559 29.0084 12.0002 28.6044 11.9259 27.9618Z" fill="#FF47F9"/>
</svg>
