<svg viewBox="0 0 37 37" fill="#FF47F9" xmlns="http://www.w3.org/2000/svg">
<path d="M19.3205 24.9282C19.6358 25.3816 19.5239 26.0055 19.0705 26.3208L14.2082 29.7017L8.96215 26.3413C8.49709 26.0435 8.3616 25.4255 8.65942 24.9604C8.95727 24.4954 9.57521 24.3599 10.0403 24.6577L13.1858 26.6724V15.4995C13.1858 14.9472 13.6335 14.4995 14.1858 14.4995C14.7379 14.4998 15.1858 14.9474 15.1858 15.4995V26.5854L17.928 24.6782C18.3814 24.3629 19.0052 24.4749 19.3205 24.9282Z" />
<path d="M28.3196 12.0718C28.6349 11.6184 28.5229 10.9945 28.0696 10.6792L23.2073 7.29834L17.9612 10.6587C17.4961 10.9565 17.3606 11.5745 17.6584 12.0396C17.9563 12.5046 18.5742 12.6401 19.0393 12.3423L22.1848 10.3276V21.5005C22.1848 22.0528 22.6325 22.5005 23.1848 22.5005C23.7369 22.5002 24.1848 22.0526 24.1848 21.5005V10.4146L26.927 12.3218C27.3804 12.6371 28.0042 12.5251 28.3196 12.0718Z" />
</svg>
