<svg viewBox="0 0 38 37" fill="none" xmlns="http://www.w3.org/2000/svg">
<path d="M12.0654 5.49032V8.47419H10.004C10.004 8.47419 13.3387 13.9645 9.67052 13.9645C6.66933 13.9645 9.33706 8.47419 9.33706 8.47419H0V5.49032H12.0654ZM3.51655 0H7.09374V21.8419C7.09374 22.8366 7.24026 23.5825 7.53331 24.0798C7.83646 24.5672 8.22045 24.8954 8.68528 25.0645C9.16022 25.2237 9.66042 25.3032 10.1859 25.3032C10.58 25.3032 10.9033 25.2833 11.156 25.2435C11.4086 25.1938 11.6107 25.154 11.7623 25.1242L12.4898 28.2871C12.2473 28.3766 10.105 28.3169 9.67052 28.4065C9.23601 28.5059 13.0052 32.6734 9.33706 33.6581C6.00239 32.3452 9.97367 28.8341 9.00359 28.4065C8.04361 27.9788 5.09294 26.9841 4.45632 26.1089C3.82981 25.2336 3.51655 24.1296 3.51655 22.7968V0Z" fill="#323232"/>
<path d="M17.4464 37V5.49032H20.9023V9.13064H21.3267C21.5894 8.73279 21.9532 8.22554 22.418 7.60887C22.893 6.98226 23.57 6.42527 24.4491 5.9379C25.3384 5.44059 26.5409 5.19194 28.0566 5.19194C30.017 5.19194 31.745 5.67433 33.2405 6.63911C34.7361 7.6039 35.9032 8.97151 36.7419 10.7419C37.5806 12.5124 38 14.6011 38 17.0081C38 19.4349 37.5806 21.5386 36.7419 23.319C35.9032 25.0894 29.6785 28.2871 28.0112 28.5556C27.0875 28.5556 31.6793 32.0169 28.6781 34.4126C28.391 34.6077 28.0451 34.7947 27.6322 34.971C22.3422 33.3298 27.0108 29.3911 26.3438 28.7048C25.4445 28.2075 22.9334 27.0935 22.4483 26.4669C21.9633 25.8304 21.7359 26.0804 21.7359 26.1089V27.0936L21.0235 37H17.4464ZM20.9629 16.9484C20.9629 18.679 21.2206 20.2058 21.7359 21.5286C22.2513 22.8415 23.0041 23.871 23.9944 24.6169C24.9847 25.353 26.1973 25.721 27.6322 25.721C29.1278 25.721 30.3757 25.3331 31.3761 24.5573C32.3867 23.7715 33.1445 22.7172 33.6498 21.3944C34.1651 20.0616 34.4228 18.5796 34.4228 16.9484C34.4228 15.3371 34.1702 13.8849 33.6649 12.5919C33.1698 11.289 32.417 10.2595 31.4065 9.50363C30.4061 8.73777 29.148 8.35484 27.6322 8.35484C26.1771 8.35484 24.9544 8.71788 23.9641 9.44395C22.9738 10.1601 22.226 11.1646 21.7208 12.4577C21.2155 13.7407 20.9629 15.2376 20.9629 16.9484Z" fill="#323232"/>
</svg>
