<svg viewBox="0 0 37 37" fill="none" xmlns="http://www.w3.org/2000/svg">
<path fill-rule="evenodd" clip-rule="evenodd" d="M25.3887 13.6056C25.4492 12.4611 24.5375 11.5 23.3915 11.5H13.6142C12.466 11.5 11.5536 12.4645 11.6173 13.6109L12.3426 26.6664C12.4309 28.2562 13.7458 29.5 15.338 29.5H21.7028C23.2981 29.5 24.6144 28.2515 24.6986 26.6584L25.3887 13.6056ZM17.5 14.5H19.5V25.5H17.5V14.5ZM22.5 14.5H20.5V25.5H22.5V14.5ZM14.5 14.5H16.5V25.5H14.5V14.5Z" fill="#FF47F9"/>
<path d="M25.5 9.75C25.5 10.1642 25.1642 10.5 24.75 10.5H12.25C11.8358 10.5 11.5 10.1642 11.5 9.75C11.5 9.33579 11.8358 9 12.25 9H14.75C15.1642 9 15.5 8.66421 15.5 8.25C15.5 7.83579 15.8358 7.5 16.25 7.5H20.75C21.1642 7.5 21.5 7.83579 21.5 8.25C21.5 8.66421 21.8358 9 22.25 9H24.75C25.1642 9 25.5 9.33579 25.5 9.75Z" fill="#FF47F9"/>
</svg>
