<svg viewBox="0 0 37 37" fill="#432042" xmlns="http://www.w3.org/2000/svg">
<path d="M23.5 9.76562C23.5 12.527 21.2614 14.7656 18.5 14.7656C15.7386 14.7656 13.5 12.527 13.5 9.76562C13.5 7.0042 15.7386 4.76562 18.5 4.76562C21.2614 4.76562 23.5 7.0042 23.5 9.76562Z" />
<path d="M9.5 20.7656C9.5 17.4519 12.1863 14.7656 15.5 14.7656H21.5C24.8137 14.7656 27.5 17.4519 27.5 20.7656V31.1819C27.5 31.9169 26.7299 32.4124 26.0499 32.1334C24.2978 31.4147 21.2992 30.3317 19 30.2656C16.3674 30.19 12.872 31.3965 10.9392 32.1603C10.2608 32.4285 9.5 31.9334 9.5 31.2039V20.7656Z" />
</svg>
