<svg viewBox="0 0 37 37" fill="#FF47F9" xmlns="http://www.w3.org/2000/svg">
<path d="M20.5 11.5C20.5 12.6046 19.6046 13.5 18.5 13.5C17.3954 13.5 16.5 12.6046 16.5 11.5C16.5 10.3954 17.3954 9.5 18.5 9.5C19.6046 9.5 20.5 10.3954 20.5 11.5Z" />
<path d="M20.5 18.5C20.5 19.6046 19.6046 20.5 18.5 20.5C17.3954 20.5 16.5 19.6046 16.5 18.5C16.5 17.3954 17.3954 16.5 18.5 16.5C19.6046 16.5 20.5 17.3954 20.5 18.5Z" />
<path d="M20.5 25.5C20.5 26.6046 19.6046 27.5 18.5 27.5C17.3954 27.5 16.5 26.6046 16.5 25.5C16.5 24.3954 17.3954 23.5 18.5 23.5C19.6046 23.5 20.5 24.3954 20.5 25.5Z" />
</svg>
