<svg viewBox="0 0 37 37" fill="none" xmlns="http://www.w3.org/2000/svg">
<path d="M21.9478 20.6064C20.3829 20.3829 20.1593 23.0656 20.1593 23.0656C20.1593 23.0656 17.5778 19.6531 17.0357 18.5944C16.5886 17.7211 16.5823 16.1352 16.5823 16.1352C16.5823 16.1352 17.8362 16.1355 18.3708 15.7945C18.7695 15.5402 19.6811 15.0204 19.4886 14.5702C19.195 13.8833 19.1494 13.7955 18.6729 13.1021C18.2313 12.4596 17.4477 11.5044 16.6825 11.6551C16.1277 11.7644 15.8953 12.0703 15.4653 12.4361C15.019 12.8159 14.6529 13.0019 14.4696 13.5579C14.185 14.4211 14.2428 14.9197 14.2948 15.7945C14.4271 18.0184 14.6497 18.4554 15.6194 20.3586L15.6377 20.3947C16.6765 22.4337 19.3219 25.23 20.5352 25.6529C21.7486 26.0758 21.8991 25.7855 22.5936 25.2781C23.1049 24.9045 23.4826 24.571 23.8604 24.1378C24.2208 23.7245 24.4007 23.3381 24.3286 22.7944C24.264 22.3068 24.0466 22.3306 23.7363 21.9478C23.4087 21.5436 22.4634 20.6801 21.9478 20.6064Z" fill="#59FF00"/>
<path d="M19.6611 23.0241C19.9932 23.0518 20.3254 23.0795 20.6576 23.1071C20.7282 22.4613 20.9343 21.6993 21.2961 21.3139C21.477 21.1289 21.6372 21.0705 21.8771 21.1014C22.2281 21.1886 22.9565 21.7985 23.3479 22.2626C23.48 22.4329 23.6875 22.6051 23.7624 22.6767C23.8157 22.7354 23.8073 22.7178 23.8329 22.8601C23.8823 23.2249 23.7743 23.4743 23.4836 23.8092C23.136 24.2113 22.7432 24.5513 22.2986 24.8744C21.9708 25.1161 21.704 25.3447 21.5547 25.3494C21.3741 25.3838 21.0268 25.2963 20.6998 25.1808C18.9042 24.1973 17.1706 22.1194 16.0833 20.1677C15.2787 18.7081 14.8218 17.4086 14.7939 15.7648C14.7661 15.283 14.7255 14.8361 14.7763 14.4366C14.805 14.1972 14.8637 13.9592 14.9444 13.7145C15.0371 13.3772 15.3369 13.1922 15.7894 12.8169C16.2138 12.4472 16.4367 12.1976 16.7791 12.1457C17.1277 12.0418 17.8385 12.7409 18.2608 13.3853C18.5992 13.8646 18.8118 14.2258 19.0289 14.7668C18.9927 14.6791 19.0445 14.6276 18.9987 14.6972C18.9602 14.7532 18.8777 14.8354 18.7839 14.9115C18.5921 15.0681 18.3611 15.21 18.102 15.373C17.8022 15.5521 17.1159 15.6277 16.5824 15.6352L16.0803 15.6351L16.0823 16.1372C16.1175 17.0386 16.1606 17.8889 16.5907 18.8222C17.1567 19.8331 17.7813 20.6561 18.4057 21.5339C18.8523 22.1505 19.3036 22.7608 19.7606 23.3673C20.0264 23.1662 20.2922 22.9651 20.5581 22.764C20.1077 22.1663 19.6574 21.5573 19.2157 20.9475C18.607 20.0963 17.9503 19.2078 17.4808 18.3665C17.1932 17.7719 17.1024 16.8995 17.0823 16.1332L16.5822 16.6352C17.26 16.6005 17.8551 16.6304 18.6397 16.2161C18.877 16.066 19.1521 15.9012 19.4168 15.6857C19.5501 15.575 19.686 15.4554 19.8179 15.2707C19.9402 15.1061 20.1098 14.7396 19.9484 14.3737C19.754 13.8664 19.4016 13.2541 19.085 12.8189C18.8257 12.4443 18.5414 12.0777 18.1741 11.7452C17.8151 11.4356 17.3082 11.0422 16.5859 11.1645C15.9288 11.2655 15.4499 11.7964 15.1413 12.0553C14.8297 12.3272 14.1884 12.7213 13.9947 13.4014C13.8992 13.6904 13.8216 13.9982 13.7835 14.3163C13.7175 14.8592 13.7709 15.3611 13.7957 15.8242C13.7898 17.4401 14.4118 19.2631 15.1922 20.6217C16.4914 22.8428 17.9176 24.7664 20.3707 26.1251C20.753 26.2462 21.1414 26.4086 21.7134 26.3367C22.3246 26.2212 22.6065 25.864 22.8886 25.6818C23.3657 25.3363 23.8402 24.9274 24.2373 24.4664C24.6088 24.0846 24.9448 23.3506 24.8243 22.7287C24.8084 22.5211 24.6774 22.148 24.465 21.9651C24.2823 21.7945 24.2123 21.7425 24.1248 21.633C23.5134 20.9953 23.1255 20.4576 22.0185 20.1115C21.5141 20.016 20.8929 20.2538 20.571 20.6253C19.9151 21.3826 19.7714 22.1894 19.6611 23.0241ZM20.6576 23.1071L19.6611 23.0241L20.5581 22.764L19.7606 23.3673L20.5491 24.4096L20.6576 23.1071Z" fill="#59FF00"/>
<path d="M12.9525 30.7032C15.7398 32.3613 19.0085 32.9892 22.2016 32.4799C25.3947 31.9706 28.3147 30.3555 30.464 27.91C32.6133 25.4645 33.859 22.3397 33.9887 19.0682C34.1185 15.7966 33.1244 12.5807 31.1757 9.96841C29.227 7.35609 26.4444 5.50898 23.3019 4.74182C20.1594 3.97465 16.8515 4.33489 13.9419 5.76115C11.0323 7.18742 8.70086 9.59146 7.34495 12.5637C5.98905 15.5359 5.69253 18.8923 6.50592 22.0611L3 30.1876L5.40141 29.3352L8.72315 21.4772C8.04313 18.828 8.29103 16.0219 9.42461 13.537C10.5582 11.0522 12.5073 9.04233 14.9399 7.84993C17.3724 6.65753 20.1379 6.35636 22.7651 6.99774C25.3923 7.63911 27.7187 9.18335 29.3478 11.3673C30.977 13.5513 31.8081 16.2399 31.6996 18.975C31.5911 21.7101 30.5497 24.3225 28.7528 26.367C26.9559 28.4116 24.5148 29.7618 21.8452 30.1876C19.1757 30.6134 16.443 30.0885 14.1127 28.7022L5.83803 28.2296L3 30.1876L12.9525 30.7032Z" fill="#59FF00"/>
</svg>
